####
#
# OBJ File Generated by Meshlab
#
####
# Object 11.obj
#
# Vertices: 68
# Faces: 102
#
####
vn 2.326354 -0.022315 5.668646
v 11.188452 2.137207 -9.823549 1.000000 1.000000 1.000000
vn 3.660959 0.045824 4.958609
v 10.937310 2.617939 -9.682741 1.000000 1.000000 1.000000
vn 4.807015 -0.003790 3.841345
v 10.701255 2.038580 -9.449447 1.000000 1.000000 1.000000
vn 6.002237 0.068073 1.214691
v 10.488332 2.172191 -9.001106 1.000000 1.000000 1.000000
vn 6.030526 0.248868 -1.205136
v 10.490031 2.374009 -8.468549 1.000000 1.000000 1.000000
vn 5.604649 -0.057821 -2.408239
v 10.561719 1.981612 -8.243141 1.000000 1.000000 1.000000
vn 5.028876 0.093681 -3.591324
v 10.688460 2.400647 -8.026811 1.000000 1.000000 1.000000
vn 3.498669 0.030539 -5.041327
v 10.962244 2.164127 -7.758991 1.000000 1.000000 1.000000
vn 1.640213 0.058129 -5.947765
v 11.353355 2.615363 -7.579094 1.000000 1.000000 1.000000
vn 0.696050 0.032780 -6.092702
v 11.510145 2.036799 -7.551238 1.000000 1.000000 1.000000
vn -2.447474 -0.030885 -5.612688
v 12.109621 2.015458 -7.639126 1.000000 1.000000 1.000000
vn -4.261255 0.115833 -4.483331
v 12.457407 2.391216 -7.871215 1.000000 1.000000 1.000000
vn -5.047839 -0.005934 -3.480183
v 12.630635 2.001770 -8.071591 1.000000 1.000000 1.000000
vn -3.058865 -0.042996 0.494334
v 12.793722 1.594229 -8.985338 1.000000 1.000000 1.000000
vn -2.989533 -0.006989 -0.722899
v 12.789199 1.593808 -8.423058 1.000000 1.000000 1.000000
vn -6.115905 -0.007687 -0.704561
v 12.808386 1.978968 -8.554013 1.000000 1.000000 1.000000
vn -0.728975 0.065868 -6.157031
v 11.798270 2.589133 -7.552214 1.000000 1.000000 1.000000
vn -5.911904 0.150181 1.688190
v 12.770322 2.336010 -9.102532 1.000000 1.000000 1.000000
vn -6.045720 -0.020742 -1.063434
v 12.804125 2.354753 -8.478193 1.000000 1.000000 1.000000
vn -6.179357 0.008082 0.352186
v 12.817816 2.756298 -8.858607 1.000000 1.000000 1.000000
vn -5.661463 -0.130137 -2.400380
v 12.729650 2.623567 -8.256007 1.000000 1.000000 1.000000
vn -5.805003 -0.097816 2.082398
v 12.736991 1.974159 -9.190862 1.000000 1.000000 1.000000
vn -2.980629 -0.051412 0.862976
v 12.762342 3.181841 -9.136075 1.000000 1.000000 1.000000
vn -3.076355 -0.101207 -0.359549
v 12.807150 3.181461 -8.627052 1.000000 1.000000 1.000000
vn -5.825560 0.074480 2.235980
v 12.740614 2.802029 -9.182147 1.000000 1.000000 1.000000
vn -5.031917 0.037029 3.644687
v 12.635793 2.682626 -9.377660 1.000000 1.000000 1.000000
vn -1.779678 -0.036966 2.513732
v 12.323836 3.182262 -9.700450 1.000000 1.000000 1.000000
vn -3.315327 0.004375 5.192843
v 12.280523 2.556408 -9.731246 1.000000 1.000000 1.000000
vn -1.439311 0.030355 6.003497
v 11.925907 2.818971 -9.881399 1.000000 1.000000 1.000000
vn 0.280190 0.043383 3.091701
v 11.540146 3.182418 -9.910439 1.000000 1.000000 1.000000
vn 1.162424 0.076636 6.053421
v 11.416774 2.744619 -9.893279 1.000000 1.000000 1.000000
vn 1.326131 -0.027577 2.799234
v 11.142256 3.182338 -9.803826 1.000000 1.000000 1.000000
vn 6.150319 0.070795 0.457159
v 10.460943 2.609338 -8.821266 1.000000 1.000000 1.000000
vn 3.069398 -0.055410 -0.427893
v 10.461940 3.181458 -8.625484 1.000000 1.000000 1.000000
vn 5.753258 -0.038038 -2.187372
v 10.531172 2.765886 -8.316196 1.000000 1.000000 1.000000
vn 2.513961 -0.090590 -1.755955
v 10.671927 3.181028 -8.048543 1.000000 1.000000 1.000000
vn 4.041300 -0.076527 -4.623918
v 10.858354 2.753388 -7.837483 1.000000 1.000000 1.000000
vn 1.383848 -0.061915 -2.757903
v 11.142253 3.180734 -7.653892 1.000000 1.000000 1.000000
vn -4.279581 0.141389 -4.482332
v 12.444193 2.794105 -7.853931 1.000000 1.000000 1.000000
vn -2.637041 -0.040325 -1.606691
v 12.615112 3.181029 -8.048542 1.000000 1.000000 1.000000
vn -4.722091 -0.072700 4.009774
v 12.556564 2.130243 -9.486553 1.000000 1.000000 1.000000
vn -0.679200 0.004164 6.109878
v 11.793782 2.237684 -9.903873 1.000000 1.000000 1.000000
vn -2.853510 -0.036287 5.475920
v 12.200792 2.004102 -9.776653 1.000000 1.000000 1.000000
vn 5.397400 0.036526 2.997094
v 10.607848 2.697989 -9.306336 1.000000 1.000000 1.000000
vn -2.665050 0.045974 -5.613245
v 12.138217 2.619978 -7.651718 1.000000 1.000000 1.000000
vn -2.709770 0.034813 1.516350
v 12.674633 1.594482 -9.325354 1.000000 1.000000 1.000000
vn -2.135046 0.007545 2.263814
v 12.482215 1.594664 -9.568738 1.000000 1.000000 1.000000
vn -1.259439 -0.023279 2.823508
v 12.144786 1.594839 -9.805009 1.000000 1.000000 1.000000
vn -0.271532 -0.044885 3.074879
v 11.746896 1.594919 -9.911623 1.000000 1.000000 1.000000
vn 0.753722 -0.031735 3.000085
v 11.336537 1.594892 -9.875722 1.000000 1.000000 1.000000
vn 1.831642 0.002092 2.482917
v 10.963205 1.594761 -9.701636 1.000000 1.000000 1.000000
vn 2.736389 0.105161 1.387634
v 10.590149 1.594444 -9.277618 1.000000 1.000000 1.000000
vn 3.055732 -0.087295 -0.113218
v 10.457487 1.593997 -8.677570 1.000000 1.000000 1.000000
vn 2.805359 0.001574 -1.292001
v 10.568552 1.593662 -8.228777 1.000000 1.000000 1.000000
vn 2.221087 -0.050221 -2.151628
v 10.804824 1.593409 -7.891349 1.000000 1.000000 1.000000
vn 1.229004 0.029401 -2.831755
v 11.142253 1.593234 -7.655077 1.000000 1.000000 1.000000
vn -0.087422 -0.043739 -3.080748
v 11.695991 1.593151 -7.544010 1.000000 1.000000 1.000000
vn -0.992417 -0.055586 -2.935450
v 12.050735 1.593202 -7.611222 1.000000 1.000000 1.000000
vn -1.873586 -0.142622 -2.466575
v 12.323834 1.593311 -7.758451 1.000000 1.000000 1.000000
vn -2.521192 -0.000159 -1.793005
v 12.615111 1.593530 -8.049726 1.000000 1.000000 1.000000
vn -0.583001 0.045175 3.026312
v 11.850271 3.182412 -9.901395 1.000000 1.000000 1.000000
vn -0.921838 -0.072003 -2.953637
v 11.999858 3.180691 -7.596403 1.000000 1.000000 1.000000
vn 0.245457 -0.057059 -3.089201
v 11.540143 3.180654 -7.547277 1.000000 1.000000 1.000000
vn -2.583716 -0.012535 1.721840
v 12.674633 3.181981 -9.324169 1.000000 1.000000 1.000000
vn 2.273940 -0.042820 2.097470
v 10.768695 3.182135 -9.531424 1.000000 1.000000 1.000000
vn 2.885392 0.098375 1.129583
v 10.524698 3.181839 -9.136077 1.000000 1.000000 1.000000
vn 3.065916 0.087712 0.530008
v 10.470984 3.181690 -8.935609 1.000000 1.000000 1.000000
vn -1.937659 -0.020306 -2.418154
v 12.408836 3.180856 -7.816786 1.000000 1.000000 1.000000
# 68 vertices, 0 vertices normals

f 1//1 2//2 3//3
f 4//4 5//5 6//6
f 6//6 7//7 8//8
f 8//8 9//9 10//10
f 11//11 12//12 13//13
f 14//14 15//15 16//16
f 17//17 11//11 10//10
f 18//18 16//16 19//19
f 16//16 15//15 13//13
f 20//20 19//19 21//21
f 18//18 22//22 16//16
f 23//23 20//20 24//24
f 20//20 23//23 25//25
f 26//26 27//27 28//28
f 29//29 30//30 31//31
f 31//31 32//32 2//2
f 33//33 34//34 35//35
f 35//35 36//36 37//37
f 37//37 38//38 9//9
f 39//39 40//40 21//21
f 17//17 10//10 9//9
f 41//41 22//22 18//18
f 42//42 43//43 28//28
f 44//44 3//3 2//2
f 4//4 3//3 44//44
f 5//5 4//4 33//33
f 7//7 6//6 5//5
f 45//45 11//11 17//17
f 12//12 11//11 45//45
f 21//21 13//13 12//12
f 14//14 22//22 46//46
f 46//46 22//22 41//41
f 43//43 47//47 41//41
f 47//47 43//43 48//48
f 48//48 43//43 49//49
f 50//50 1//1 51//51
f 3//3 51//51 1//1
f 51//51 3//3 52//52
f 4//4 52//52 3//3
f 52//52 4//4 53//53
f 6//6 53//53 4//4
f 53//53 6//6 54//54
f 54//54 6//6 55//55
f 8//8 55//55 6//6
f 55//55 8//8 56//56
f 10//10 56//56 8//8
f 56//56 10//10 57//57
f 57//57 11//11 58//58
f 58//58 11//11 59//59
f 13//13 59//59 11//11
f 59//59 13//13 60//60
f 19//19 13//13 21//21
f 60//60 13//13 15//15
f 30//30 29//29 61//61
f 11//11 57//57 10//10
f 62//62 17//17 63//63
f 18//18 19//19 20//20
f 16//16 13//13 19//19
f 20//20 21//21 24//24
f 64//64 25//25 23//23
f 25//25 64//64 26//26
f 18//18 25//25 26//26
f 25//25 18//18 20//20
f 27//27 26//26 64//64
f 28//28 27//27 29//29
f 61//61 29//29 27//27
f 28//28 29//29 42//42
f 42//42 31//31 1//1
f 31//31 42//42 29//29
f 32//32 31//31 30//30
f 2//2 1//1 31//31
f 65//65 2//2 32//32
f 2//2 65//65 44//44
f 66//66 44//44 65//65
f 67//67 44//44 66//66
f 44//44 67//67 33//33
f 4//4 44//44 33//33
f 34//34 33//33 67//67
f 33//33 35//35 5//5
f 36//36 35//35 34//34
f 5//5 35//35 7//7
f 37//37 7//7 35//35
f 38//38 37//37 36//36
f 7//7 37//37 8//8
f 9//9 8//8 37//37
f 63//63 9//9 38//38
f 9//9 63//63 17//17
f 17//17 62//62 45//45
f 45//45 62//62 68//68
f 68//68 39//39 45//45
f 45//45 39//39 12//12
f 40//40 39//39 68//68
f 24//24 21//21 40//40
f 21//21 12//12 39//39
f 22//22 14//14 16//16
f 49//49 43//43 42//42
f 42//42 50//50 49//49
f 43//43 41//41 28//28
f 28//28 41//41 26//26
f 18//18 26//26 41//41
f 41//41 47//47 46//46
f 1//1 50//50 42//42
# 102 faces, 0 coords texture

# End of File
