v 24.24147605895996 -2.8671910762786865 -17.908740997314453
vn 6.129252910614014 0.5600849986076355 0.5694869756698608
v 24.284299850463867 -3.2968719005584717 -18.718318939208984
vn 6.18186616897583 -0.5072020292282104 0.2855829894542694
v 24.31633949279785 -2.866131067276001 -19.521690368652344
vn 6.155707836151123 0.5598559975624084 0.0013760000001639128
v 24.284255981445312 -3.295746088027954 -20.331445693969727
vn 6.181903839111328 -0.5071510076522827 -0.28611499071121216
v 24.24201774597168 -2.8650670051574707 -21.134796142578125
vn 6.129502773284912 0.5600450038909912 -0.5666980147361755
v 24.243852615356445 -3.7304530143737793 -19.527185440063477
vn 5.978590965270996 -1.5728739500045776 -0.0019749999046325684
v 24.231521606445312 2.244713068008423 -21.130216598510742
vn 6.10052490234375 0.8090999722480774 -0.5635020136833191
v 24.287309646606445 1.825618028640747 -20.32752799987793
vn 6.205728054046631 -0.23085899651050568 -0.28716400265693665
v 24.27084732055664 1.3774909973144531 -19.52338218688965
vn 6.037899017333984 -1.3047939538955688 -0.0019539999775588512
v 24.305858612060547 2.243551015853882 -19.51869010925293
vn 6.126712799072266 0.8077509999275208 0.00133200001437217
v 24.287309646606445 1.8243989944458008 -18.714061737060547
vn 6.205657005310059 -0.23138700425624847 0.28708699345588684
v 24.231151580810547 2.242408037185669 -17.906932830810547
vn 6.100207805633545 0.8078349828720093 0.5668219923973083
f 3//3 2//2 6//6
f 4//4 3//3 6//6
f 9//9 8//8 10//10
f 10//10 11//11 9//9
