v 25.256423950195312 58.91731643676758 -65.95491027832031
vn 6.273228168487549 -0.19959400594234467 -0.25547799468040466
v 25.307586669921875 60.18824768066406 -65.44198608398438
vn 6.278378009796143 -0.13734300434589386 -0.16592399775981903
v 25.259035110473633 60.51112747192383 -66.73694610595703
vn 6.2685980796813965 -0.11683499813079834 -0.38552001118659973
v 25.325023651123047 61.521949768066406 -65.57817077636719
vn 6.278584003448486 -0.047405000776052475 -0.18578800559043884
v 25.258174896240234 62.15882110595703 -66.9945068359375
vn 6.266599178314209 -0.014709999784827232 -0.43299901485443115
v 25.325735092163086 63.11875534057617 -65.62812042236328
vn 6.27855920791626 0.028325000777840614 -0.1897449940443039
v 25.25484275817871 63.91123580932617 -66.95709228515625
vn 6.266201019287109 0.06998199969530106 -0.42939499020576477
v 25.249141693115234 63.05613708496094 -61.811927795410156
vn 6.2658371925354 0.0343099981546402 0.4452509880065918
v 25.29056167602539 66.0537109375 -64.8091049194336
vn 6.164422035217285 0.8758879899978638 -0.10612700134515762
v 25.27989959716797 65.59878540039062 -63.136985778808594
vn 6.261481761932373 0.3636919856071472 0.18040600419044495
v 25.330385208129883 64.29002380371094 -64.3880615234375
vn 6.281029224395752 0.09357199817895889 0.02060299925506115
v 25.307037353515625 64.61935424804688 -65.66545867919922
vn 6.277439117431641 0.11895699799060822 -0.19976699352264404
v 25.256328582763672 58.89314270019531 -62.90809631347656
vn 6.272975921630859 -0.20254799723625183 0.26007500290870667
v 25.25892448425293 58.04239273071289 -64.3287124633789
vn 6.276700973510742 -0.23951800167560577 0.017315000295639038
v 25.306983947753906 59.52153778076172 -64.30115509033203
vn 6.279046058654785 -0.17101800441741943 0.019677000120282173
v 25.334739685058594 60.95913314819336 -64.25987243652344
vn 6.281130790710449 -0.07648800313472748 0.03408600017428398
v 25.3410701751709 62.56644821166992 -64.24760437011719
vn 6.282008171081543 0.007284000050276518 0.03412000089883804
v 25.296470642089844 60.41666793823242 -62.94342803955078
vn 6.275483131408691 -0.11442899703979492 0.25338301062583923
v 25.315176010131836 61.97137451171875 -63.007511138916016
vn 6.277153968811035 -0.021747000515460968 0.2393759936094284
v 25.311450958251953 63.772769927978516 -63.07752227783203
vn 6.277115821838379 0.06830699741840363 0.2299019992351532
f 2//2 1//1 3//3
f 2//2 3//3 4//4
f 4//4 3//3 5//5
f 4//4 5//5 6//6
f 6//6 5//5 7//7
f 9//9 10//10 11//11
f 9//9 11//11 12//12
f 14//14 1//1 15//15
f 15//15 1//1 2//2
f 15//15 2//2 16//16
f 16//16 2//2 4//4
f 16//16 4//4 17//17
f 17//17 4//4 6//6
f 17//17 6//6 11//11
f 11//11 6//6 12//12
f 7//7 12//12 6//6
f 18//18 13//13 15//15
f 15//15 13//13 14//14
f 19//19 18//18 16//16
f 16//16 18//18 15//15
f 20//20 8//8 19//19
f 20//20 17//17 11//11
f 19//19 17//17 20//20
f 17//17 19//19 16//16
f 11//11 10//10 20//20
