v -22.6120662689209 61.42721939086914 -62.422996520996094
vn -6.274251937866211 -0.06680399924516678 0.2850170135498047
v -22.626422882080078 62.95127868652344 -62.653106689453125
vn -6.276564121246338 0.021508000791072845 0.24350599944591522
v -22.652286529541016 61.80359649658203 -64.0507583618164
vn -6.281074047088623 -0.049247998744249344 0.008159000426530838
v -22.65250015258789 63.25344467163086 -64.22972869873047
vn -6.281231880187988 0.03939099982380867 -0.02212899923324585
v -22.624637603759766 62.14365005493164 -65.5959701538086
vn -6.276071071624756 -0.03127500042319298 -0.25222599506378174
v -22.61244010925293 63.48577117919922 -65.75721740722656
vn -6.272596836090088 0.06496100127696991 -0.3150250017642975
v -22.575288772583008 64.8583755493164 -66.13220977783203
vn -6.268580913543701 0.10608399659395218 -0.37186399102211
v -22.61258316040039 60.72899627685547 -65.4683837890625
vn -6.276078224182129 -0.10357499867677689 -0.2364960014820099
v -22.55723762512207 57.85132598876953 -64.42340087890625
vn -6.276106834411621 -0.24934400618076324 -0.0622589997947216
v -22.59134292602539 59.01909255981445 -63.30575942993164
vn -6.277406215667725 -0.18731099367141724 0.12898199260234833
v -22.582223892211914 60.05057144165039 -62.29495620727539
vn -6.272940158843994 -0.13067300617694855 0.30391600728034973
v -22.599864959716797 59.36052322387695 -64.9691162109375
vn -6.276889801025391 -0.1713559925556183 -0.15266400575637817
v -22.630489349365234 60.42285919189453 -63.79120635986328
vn -6.2805352210998535 -0.11599499732255936 0.04656299948692322
v -22.632749557495117 64.69063568115234 -64.47747039794922
vn -6.279946804046631 0.11625800281763077 -0.06708099693059921
v -22.619564056396484 64.44910430908203 -62.88517761230469
vn -6.277214050292969 0.10261999815702438 0.20435099303722382
v -22.593507766723633 66.13020324707031 -64.77657318115234
vn -6.2772297859191895 0.18868499994277954 -0.12240099906921387
v -22.59381866455078 65.92729187011719 -63.145450592041016
vn -6.276905059814453 0.1772730052471161 0.15863199532032013
f 1//1 2//2 3//3
f 3//3 2//2 4//4
f 3//3 4//4 5//5
f 5//5 4//4 6//6
f 8//8 12//12 13//13
f 3//3 8//8 13//13
f 3//3 13//13 1//1
f 1//1 13//13 11//11
f 3//3 5//5 8//8
f 7//7 6//6 14//14
f 14//14 6//6 4//4
f 14//14 4//4 15//15
f 15//15 4//4 2//2
f 16//16 7//7 14//14
f 16//16 14//14 17//17
f 17//17 14//14 15//15
f 10//10 12//12 9//9
f 12//12 10//10 13//13
f 13//13 10//10 11//11
