v 1.6421840190887451 147.4486846923828 -64.57574462890625
vn 1.0277550220489502 6.060442924499512 -0.47697800397872925
v 1.3455350399017334 147.47256469726562 -64.21842956542969
vn -0.012253000400960445 6.216432094573975 0.01684200018644333
v 1.4415090084075928 147.4464569091797 -64.7744140625
vn 1.059190034866333 5.902615070343018 -0.33809301257133484
v 1.513638973236084 147.40484619140625 -65.10869598388672
vn 1.5887659788131714 5.840065002441406 -0.6351289749145508
v 1.4402079582214355 147.4392547607422 -64.84940338134766
vn -0.6908940076828003 6.023408889770508 -0.7518470287322998
v 1.392596960067749 147.46556091308594 -64.50898742675781
vn -0.04312000051140785 2.5058679580688477 -0.06956399977207184
v 1.9388580322265625 147.41282653808594 -63.80512237548828
vn 1.8197489976882935 5.1922101974487305 -1.4226549863815308
v 1.6809179782867432 147.44854736328125 -63.94392776489258
vn 1.2146940231323242 5.816812038421631 -0.9088379740715027
v 1.350851058959961 147.4575958251953 -63.79669952392578
vn 1.5576610565185547 3.8257720470428467 0.12457700073719025
v 1.342587947845459 147.44874572753906 -63.68470764160156
vn -1.4475929737091064 4.581167221069336 0.3786259889602661
v 1.256593942642212 147.45233154296875 -63.739097595214844
vn 1.200585961341858 4.756976127624512 0.5693519711494446
v 1.2760560512542725 147.46229553222656 -63.88030242919922
vn -0.2993839979171753 5.168264865875244 0.10389599949121475
v 1.1499669551849365 147.43798828125 -64.82242584228516
vn -0.2533639967441559 6.233468055725098 -0.6652870178222656
v 1.290794014930725 147.4629669189453 -64.55694580078125
vn 0.7501800060272217 5.932257175445557 -0.3172839879989624
v 1.2815090417861938 147.45542907714844 -64.6718521118164
vn 1.5338330268859863 4.53182315826416 -0.5397719740867615
v 1.3615339994430542 147.46034240722656 -64.60797119140625
vn 2.3680880069732666 4.515871047973633 -0.06949199736118317
v 1.3781050443649292 147.45533752441406 -64.6789779663086
vn -1.2196760177612305 5.21176290512085 -0.4409720003604889
v 1.3781989812850952 147.46188354492188 -64.58106231689453
vn 0.8712109923362732 5.267129898071289 -0.08604100346565247
v 1.4079439640045166 147.44602966308594 -64.7862548828125
vn 0.2907629907131195 5.959016799926758 -0.5295670032501221
v 1.400164008140564 147.4585723876953 -64.62995147705078
vn 0.78370600938797 4.853122234344482 -0.07070200145244598
v 1.425022006034851 147.4634552001953 -64.54072570800781
vn -1.7104320526123047 5.442677974700928 -0.7451800107955933
v 1.3124489784240723 147.4471435546875 -64.7772445678711
vn -0.8450859785079956 6.055053234100342 -0.5063989758491516
v 1.283884048461914 147.4202117919922 -65.01766967773438
vn -0.3485740125179291 6.189037799835205 -0.8655949831008911
v 1.229894995689392 147.38241577148438 -65.2615737915039
vn -0.4651600122451782 5.827106952667236 -0.9716110229492188
v 1.2802540063858032 147.4340057373047 -64.90288543701172
vn -1.0706249475479126 5.663702011108398 -0.4815950095653534
v 1.2949830293655396 147.45510864257812 -64.67886352539062
vn -0.06925400346517563 3.777569055557251 -0.14321500062942505
v 1.2519049644470215 147.42730712890625 -64.95559692382812
vn -0.17736299335956573 5.369111061096191 -0.5986300110816956
v 1.374282956123352 147.41029357910156 -65.09407043457031
vn 0.8568440079689026 5.924796104431152 -1.0548150539398193
v 1.3165680170059204 147.46119689941406 -64.5926513671875
vn -0.5788869857788086 4.196352005004883 -0.08884699642658234
v 1.2147560119628906 147.41749572753906 -65.02488708496094
vn 1.3063570261001587 5.646781921386719 -1.0137929916381836
v 1.2503360509872437 147.4650115966797 -64.50054168701172
vn 0.10527099668979645 2.7287590503692627 -0.11156000196933746
v 1.1422139406204224 147.44046020507812 -64.79252624511719
vn -1.278689980506897 5.999276161193848 -0.1594330072402954
v 1.028488039970398 147.40225219726562 -65.05782318115234
vn -0.5015959739685059 6.068936824798584 -0.9061490297317505
v 1.2044719457626343 147.4588165283203 -64.59071350097656
vn 1.1737840175628662 5.478776931762695 -0.8114079833030701
v 1.0556930303573608 147.45571899414062 -63.9986572265625
vn -0.6631029844284058 0.1618880033493042 -0.682092010974884
v 1.1424579620361328 147.45181274414062 -63.78797149658203
vn 0.7294620275497437 5.943480968475342 0.968438982963562
v 1.1728860139846802 147.44223022460938 -63.65369415283203
vn -0.41643399000167847 5.526834011077881 0.2929520010948181
v 1.1587769985198975 147.43374633789062 -63.574859619140625
vn 1.3283250331878662 5.604172229766846 1.0693860054016113
v 1.090386986732483 147.41241455078125 -63.4261474609375
vn -1.5465689897537231 5.747416019439697 0.40153199434280396
v 1.0598889589309692 147.37277221679688 -63.17577362060547
vn -0.201541006565094 6.085029125213623 1.0407429933547974
v 1.2272870540618896 147.45521545410156 -63.78717803955078
vn -0.19099299609661102 4.0270161628723145 0.11868499964475632
v 1.1750340461730957 147.4315948486328 -63.54829406738281
vn -0.7848790287971497 5.5788960456848145 0.4257639944553375
v 1.2561630010604858 147.4598388671875 -63.845489501953125
vn -1.3679310083389282 4.291231155395508 -0.17260399460792542
v 1.2403279542922974 147.4523162841797 -63.74388885498047
vn 0.010478000156581402 5.478886127471924 0.5571749806404114
v 1.1448149681091309 147.40499877929688 -63.348960876464844
vn -1.2312990427017212 5.9918532371521 0.6939989924430847
v 1.1747610569000244 147.41302490234375 -63.39686584472656
vn 1.042273998260498 5.819937229156494 0.9500769972801208
v 1.2230830192565918 147.4276885986328 -63.498802185058594
vn -0.16922099888324738 5.401357173919678 0.6194210052490234
v 1.2789360284805298 147.45556640625 -63.77558135986328
vn 0.3960590064525604 3.3112850189208984 0.19326600432395935
v 1.2416590452194214 147.42440795898438 -63.46730041503906
vn 0.21924899518489838 5.27864408493042 0.6554740071296692
v 1.1894780397415161 147.3867950439453 -63.217132568359375
vn 0.26012200117111206 5.1262898445129395 0.951108992099762
v 1.2893489599227905 147.45387268066406 -63.7509765625
vn 0.3279550075531006 3.17419695854187 0.17305000126361847
v 1.260293960571289 147.4200897216797 -63.429718017578125
vn 0.20085300505161285 5.285064220428467 0.6647629737854004
v 1.2107449769973755 147.37721252441406 -63.15581512451172
vn -1.7858890295028687 5.622315883636475 0.7465659976005554
v 1.3009239435195923 147.4519805908203 -63.72540283203125
vn -0.088127002120018 3.7313320636749268 0.1562879979610443
v 1.290498971939087 147.42811584472656 -63.48994445800781
vn -0.9967730045318604 5.679194927215576 0.5470229983329773
v 1.321720004081726 147.4602508544922 -63.83729553222656
vn 0.21765899658203125 1.9095970392227173 0.07799900323152542
v 1.2988799810409546 147.41238403320312 -63.36796569824219
vn 0.5863770246505737 5.74376916885376 0.8800470232963562
v 1.326200008392334 147.4488983154297 -63.68682098388672
vn 0.024261999875307083 3.573862075805664 0.16883499920368195
v 1.3288060426712036 147.41697692871094 -63.39996337890625
vn 0.20304200053215027 5.21049690246582 0.6833320260047913
v 1.3649100065231323 147.41720581054688 -63.40203857421875
vn 0.16140000522136688 5.905741214752197 0.7980470061302185
v 1.3533780574798584 147.40048217773438 -63.285240173339844
vn -0.7043759822845459 5.24672794342041 0.8695799708366394
v 1.3592000007629395 147.46449279785156 -63.910316467285156
vn -0.2417290061712265 1.8324929475784302 0.06055799871683121
v 1.3789219856262207 147.4422149658203 -63.617042541503906
vn 0.8522469997406006 5.641816139221191 0.46808600425720215
v 1.3733439445495605 147.42945861816406 -63.49944305419922
vn -0.37248799204826355 5.6975789070129395 0.6010199785232544
v 1.373810052871704 147.45883178710938 -63.81629943847656
vn 0.26808199286460876 3.880373954772949 0.11993800103664398
v 1.4021530151367188 147.43540954589844 -63.55457305908203
vn 0.24833400547504425 5.3664751052856445 0.5570610165596008
v 1.41007399559021 147.39987182617188 -63.285125732421875
vn -0.7100939750671387 6.021539211273193 0.8809729814529419
v 1.3907279968261719 147.4552764892578 -63.768280029296875
vn 0.2254360020160675 3.7994649410247803 0.13084200024604797
v 1.4330350160598755 147.42530822753906 -63.47282409667969
vn 0.2531610131263733 5.314208030700684 0.6195420026779175
v 1.4503329992294312 147.3821563720703 -63.18113708496094
vn 1.5702999830245972 5.798618793487549 0.8498610258102417
v 1.6039680242538452 147.3834228515625 -63.23291015625
vn 0.28143998980522156 6.200911998748779 0.8924499750137329
v 1.4604929685592651 147.45452880859375 -63.778221130371094
vn 2.1822240352630615 5.274637222290039 -0.2509480118751526
v 1.5417250394821167 147.42776489257812 -63.52764892578125
vn 0.35394299030303955 5.644974231719971 0.5898740291595459
v 1.478518009185791 147.45407104492188 -63.78003692626953
vn -1.9653199911117554 5.085546016693115 1.023669958114624
v 1.528324007987976 147.4237823486328 -64.96084594726562
vn 0.2677460014820099 5.952117919921875 -0.6100829839706421
v 1.4605940580368042 147.4505157470703 -64.7213134765625
vn 0.49476200342178345 5.84807014465332 -0.3577980101108551
v 1.561642050743103 147.3918914794922 -65.17974853515625
vn -0.492235004901886 5.865289211273193 -1.0777150392532349
v 1.4063299894332886 147.4658203125 -64.49913787841797
vn -0.318107008934021 2.466715097427368 -0.13035200536251068
v 1.4818949699401855 147.43524169921875 -64.8763427734375
vn -0.1009569987654686 5.833583831787109 -0.683007001876831
v 1.4211430549621582 147.4591064453125 -64.61676788330078
vn 0.588919997215271 4.35439395904541 -0.04305399954319
v 1.2154459953308105 147.4593048095703 -63.85505676269531
vn 0.3353410065174103 4.408226013183594 0.28942298889160156
v 1.141332983970642 147.44329833984375 -63.682029724121094
vn 0.8634510040283203 5.947805881500244 1.027366042137146
v 1.0429589748382568 147.4029541015625 -63.38018798828125
vn 0.661404013633728 5.954667091369629 1.251276969909668
v 1.2162150144577026 147.46170043945312 -63.89656066894531
vn 0.2250320017337799 4.560815811157227 0.25001201033592224
v 1.1290260553359985 147.44525146484375 -63.712318420410156
vn -1.1895819902420044 6.065842151641846 0.08817700296640396
v 1.0020519495010376 147.40277099609375 -63.403465270996094
vn -0.6753129959106445 6.1817498207092285 0.8353710174560547
v 1.145799994468689 147.43870544433594 -63.62994384765625
vn -0.24909700453281403 5.636251926422119 0.5070689916610718
v 1.2386529445648193 147.46165466308594 -63.883750915527344
vn 0.14865200221538544 3.55743408203125 0.16878700256347656
v 1.4126189947128296 147.4510498046875 -63.719017028808594
vn -2.1107540130615234 5.108810901641846 0.7310619950294495
v 1.5465320348739624 147.4599609375 -63.924644470214844
vn 1.8645809888839722 5.411066055297852 -0.9024549722671509
v 1.728417992591858 147.43057250976562 -63.694427490234375
vn -1.2935309410095215 5.17211389541626 1.8059329986572266
v 1.3812789916992188 147.43544006347656 -64.89415740966797
vn 0.4902549982070923 5.6316142082214355 -0.5612890124320984
v 1.4136710166931152 147.3876190185547 -65.23860931396484
vn -0.10875999927520752 5.9018049240112305 -0.9396029710769653
v 1.412479043006897 147.4224853515625 -65.000244140625
vn -0.9605429768562317 5.96586799621582 -0.7886170148849487
v 1.4609930515289307 147.40626525878906 -65.11160278320312
vn -0.33901500701904297 6.136011123657227 -1.1004810333251953
v 1.2104229927062988 147.46253967285156 -63.916542053222656
vn 0.5262470245361328 4.660998821258545 0.39833301305770874
v 1.028090000152588 147.4197235107422 -63.522972106933594
vn -0.4461430013179779 6.197938919067383 0.6812250018119812
f 3//3 4//4 5//5
f 3//3 5//5 6//6
f 6//6 5//5 2//2
f 9//9 2//2 10//10
f 11//11 2//2 12//12
f 13//13 2//2 14//14
f 14//14 2//2 15//15
f 17//17 2//2 18//18
f 18//18 2//2 19//19
f 19//19 2//2 20//20
f 23//23 24//24 25//25
f 25//25 24//24 26//26
f 26//26 24//24 27//27
f 26//26 27//27 2//2
f 2//2 27//27 15//15
f 2//2 16//16 22//22
f 22//22 16//16 28//28
f 22//22 28//28 23//23
f 2//2 22//22 29//29
f 29//29 22//22 23//23
f 29//29 23//23 25//25
f 26//26 2//2 25//25
f 25//25 2//2 29//29
f 2//2 31//31 32//32
f 32//32 31//31 13//13
f 32//32 13//13 33//33
f 36//36 2//2 35//35
f 2//2 37//37 38//38
f 38//38 37//37 39//39
f 38//38 39//39 40//40
f 2//2 41//41 42//42
f 42//42 41//41 40//40
f 2//2 43//43 44//44
f 44//44 43//43 45//45
f 44//44 45//45 46//46
f 2//2 11//11 47//47
f 2//2 48//48 49//49
f 49//49 48//48 50//50
f 2//2 51//51 52//52
f 52//52 51//51 53//53
f 2//2 54//54 55//55
f 2//2 56//56 57//57
f 57//57 56//56 55//55
f 2//2 58//58 59//59
f 2//2 9//9 60//60
f 60//60 9//9 61//61
f 2//2 62//62 63//63
f 63//63 62//62 64//64
f 2//2 65//65 66//66
f 66//66 65//65 67//67
f 66//66 67//67 70//70
f 2//2 68//68 69//69
f 69//69 68//68 70//70
f 2//2 72//72 73//73
f 73//73 72//72 71//71
f 2//2 21//21 76//76
f 76//76 21//21 75//75
f 76//76 75//75 77//77
f 2//2 78//78 79//79
f 79//79 78//78 76//76
f 79//79 76//76 77//77
f 4//4 3//3 80//80
f 80//80 3//3 2//2
f 20//20 2//2 5//5
f 81//81 82//82 83//83
f 81//81 2//2 82//82
f 82//82 2//2 84//84
f 82//82 84//84 85//85
f 82//82 85//85 86//86
f 87//87 39//39 88//88
f 87//87 88//88 2//2
f 39//39 37//37 88//88
f 88//88 37//37 2//2
f 83//83 87//87 81//81
f 81//81 87//87 2//2
f 41//41 2//2 38//38
f 38//38 40//40 41//41
f 43//43 2//2 42//42
f 42//42 45//45 43//43
f 12//12 2//2 44//44
f 11//11 12//12 46//46
f 46//46 12//12 44//44
f 2//2 47//47 48//48
f 48//48 47//47 50//50
f 2//2 49//49 51//51
f 51//51 49//49 53//53
f 2//2 52//52 54//54
f 56//56 2//2 55//55
f 57//57 58//58 2//2
f 59//59 10//10 2//2
f 10//10 61//61 9//9
f 62//62 2//2 64//64
f 64//64 2//2 60//60
f 63//63 67//67 65//65
f 63//63 65//65 2//2
f 66//66 70//70 68//68
f 66//66 68//68 2//2
f 69//69 89//89 2//2
f 89//89 72//72 2//2
f 73//73 74//74 2//2
f 2//2 74//74 90//90
f 91//91 8//8 2//2
f 2//2 90//90 91//91
f 8//8 91//91 7//7
f 28//28 16//16 92//92
f 92//92 16//16 2//2
f 92//92 2//2 17//17
f 94//94 19//19 95//95
f 84//84 2//2 85//85
f 85//85 2//2 96//96
f 85//85 96//96 97//97
f 97//97 96//96 36//36
f 97//97 36//36 35//35
f 83//83 82//82 86//86
f 2//2 36//36 96//96
f 86//86 85//85 97//97
f 34//34 32//32 33//33
f 2//2 32//32 34//34
f 2//2 13//13 31//31
f 13//13 14//14 30//30
f 14//14 15//15 30//30
f 21//21 2//2 1//1
f 78//78 2//2 76//76
f 2//2 79//79 80//80
f 80//80 79//79 4//4
f 5//5 4//4 95//95
f 6//6 2//2 3//3
f 20//20 5//5 95//95
f 19//19 20//20 95//95
f 18//18 19//19 94//94
f 17//17 18//18 94//94
f 17//17 94//94 93//93
f 92//92 17//17 93//93
