v 2.3104779720306396 12.58777141571045 -66.03450775146484
vn 0.39267998933792114 -6.230401992797852 -0.5204200148582458
v 1.540513038635254 12.490262031555176 -65.01256561279297
vn 0.08572400361299515 -6.2550811767578125 -0.23244799673557281
v 0.3778829872608185 12.519624710083008 -63.7632942199707
vn -0.45280998945236206 -6.242137908935547 0.1829569935798645
v 0.06317099928855896 12.572951316833496 -65.50579071044922
vn -0.568153977394104 -6.222242832183838 -0.3795439898967743
v 1.9377750158309937 12.51613998413086 -63.31791687011719
vn 0.2788499891757965 -6.2482171058654785 0.29887500405311584
f 2//2 3//3 4//4
f 3//3 2//2 5//5
