v 0.6692690253257751 65.5228042602539 -94.20817565917969
vn -0.2738589942455292 0.1970990002155304 -6.268375873565674
v 1.7535799741744995 66.29956817626953 -94.19621276855469
vn 0.07576300203800201 0.24562899768352509 -6.273076057434082
v 1.2025020122528076 63.81254959106445 -94.26285552978516
vn -0.08367700129747391 0.09740500152111053 -6.2761969566345215
v 2.3401310443878174 64.8919448852539 -94.22388458251953
vn 0.2707250118255615 0.15042300522327423 -6.270345211029053
v 1.6087150573730469 61.99531173706055 -94.27840423583984
vn 0.043845999985933304 -0.01863900013267994 -6.276747226715088
v 0.20783500373363495 62.75726318359375 -94.23026275634766
vn -0.41933199763298035 0.021056000143289566 -6.265169143676758
v 0.5898320078849792 60.85224151611328 -94.24095916748047
vn -0.3087329864501953 -0.1115960031747818 -6.269893169403076
v 1.9029550552368164 60.20578384399414 -94.2442398071289
vn 0.13996100425720215 -0.15807700157165527 -6.2750630378723145
v 0.99577397108078 58.96691131591797 -94.20203399658203
vn -0.18277999758720398 -0.25039198994636536 -6.2705302238464355
v 2.967067003250122 63.036766052246094 -94.21878051757812
vn 0.4773530066013336 0.05077299848198891 -6.2582502365112305
v 2.9771859645843506 61.17112350463867 -94.2085952758789
vn 0.4878549873828888 -0.08978600054979324 -6.259338855743408
f 3//3 1//1 4//4
f 4//4 1//1 2//2
f 3//3 5//5 6//6
f 6//6 5//5 7//7
f 5//5 8//8 7//7
f 7//7 8//8 9//9
f 5//5 3//3 10//10
f 10//10 3//3 4//4
f 8//8 5//5 11//11
f 11//11 5//5 10//10
