v -6.436213970184326 12.96084213256836 -22.060840606689453
vn -0.48486700654029846 -0.4189240038394928 -6.211363792419434
v -5.9677910804748535 16.934598922729492 -22.044063568115234
vn 0.9610520005226135 0.606037974357605 -6.058949947357178
v 1.1924749612808228 16.718713760375977 -22.04801368713379
vn 0.8434590101242065 0.2740429937839508 -6.164230823516846
v 0.7595630288124084 17.00092887878418 -22.056760787963867
vn -0.2232860028743744 0.6869289875030518 -6.154780864715576
v -6.152998924255371 12.61868667602539 -22.035213470458984
vn 0.34843000769615173 -1.0269500017166138 -6.095980167388916
v 0.690015971660614 14.32934284210205 -22.078004837036133
vn -0.42715099453926086 0.024111999198794365 -6.2165679931640625
v 0.6061810255050659 13.622908592224121 -22.07377815246582
vn -0.6439279913902283 -0.1122799962759018 -6.186776161193848
v 0.271481990814209 14.067317008972168 -21.992204666137695
vn -1.8456170558929443 0.03009199909865856 -5.982947826385498
v 0.2191150039434433 14.684348106384277 -21.986825942993164
vn -1.8360480070114136 0.005102999974042177 -5.956782817840576
v 1.3722920417785645 12.848143577575684 -22.002117156982422
vn 0.9643210172653198 -0.6237050294876099 -6.115641117095947
v -5.735413074493408 15.757811546325684 -22.004451751708984
vn 1.6863609552383423 0.028277000412344933 -5.989823818206787
v -6.114365100860596 14.624679565429688 -22.08179473876953
vn 0.5221099853515625 0.041811998933553696 -6.185617923736572
v -6.122849941253662 13.849900245666504 -22.085363388061523
vn 0.44834598898887634 -0.009846000000834465 -6.204748153686523
v -6.639764785766602 14.198308944702148 -22.051403045654297
vn -0.8749459981918335 0.030998999252915382 -6.201388835906982
v 0.9425430297851562 13.185759544372559 -22.066505432128906
vn 0.1647689938545227 -0.36029601097106934 -6.211728096008301
v -6.54299783706665 16.90115737915039 -22.055253982543945
vn -0.5777999758720398 0.5064759850502014 -6.156772136688232
v 0.7688990235328674 15.05076789855957 -22.075950622558594
vn -0.19638100266456604 -0.0034729999024420977 -6.228973865509033
v 0.6720010042190552 15.752606391906738 -22.08015251159668
vn -0.44516700506210327 -0.006684999912977219 -6.202859878540039
v 1.2429499626159668 15.481127738952637 -22.037837982177734
vn 0.9461290240287781 -0.022269999608397484 -6.192895889282227
v -6.651167869567871 13.528247833251953 -22.051410675048828
vn -0.8664460182189941 -0.05954299867153168 -6.19700288772583
v -6.720061779022217 16.429109573364258 -22.03325653076172
vn -0.9137290120124817 0.00795000046491623 -6.1953887939453125
v -6.070234775543213 13.263853073120117 -22.073299407958984
vn 0.5501829981803894 -0.16087700426578522 -6.205379009246826
v -6.499256134033203 15.291854858398438 -22.05873680114746
vn -0.6800410151481628 0.014426000416278839 -6.236090183258057
v -6.093470096588135 15.338635444641113 -22.07889747619629
vn 0.5977529883384705 0.04094399884343147 -6.187726020812988
v -6.756277084350586 14.827696800231934 -22.028335571289062
vn -1.0167609453201294 0.029756000265479088 -6.184871196746826
v -6.1062421798706055 16.351909637451172 -22.06328773498535
vn 0.5274829864501953 0.028046999126672745 -6.217141151428223
v -6.359501838684082 15.893921852111816 -22.06996726989746
vn -0.16097399592399597 0.05000400170683861 -6.247661113739014
v 0.5821329951286316 16.407424926757812 -22.06322479248047
vn -0.727433979511261 0.10216999799013138 -6.179656982421875
v 1.1517200469970703 16.096040725708008 -22.05082893371582
vn 0.7691329717636108 0.027086999267339706 -6.212717056274414
v 1.1721349954605103 14.491568565368652 -22.047895431518555
vn 0.8620139956474304 0.014379000291228294 -6.205761909484863
v 1.4555920362472534 13.43663215637207 -21.99135971069336
vn 1.2009429931640625 -0.0192709993571043 -6.162021160125732
v -6.8743791580200195 15.882216453552246 -21.999889373779297
vn -1.173225998878479 -0.02413799986243248 -6.166566848754883
v 1.0592420101165771 13.829804420471191 -22.058046340942383
vn 0.6755260229110718 -0.0235190000385046 -6.232656955718994
v 1.3836289644241333 14.941088676452637 -22.007158279418945
vn 1.1346579790115356 0.003648000070825219 -6.171267032623291
v 0.7062879800796509 12.514568328857422 -21.988393783569336
vn -0.5125150084495544 -1.3398139476776123 -5.983080863952637
f 6//6 7//7 8//8
f 12//12 13//13 14//14
f 17//17 18//18 19//19
f 20//20 13//13 22//22
f 12//12 23//23 24//24
f 26//26 27//27 21//21
f 29//29 18//18 28//28
f 17//17 30//30 6//6
f 32//32 21//21 27//27
f 29//29 19//19 18//18
f 14//14 25//25 12//12
f 19//19 34//34 17//17
f 8//8 9//9 6//6
f 17//17 6//6 9//9
f 22//22 1//1 20//20
f 13//13 20//20 14//14
f 23//23 27//27 24//24
f 27//27 23//23 32//32
f 2//2 26//26 16//16
f 21//21 16//16 26//26
f 27//27 26//26 11//11
f 3//3 28//28 4//4
f 28//28 3//3 29//29
f 30//30 33//33 6//6
f 7//7 33//33 15//15
f 31//31 10//10 15//15
f 15//15 33//33 31//31
f 10//10 35//35 15//15
f 23//23 12//12 25//25
f 33//33 7//7 6//6
f 5//5 1//1 22//22
f 30//30 17//17 34//34
f 27//27 11//11 24//24
