v 81.63983154296875 10.203512191772461 -17.776548385620117
vn 6.090622901916504 1.020712971687317 0.5784350037574768
v 81.7269287109375 10.190295219421387 -20.703369140625
vn 6.13120698928833 0.9015190005302429 -0.08742000162601471
v 81.73004913330078 10.3321533203125 -19.712926864624023
vn 5.945357799530029 1.40311598777771 0.01181199960410595
v 81.73306274414062 9.449860572814941 -20.10856819152832
vn 6.28236198425293 -0.011556999757885933 -0.03586899861693382
v 81.71168518066406 10.293646812438965 -18.790884017944336
vn 6.027178764343262 1.1799559593200684 0.20573200285434723
v 81.68329620361328 10.009564399719238 -21.767269134521484
vn 6.212362766265869 0.563992977142334 -0.37139999866485596
v 81.65496063232422 8.531784057617188 -17.856464385986328
vn 6.267195224761963 -0.0036490000784397125 0.4414309859275818
v 81.70405578613281 8.238343238830566 -18.736356735229492
vn 6.277184009552002 -0.002948000095784664 0.2644290030002594
v 81.70860290527344 5.51298713684082 -18.931413650512695
vn 6.276947975158691 -0.010401999577879906 0.27844399213790894
v 81.72686004638672 6.392989158630371 -19.341188430786133
vn 6.280238151550293 -0.004155000206083059 0.1368660032749176
v 81.69457244873047 6.432416915893555 -18.607135772705078
vn 6.276248931884766 -0.012791000306606293 0.29463300108909607
v 81.67703247070312 5.363070964813232 -18.286710739135742
vn 6.274196147918701 -0.011788000352680683 0.33424198627471924
v 81.65890502929688 6.347202777862549 -17.88153076171875
vn 6.268767833709717 -0.010242000222206116 0.4119170010089874
v 81.70159149169922 6.224164962768555 -21.367013931274414
vn 6.276525020599365 0.010030999779701233 -0.2554570138454437
v 81.6917495727539 5.303217887878418 -21.644182205200195
vn 6.271186828613281 -0.013530000112950802 -0.338687002658844
v 81.64542388916016 6.074297904968262 -22.226686477661133
vn 6.2633891105651855 -0.004000999964773655 -0.49479299783706665
v 81.7349853515625 3.4150969982147217 -19.553848266601562
vn 3.139389991760254 -3.062506914138794 0.045451000332832336
v 81.65528106689453 4.38241720199585 -17.87705421447754
vn 6.268272876739502 0.0006309999735094607 0.41658100485801697
v 81.70779418945312 4.469089031219482 -18.954099655151367
vn 6.278092861175537 -0.008933000266551971 0.243259996175766
v 81.72806549072266 4.343542098999023 -19.94315528869629
vn 6.282282829284668 0.003281000070273876 -0.024929000064730644
v 81.67601776123047 7.462018966674805 -18.176855087280273
vn 6.271595001220703 0.0021750000305473804 0.37362098693847656
v 81.71859741210938 7.345149040222168 -19.070741653442383
vn 6.279141902923584 0.005607000086456537 0.19939100742340088
v 81.68472290039062 9.371208190917969 -18.310178756713867
vn 6.271759033203125 0.010065999813377857 0.36581701040267944
v 81.7312240600586 8.597599983215332 -20.240638732910156
vn 6.2817230224609375 -0.020702999085187912 -0.0654349997639656
v 81.72215270996094 6.128651142120361 -20.309507369995117
vn 6.282409191131592 -0.010432999581098557 -0.09125799685716629
v 81.73291778564453 7.103819847106934 -20.06010627746582
vn 6.2816481590271 0.004639999940991402 -0.042451001703739166
v 81.72856903076172 9.567115783691406 -19.36859130859375
vn 6.280778884887695 -0.011760000139474869 0.13255999982357025
v 81.67935943603516 8.92640209197998 -21.8262939453125
vn 6.271068096160889 -0.005266999825835228 -0.36833399534225464
v 81.71232604980469 9.291571617126465 -20.97136116027832
vn 6.279799938201904 -0.018982000648975372 -0.20190000534057617
v 81.6811294555664 7.853234767913818 -21.801971435546875
vn 6.269999027252197 -0.009914999827742577 -0.3735789954662323
v 81.70844268798828 8.47701358795166 -21.04562759399414
vn 6.279804229736328 -0.012159000150859356 -0.2035910040140152
v 81.66393280029297 4.329017162322998 -21.973962783813477
vn 6.266586780548096 -0.0018500000005587935 -0.4410659968852997
v 81.70887756347656 4.467168807983398 -20.93619728088379
vn 6.280614852905273 -0.0032250001095235348 -0.17064300179481506
v 81.70702362060547 6.954411029815674 -21.132892608642578
vn 6.27911901473999 0.004040000028908253 -0.21210099756717682
v 81.71560668945312 7.751181125640869 -20.728158950805664
vn 6.281239986419678 0.0018159999744966626 -0.15026099979877472
v 81.72786712646484 7.9265899658203125 -19.65618896484375
vn 6.282378196716309 0.0020439999643713236 0.05409200116991997
v 81.71534729003906 3.4150969982147217 -20.571392059326172
vn 3.1410059928894043 -3.14342999458313 -0.0607060007750988
v 81.65821075439453 6.919300079345703 -22.1001033782959
vn 6.265328884124756 -0.0016589999431744218 -0.45857900381088257
v 81.6855697631836 3.4150969982147217 -18.537315368652344
vn 3.1378819942474365 -3.147447109222412 0.15252499282360077
v 81.71104431152344 5.499852180480957 -20.861600875854492
vn 6.281744956970215 -0.007073000073432922 -0.1336909979581833
v 81.73316192626953 5.3244757652282715 -19.55318260192871
vn 6.280162811279297 -0.010733000002801418 0.07925000041723251
v 81.63616180419922 3.4150969982147217 -17.52078628540039
vn 3.1288979053497314 -3.063455104827881 0.26064199209213257
v 81.72362518310547 5.158443927764893 -20.20048713684082
vn 6.282236099243164 -0.0013310000067576766 -0.10832200199365616
v 81.69570922851562 3.4150969982147217 -21.58893585205078
vn 3.1353769302368164 -3.061753988265991 -0.16480599343776703
v 81.72230529785156 8.901007652282715 -19.201995849609375
vn 6.280235767364502 -0.011687999591231346 0.16526199877262115
f 2//2 3//3 4//4
f 9//9 10//10 11//11
f 12//12 11//11 13//13
f 14//14 15//15 16//16
f 19//19 17//17 20//20
f 21//21 22//22 8//8
f 7//7 8//8 23//23
f 12//12 18//18 19//19
f 45//45 24//24 4//4
f 10//10 25//25 26//26
f 27//27 5//5 23//23
f 28//28 6//6 29//29
f 30//30 28//28 31//31
f 32//32 15//15 33//33
f 34//34 35//35 26//26
f 36//36 26//26 35//35
f 20//20 37//37 33//33
f 8//8 22//22 36//36
f 4//4 24//24 29//29
f 40//40 33//33 15//15
f 41//41 10//10 9//9
f 18//18 42//42 39//39
f 41//41 20//20 43//43
f 40//40 25//25 43//43
f 45//45 4//4 27//27
f 24//24 36//36 35//35
f 11//11 10//10 22//22
f 12//12 9//9 11//11
f 13//13 11//11 21//21
f 31//31 35//35 30//30
f 14//14 38//38 34//34
f 30//30 34//34 38//38
f 16//16 38//38 14//14
f 17//17 19//19 39//39
f 9//9 19//19 41//41
f 20//20 41//41 19//19
f 1//1 23//23 5//5
f 9//9 12//12 19//19
f 19//19 18//18 39//39
f 3//3 27//27 4//4
f 43//43 25//25 41//41
f 22//22 10//10 26//26
f 10//10 41//41 25//25
f 5//5 27//27 3//3
f 23//23 45//45 27//27
f 28//28 29//29 31//31
f 2//2 29//29 6//6
f 44//44 33//33 37//37
f 33//33 44//44 32//32
f 40//40 14//14 25//25
f 34//34 30//30 35//35
f 25//25 34//34 26//26
f 35//35 31//31 24//24
f 37//37 20//20 17//17
f 43//43 33//33 40//40
f 33//33 43//43 20//20
f 45//45 36//36 24//24
f 4//4 29//29 2//2
f 31//31 29//29 24//24
f 15//15 14//14 40//40
f 11//11 22//22 21//21
f 14//14 34//34 25//25
f 21//21 8//8 7//7
f 36//36 22//22 26//26
f 36//36 45//45 8//8
f 45//45 23//23 8//8
