v 21.81177520751953 10.087667465209961 -22.04958152770996
vn -6.244129180908203 0.330949991941452 -0.47118398547172546
v 21.812889099121094 10.504785537719727 -18.26964569091797
vn -5.760001182556152 1.7692359685897827 0.3094809949398041
v 21.795026779174805 9.480484962463379 -18.196792602539062
vn -6.270655155181885 0.03939199820160866 0.37844300270080566
v 21.770095825195312 10.36479377746582 -21.284536361694336
vn -5.9764909744262695 1.3078750371932983 -0.252126008272171
v 21.74915313720703 9.936771392822266 -20.600364685058594
vn -6.279008865356445 0.10556700080633163 -0.07890100032091141
v 21.774028778076172 10.585123062133789 -20.10015869140625
vn -5.3813347816467285 2.2934889793395996 -0.03040499985218048
v 21.742351531982422 9.582470893859863 -19.787118911743164
vn -6.281513214111328 0.07076100260019302 0.01345099974423647
v 21.75521469116211 10.097942352294922 -19.041147232055664
vn -6.219408988952637 0.5716469883918762 0.1645829975605011
v 21.773141860961914 7.626327991485596 -21.373598098754883
vn -6.275605201721191 -0.006943000014871359 -0.28006500005722046
v 21.817087173461914 6.733123779296875 -22.073246002197266
vn -6.266506195068359 -0.006291000172495842 -0.4475339949131012
v 21.76321792602539 6.774192810058594 -21.031906127929688
vn -6.279352188110352 -0.0010760000441223383 -0.19887499511241913
v 21.782215118408203 8.620016098022461 -21.550537109375
vn -6.2735772132873535 -0.002509000012651086 -0.3258660137653351
v 21.776887893676758 9.5889892578125 -21.433549880981445
vn -6.275905132293701 -0.007400000002235174 -0.2893179953098297
v 21.82721710205078 9.381431579589844 -22.2420654296875
vn -6.264932155609131 -0.02082199975848198 -0.47228699922561646
v 21.835189819335938 7.765005111694336 -22.312593460083008
vn -6.2635698318481445 -0.0004130000015720725 -0.4910939931869507
v 21.76010513305664 5.128767967224121 -20.674095153808594
vn -6.281582832336426 -0.016641000285744667 -0.13907399773597717
v 21.770870208740234 5.921763896942139 -21.349552154541016
vn -6.275350093841553 -0.0028490000404417515 -0.2693159878253937
v 21.78938102722168 4.976650238037109 -21.686817169189453
vn -6.270824909210205 -0.014813999645411968 -0.3574250042438507
v 21.750911712646484 9.163262367248535 -20.588232040405273
vn -6.281415939331055 -0.009212999604642391 -0.13530699908733368
v 21.75430679321289 8.364474296569824 -20.66604232788086
vn -6.281363010406494 -0.005667000077664852 -0.1443610042333603
v 21.80835723876953 8.556846618652344 -17.962800979614258
vn -6.268840789794922 -0.0032289999071508646 0.4092380106449127
v 21.780139923095703 7.693869113922119 -18.590572357177734
vn -6.276052951812744 -0.012853000313043594 0.2968269884586334
v 21.76485252380371 8.550189018249512 -18.871784210205078
vn -6.278151988983154 -0.018510999158024788 0.24378499388694763
v 21.761043548583984 3.4150969982147217 -20.571392059326172
vn -3.1409919261932373 -3.1456639766693115 -0.0612960010766983
v 21.780681610107422 3.4150969982147217 -21.58893585205078
vn -3.1353759765625 -3.0616190433502197 -0.16484400629997253
v 21.836183547973633 5.629694938659668 -22.274925231933594
vn -6.262633800506592 -0.006635999772697687 -0.5058140158653259
v 21.745403289794922 6.811759948730469 -20.023815155029297
vn -6.282576084136963 -0.007044000085443258 -0.032315000891685486
v 21.752172470092773 6.031198978424072 -20.344528198242188
vn -6.2824602127075195 -0.006616000086069107 -0.09021800011396408
v 21.747018814086914 6.071385860443115 -19.474212646484375
vn -6.280893802642822 -0.0011780000058934093 0.11332999914884567
v 21.742258071899414 5.378277778625488 -19.763870239257812
vn -6.281207084655762 -0.010577999986708164 0.027915000915527344
v 21.746047973632812 4.419147968292236 -19.882986068725586
vn -6.281842231750488 -0.00017499999376013875 0.0029720000457018614
v 21.762168884277344 5.214941024780273 -19.07630729675293
vn -6.278552055358887 -0.02163100056350231 0.2311220020055771
v 21.741405487060547 3.4150969982147217 -19.553848266601562
vn -3.1393980979919434 -3.0645740032196045 0.0474420003592968
v 21.805906295776367 4.171754837036133 -21.894987106323242
vn -6.267074108123779 0.004757000133395195 -0.43268999457359314
v 21.750980377197266 7.536143779754639 -20.410411834716797
vn -6.282310962677002 -0.004953000228852034 -0.09664899855852127
v 21.768863677978516 4.252486228942871 -21.01773452758789
vn -6.280509948730469 0.0014130000490695238 -0.1750659942626953
v 21.8277530670166 6.1673359870910645 -17.737789154052734
vn -6.265250205993652 -0.004730999935418367 0.4552440047264099
v 21.752094268798828 9.253775596618652 -19.11539077758789
vn -6.279281139373779 -0.008750000037252903 0.19414499402046204
v 21.772838592529297 4.339890956878662 -18.872230529785156
vn -6.277787208557129 -0.0008379999781027436 0.2541849911212921
v 21.790813446044922 3.4150969982147217 -18.537315368652344
vn -3.137885093688965 -3.1474180221557617 0.15246699750423431
v 21.817508697509766 4.293997764587402 -17.953968048095703
vn -6.269278049468994 0.0069670001976192 0.40413200855255127
v 21.74079132080078 8.519431114196777 -19.805225372314453
vn -6.282009124755859 -0.008813000284135342 0.02157999947667122
v 21.829233169555664 7.670441150665283 -17.689889907836914
vn -6.264195919036865 -0.019207000732421875 0.4718100130558014
v 21.7979736328125 5.286653995513916 -18.317134857177734
vn -6.273636817932129 -0.010285000316798687 0.34299400448799133
v 21.777572631835938 6.082903861999512 -18.70603370666504
vn -6.2762980461120605 -0.013141999952495098 0.29225099086761475
v 21.74515151977539 7.734321117401123 -19.482561111450195
vn -6.281012058258057 -0.007888000458478928 0.1070370003581047
v 21.754470825195312 6.920907974243164 -19.148927688598633
vn -6.2790069580078125 -0.008177000097930431 0.199072003364563
v 21.798250198364258 6.839017868041992 -18.264436721801758
vn -6.273046016693115 -0.008677000179886818 0.35363200306892395
v 21.840221405029297 3.4150969982147217 -17.52078628540039
vn -3.1289238929748535 -3.0588560104370117 0.25963500142097473
f 4//4 5//5 6//6
f 6//6 5//5 7//7
f 6//6 7//7 8//8
f 9//9 10//10 11//11
f 12//12 13//13 14//14
f 9//9 12//12 15//15
f 16//16 17//17 18//18
f 13//13 12//12 19//19
f 12//12 20//20 19//19
f 22//22 21//21 23//23
f 27//27 28//28 29//29
f 30//30 16//16 31//31
f 1//1 13//13 4//4
f 4//4 13//13 5//5
f 17//17 10//10 26//26
f 1//1 14//14 13//13
f 15//15 10//10 9//9
f 35//35 20//20 9//9
f 36//36 18//18 34//34
f 19//19 5//5 13//13
f 12//12 9//9 20//20
f 9//9 11//11 35//35
f 3//3 8//8 38//38
f 39//39 40//40 41//41
f 31//31 33//33 39//39
f 7//7 42//42 38//38
f 32//32 39//39 44//44
f 11//11 10//10 17//17
f 24//24 31//31 36//36
f 16//16 28//28 17//17
f 36//36 16//16 18//18
f 44//44 37//37 45//45
f 46//46 22//22 23//23
f 30//30 29//29 28//28
f 27//27 46//46 35//35
f 28//28 27//27 11//11
f 42//42 35//35 46//46
f 29//29 47//47 27//27
f 30//30 28//28 16//16
f 28//28 11//11 17//17
f 31//31 16//16 36//36
f 22//22 47//47 48//48
f 45//45 48//48 47//47
f 45//45 32//32 44//44
f 32//32 45//45 29//29
f 46//46 27//27 47//47
f 45//45 47//47 29//29
f 17//17 26//26 18//18
f 42//42 19//19 20//20
f 19//19 42//42 7//7
f 5//5 19//19 7//7
f 24//24 36//36 25//25
f 34//34 25//25 36//36
f 20//20 35//35 42//42
f 43//43 21//21 22//22
f 22//22 48//48 43//43
f 8//8 3//3 2//2
f 21//21 3//3 23//23
f 38//38 23//23 3//3
f 41//41 44//44 39//39
f 40//40 39//39 33//33
f 30//30 31//31 32//32
f 39//39 32//32 31//31
f 46//46 47//47 22//22
f 23//23 38//38 42//42
f 38//38 8//8 7//7
f 46//46 23//23 42//42
f 27//27 35//35 11//11
f 33//33 31//31 24//24
f 45//45 37//37 48//48
f 29//29 30//30 32//32
f 49//49 41//41 40//40
