v 53.77131652832031 3.4150969982147217 -49.90659713745117
vn 0.21192599833011627 -3.1425139904022217 -3.1344358921051025
v 53.34608459472656 4.3385748863220215 -49.93522262573242
vn 0.37082400918006897 -0.001322000054642558 -6.272037029266357
v 52.75592803955078 3.4150969982147217 -49.975608825683594
vn 0.1091729998588562 -3.0603229999542236 -3.137761116027832
v 49.354583740234375 10.2488431930542 -49.89545822143555
vn -0.5040889978408813 0.16028399765491486 -6.256420135498047
v 51.27899932861328 10.463799476623535 -49.98610305786133
vn 0.017698999494314194 1.0896610021591187 -6.069920063018799
v 50.260353088378906 10.412965774536133 -49.95280838012695
vn -0.16387300193309784 0.7642800211906433 -6.173677921295166
v 53.03298568725586 9.940404891967773 -49.96377944946289
vn 0.22227899730205536 0.4220539927482605 -6.242225170135498
v 51.73819351196289 3.4150969982147217 -49.975608825683594
vn 0.0 -3.146204948425293 -3.1415889263153076
v 51.72514343261719 4.568987846374512 -49.977294921875
vn 0.0004949999856762588 -0.008078999817371368 -6.283180236816406
v 52.42544937133789 4.25423002243042 -49.976844787597656
vn 0.11486499756574631 0.0019859999883919954 -6.280959129333496
v 54.08434295654297 6.18990421295166 -49.890499114990234
vn 0.46994200348854065 -0.003645000047981739 -6.265390872955322
v 51.60152816772461 7.321255207061768 -49.981483459472656
vn -0.008024999871850014 -0.020519999787211418 -6.283067226409912
v 51.666622161865234 6.564416885375977 -49.980262756347656
vn -0.008701000362634659 0.0031330001074820757 -6.283143997192383
v 50.72697067260742 7.032433032989502 -49.97368240356445
vn -0.23170800507068634 0.0001230000052601099 -6.27656888961792
v 50.88896942138672 6.018924236297607 -49.97945022583008
vn -0.17660699784755707 -0.007763999979943037 -6.278051853179932
v 50.011539459228516 6.241600036621094 -49.928619384765625
vn -0.39376598596572876 -0.004015999846160412 -6.270796775817871
v 49.98963928222656 9.582551002502441 -49.93501281738281
vn -0.3670549988746643 -0.010683000087738037 -6.272256851196289
v 53.87810134887695 10.47697925567627 -49.91297912597656
vn 0.32389700412750244 1.1002700328826904 -6.053712844848633
v 52.64278030395508 5.228215217590332 -49.97748947143555
vn 0.18713900446891785 -0.019600000232458115 -6.277774810791016
v 53.92634963989258 9.51236343383789 -49.90824890136719
vn 0.4706209897994995 -0.008767000399529934 -6.26499605178833
v 52.605506896972656 7.190238952636719 -49.97651672363281
vn 0.1709199994802475 0.006029000040143728 -6.279396057128906
v 52.42017364501953 6.129734992980957 -49.98109817504883
vn 0.09901800006628036 0.003102000104263425 -6.281277179718018
v 51.098121643066406 4.198520183563232 -49.97676467895508
vn -0.07484699785709381 0.005477000027894974 -6.282234191894531
v 50.720458984375 3.4150969982147217 -49.975608825683594
vn -0.1070680022239685 -3.0672950744628906 -3.1379470825195312
v 50.453453063964844 4.323491096496582 -49.957786560058594
vn -0.31750398874282837 0.013035999611020088 -6.274156093597412
v 51.02359390258789 5.061328887939453 -49.97771453857422
vn -0.12763400375843048 -0.010289999656379223 -6.280623912811279
v 49.799678802490234 4.491023063659668 -49.91341018676758
vn -0.42717400193214417 -0.0020210000220686197 -6.268647193908691
v 49.70507049560547 3.4150969982147217 -49.90659713745117
vn -0.2135159969329834 -3.1421499252319336 -3.1343278884887695
v 51.06322479248047 7.985311031341553 -49.982383728027344
vn -0.1366109997034073 0.0014690000098198652 -6.280094146728516
v 50.120933532714844 7.947567939758301 -49.9365348815918
vn -0.35982799530029297 -0.0192709993571043 -6.272765159606934
v 51.69622039794922 9.612837791442871 -49.98585891723633
vn -0.010817999951541424 -0.01980699971318245 -6.2829132080078125
v 50.8447151184082 9.630749702453613 -49.976253509521484
vn -0.18151600658893585 -0.011262999847531319 -6.279626846313477
v 49.57167053222656 8.718412399291992 -49.907386779785156
vn -0.436598002910614 -0.01766899973154068 -6.267569065093994
v 50.521915435791016 8.793340682983398 -49.963966369628906
vn -0.26204800605773926 -0.012411000207066536 -6.276608943939209
v 53.7056884765625 5.325480937957764 -49.91454315185547
vn 0.40643200278282166 -0.017712000757455826 -6.269957065582275
v 51.73042297363281 5.578890800476074 -49.97880172729492
vn -0.0016720000421628356 -0.012524000369012356 -6.2831711769104
v 53.140220642089844 6.24784517288208 -49.9544563293457
vn 0.33405399322509766 -0.003037000074982643 -6.2735981941223145
v 54.044525146484375 8.513688087463379 -49.89751052856445
vn 0.4869459867477417 -0.01236599963158369 -6.263783931732178
v 53.2607307434082 8.082245826721191 -49.948829650878906
vn 0.317782998085022 -0.00747800013050437 -6.27412223815918
v 53.20048141479492 8.996341705322266 -49.953304290771484
vn 0.3066909909248352 -0.02037700079381466 -6.274903774261475
v 52.47066879272461 9.036907196044922 -49.97861862182617
vn 0.13513000309467316 -0.028387999162077904 -6.280986785888672
v 52.096473693847656 8.184326171875 -49.983314514160156
vn 0.07669000327587128 -7.200000254670158e-05 -6.2820820808410645
v 51.520896911621094 8.872044563293457 -49.982765197753906
vn -0.03853999823331833 -0.0008909999742172658 -6.282837867736816
v 53.617469787597656 7.225461959838867 -49.924156188964844
vn 0.4011560082435608 -0.003877999959513545 -6.270126819610596
v 49.62326431274414 7.174407005310059 -49.90257263183594
vn -0.41886401176452637 -0.005332000087946653 -6.269153118133545
v 50.228233337402344 5.282586097717285 -49.94255065917969
vn -0.36481600999832153 -0.0027439999394118786 -6.27229118347168
v 52.31362533569336 10.165393829345703 -49.9843864440918
vn 0.23233599960803986 0.743228018283844 -6.178487777709961
f 8//8 9//9 10//10
f 12//12 13//13 14//14
f 15//15 14//14 13//13
f 6//6 17//17 4//4
f 10//10 19//19 2//2
f 21//21 22//22 13//13
f 23//23 24//24 25//25
f 23//23 26//26 9//9
f 28//28 27//27 25//25
f 29//29 14//14 30//30
f 16//16 14//14 15//15
f 5//5 31//31 32//32
f 32//32 34//34 17//17
f 36//36 9//9 26//26
f 19//19 37//37 35//35
f 38//38 39//39 40//40
f 9//9 19//19 10//10
f 19//19 9//9 36//36
f 21//21 42//42 39//39
f 25//25 24//24 28//28
f 43//43 29//29 34//34
f 34//34 30//30 33//33
f 11//11 35//35 37//37
f 8//8 10//10 3//3
f 43//43 42//42 29//29
f 29//29 12//12 14//14
f 26//26 15//15 36//36
f 13//13 36//36 15//15
f 14//14 16//16 45//45
f 34//34 33//33 17//17
f 3//3 2//2 1//1
f 2//2 3//3 10//10
f 35//35 2//2 19//19
f 40//40 7//7 20//20
f 18//18 20//20 7//7
f 40//40 20//20 38//38
f 44//44 37//37 21//21
f 47//47 31//31 5//5
f 12//12 42//42 21//21
f 42//42 12//12 29//29
f 12//12 21//21 13//13
f 13//13 22//22 36//36
f 19//19 36//36 22//22
f 25//25 26//26 23//23
f 24//24 23//23 8//8
f 9//9 8//8 23//23
f 7//7 41//41 47//47
f 22//22 21//21 37//37
f 42//42 41//41 40//40
f 45//45 30//30 14//14
f 27//27 46//46 25//25
f 26//26 25//25 46//46
f 30//30 34//34 29//29
f 46//46 15//15 26//26
f 15//15 46//46 16//16
f 43//43 32//32 31//31
f 5//5 32//32 6//6
f 17//17 6//6 32//32
f 43//43 41//41 42//42
f 37//37 19//19 22//22
f 41//41 7//7 40//40
f 44//44 11//11 37//37
f 21//21 39//39 44//44
f 43//43 31//31 41//41
f 32//32 43//43 34//34
f 42//42 40//40 39//39
f 47//47 41//41 31//31
