####
#
# OBJ File Generated by Meshlab
#
####
# Object 3.obj
#
# Vertices: 178
# Faces: 257
#
####
vn 6.279373 0.218804 -0.002676
v -28.375643 59.137815 -51.767304 1.000000 1.000000 1.000000
vn 6.279431 0.217149 -0.002569
v -28.336742 58.016191 -51.920682 1.000000 1.000000 1.000000
vn 3.139705 0.108892 -3.141592
v -28.357693 58.620277 -52.753578 1.000000 1.000000 1.000000
vn -6.279405 -0.217783 0.008128
v -22.557874 59.206705 -51.604220 1.000000 1.000000 1.000000
vn -3.139702 -0.108890 -3.137522
v -22.546017 58.821838 -52.753578 1.000000 1.000000 1.000000
vn -6.279405 -0.217778 0.008130
v -22.521364 58.144688 -51.851629 1.000000 1.000000 1.000000
vn -6.266539 -0.195999 -0.276255
v -22.563867 59.431456 -50.209811 1.000000 1.000000 1.000000
vn -2.937952 -0.057021 -0.982652
v -22.773449 60.314083 -48.802486 1.000000 1.000000 1.000000
vn -3.093767 0.083814 -0.371972
v -22.594109 60.320305 -49.758003 1.000000 1.000000 1.000000
vn 3.139651 0.110420 -0.001023
v -28.409657 60.118607 -51.253910 1.000000 1.000000 1.000000
vn 6.249977 0.394003 -0.333187
v -28.381411 59.331441 -50.537674 1.000000 1.000000 1.000000
vn 1.569852 0.054447 -1.570796
v -28.305727 57.121948 -52.753578 1.000000 1.000000 1.000000
vn 3.139777 0.106797 -0.001006
v -28.305727 57.121948 -51.253910 1.000000 1.000000 1.000000
vn 6.270411 0.147714 -0.243061
v -28.343466 58.246713 -50.808906 1.000000 1.000000 1.000000
vn 5.886870 0.383584 -1.925025
v -28.134571 58.943716 -48.936307 1.000000 1.000000 1.000000
vn 3.104570 -0.044483 -0.318445
v -28.305727 57.121948 -49.754242 1.000000 1.000000 1.000000
vn -6.277218 -0.238006 -0.081620
v -22.524104 58.269402 -50.626731 1.000000 1.000000 1.000000
vn -3.139702 -0.108892 0.004065
v -22.492115 57.323578 -51.255791 1.000000 1.000000 1.000000
vn 3.001064 0.417176 -0.654720
v -28.336697 60.121136 -49.106552 1.000000 1.000000 1.000000
vn 2.903932 -0.080814 -1.048913
v -28.125152 57.128210 -48.798958 1.000000 1.000000 1.000000
vn 2.705676 0.398811 -1.422071
v -28.121471 60.128601 -48.491364 1.000000 1.000000 1.000000
vn 2.128854 0.138756 -2.220550
v -27.544392 60.148617 -47.709183 1.000000 1.000000 1.000000
vn 4.200659 0.374724 -4.414017
v -27.381346 59.109631 -47.617793 1.000000 1.000000 1.000000
vn 3.050865 0.071659 -5.285075
v -26.809343 58.089417 -47.218162 1.000000 1.000000 1.000000
vn 5.185663 -0.126637 -3.492883
v -27.756151 58.345926 -48.221171 1.000000 1.000000 1.000000
vn 1.042872 0.052852 -2.882744
v -26.454830 60.186405 -47.024788 1.000000 1.000000 1.000000
vn 1.575672 0.082273 -5.958147
v -26.160444 59.098392 -46.962567 1.000000 1.000000 1.000000
vn -0.342586 -0.040442 -3.051545
v -25.176373 60.230743 -46.881432 1.000000 1.000000 1.000000
vn -1.136100 0.157473 -6.028769
v -25.003342 59.196184 -46.906357 1.000000 1.000000 1.000000
vn -3.101910 -0.119588 -5.348773
v -23.941346 58.969567 -47.316619 1.000000 1.000000 1.000000
vn -0.532740 -0.103658 -3.027013
v -24.748814 57.245312 -46.918144 1.000000 1.000000 1.000000
vn 0.004335 0.010600 -6.136946
v -25.439345 58.193733 -46.872170 1.000000 1.000000 1.000000
vn -1.570607 -0.031692 -2.655952
v -23.962439 60.272846 -47.307534 1.000000 1.000000 1.000000
vn -1.312514 -0.153974 -2.819929
v -24.134132 57.266628 -47.133904 1.000000 1.000000 1.000000
vn -2.060836 -0.054530 -2.304809
v -23.582882 57.285748 -47.481163 1.000000 1.000000 1.000000
vn -4.947573 -0.161393 -3.678198
v -23.138791 58.820950 -48.014809 1.000000 1.000000 1.000000
vn -2.401767 -0.051467 -1.932771
v -23.226648 60.298367 -47.942497 1.000000 1.000000 1.000000
vn -2.823147 -0.029893 -1.245835
v -22.721779 57.315613 -48.652481 1.000000 1.000000 1.000000
vn -6.022739 -0.266781 -1.391135
v -22.605396 58.718021 -49.183077 1.000000 1.000000 1.000000
vn -3.112469 -0.101397 -0.280522
v -22.490177 57.323647 -49.758003 1.000000 1.000000 1.000000
vn 0.000000 0.000000 -6.283185
v -17.319669 59.598533 -52.753578 1.000000 1.000000 1.000000
vn 0.000000 0.000000 -6.283185
v -18.232849 58.563394 -52.753578 1.000000 1.000000 1.000000
vn 0.000000 0.000000 -6.283185
v -18.820116 59.699388 -52.753578 1.000000 1.000000 1.000000
vn 0.000000 0.000000 -6.283185
v -12.095803 58.536088 -52.753578 1.000000 1.000000 1.000000
vn 0.000000 0.000000 -6.283185
v -14.171011 58.721911 -52.753578 1.000000 1.000000 1.000000
vn 0.000000 0.000000 -6.283185
v -12.665540 59.647197 -52.753578 1.000000 1.000000 1.000000
vn 1.569853 0.054444 -1.570795
v -28.409657 60.118607 -52.753578 1.000000 1.000000 1.000000
vn -1.569850 -0.054446 -1.568762
v -22.494051 57.323509 -52.753578 1.000000 1.000000 1.000000
vn 0.000000 0.000000 -6.283185
v -2.174963 59.191523 -52.753578 1.000000 1.000000 1.000000
vn 0.000000 0.000000 -6.283185
v -0.948024 60.011770 -52.753578 1.000000 1.000000 1.000000
vn 0.000000 0.000000 -6.283185
v -0.819225 58.743244 -52.753578 1.000000 1.000000 1.000000
vn 0.000000 0.000000 -6.283185
v -15.457636 58.851716 -52.753578 1.000000 1.000000 1.000000
vn 0.000000 0.000000 -6.283185
v -14.276686 59.923847 -52.753578 1.000000 1.000000 1.000000
vn 3.094802 0.371050 -0.261238
v -28.409657 60.118607 -49.754242 1.000000 1.000000 1.000000
vn -3.139703 -0.108898 0.004062
v -22.596046 60.320236 -51.255791 1.000000 1.000000 1.000000
vn 0.000000 0.000000 -6.283185
v -29.714059 59.134371 -52.753578 1.000000 1.000000 1.000000
vn 0.000000 0.000000 -3.141589
v -33.528702 58.440937 -52.753578 1.000000 1.000000 1.000000
vn 0.000000 0.000000 -6.283185
v -32.415737 58.791996 -52.753578 1.000000 1.000000 1.000000
vn 0.000000 0.000000 -6.283185
v -32.778792 57.823081 -52.753578 1.000000 1.000000 1.000000
vn 0.000000 0.000000 -1.562086
v -33.593719 59.938812 -52.753578 1.000000 1.000000 1.000000
vn 0.000000 0.000000 -6.283185
v -9.556974 58.873093 -52.753578 1.000000 1.000000 1.000000
vn 0.000000 0.000000 -6.283185
v -10.844793 58.664211 -52.753578 1.000000 1.000000 1.000000
vn 0.000000 0.000000 -6.283185
v -10.145916 59.764115 -52.753578 1.000000 1.000000 1.000000
vn 0.000000 0.000000 -6.283185
v 12.341483 59.308000 -52.753578 1.000000 1.000000 1.000000
vn 0.000000 0.000000 -6.283185
v 13.625367 59.897179 -52.753578 1.000000 1.000000 1.000000
vn 0.000000 0.000000 -3.141593
v 13.042799 58.556010 -52.753578 1.000000 1.000000 1.000000
vn 0.000000 0.000000 -6.283185
v -11.538278 59.541435 -52.753578 1.000000 1.000000 1.000000
vn -1.569852 -0.054448 -1.568764
v -22.597982 60.320168 -52.753578 1.000000 1.000000 1.000000
vn 0.000000 0.000000 -3.141595
v -0.057650 58.101657 -52.753578 1.000000 1.000000 1.000000
vn 0.000000 0.000000 -6.283185
v 0.355979 59.160020 -52.753578 1.000000 1.000000 1.000000
vn 0.000000 0.000000 -6.283185
v 12.667495 60.667979 -52.753578 1.000000 1.000000 1.000000
vn 0.000000 0.000000 -3.141890
v -1.412866 58.054653 -52.753578 1.000000 1.000000 1.000000
vn 0.000000 0.000000 -3.141592
v -29.272842 57.088406 -52.753578 1.000000 1.000000 1.000000
vn 0.000000 0.000000 -6.283185
v -29.189523 57.995212 -52.753578 1.000000 1.000000 1.000000
vn 0.000000 0.000000 -6.283185
v -30.456473 57.948079 -52.753578 1.000000 1.000000 1.000000
vn 0.000000 0.000000 -3.141589
v -19.019699 57.444008 -52.753578 1.000000 1.000000 1.000000
vn 0.000000 0.000000 -3.141593
v -20.177816 57.403843 -52.753578 1.000000 1.000000 1.000000
vn 0.000000 0.000000 -6.283185
v -19.420026 58.416716 -52.753578 1.000000 1.000000 1.000000
vn 0.000000 0.000000 -6.283185
v -21.486136 58.528835 -52.753578 1.000000 1.000000 1.000000
vn 0.000000 0.000000 -6.283185
v -20.511177 58.224825 -52.753578 1.000000 1.000000 1.000000
vn 0.000000 0.000000 -3.141596
v -21.335934 57.363678 -52.753578 1.000000 1.000000 1.000000
vn 0.000000 0.000000 -6.283185
v -20.231676 59.525654 -52.753578 1.000000 1.000000 1.000000
vn 0.000000 0.000000 -6.283185
v -21.473813 59.672620 -52.753578 1.000000 1.000000 1.000000
vn 0.000000 0.000000 -6.283185
v -8.881157 59.625606 -52.753578 1.000000 1.000000 1.000000
vn 0.000000 0.000000 -3.139437
v -3.716015 57.973408 -52.753578 1.000000 1.000000 1.000000
vn 0.000000 0.000000 -3.142657
v -4.998238 57.930305 -52.753578 1.000000 1.000000 1.000000
vn 0.000000 0.000000 -6.283185
v -4.822730 59.020733 -52.753578 1.000000 1.000000 1.000000
vn 0.000000 0.000000 -3.141593
v -19.586384 60.424618 -52.753578 1.000000 1.000000 1.000000
vn 0.000000 0.000000 -3.141592
v -10.551590 60.737965 -52.753578 1.000000 1.000000 1.000000
vn 0.000000 0.000000 -3.141597
v -9.346954 60.779743 -52.753578 1.000000 1.000000 1.000000
vn 0.000000 0.000000 -3.141595
v -0.914478 61.072201 -52.753578 1.000000 1.000000 1.000000
vn 0.000000 0.000000 -6.283185
v 0.322498 60.477692 -52.753578 1.000000 1.000000 1.000000
vn 0.000000 0.000000 -3.141595
v 3.904076 61.239319 -52.753578 1.000000 1.000000 1.000000
vn 0.000000 0.000000 -3.141590
v 5.108715 61.281101 -52.753578 1.000000 1.000000 1.000000
vn 0.000000 0.000000 -6.283185
v 4.302073 60.243241 -52.753578 1.000000 1.000000 1.000000
vn 0.000000 0.000000 -6.283185
v 1.635256 59.744165 -52.753578 1.000000 1.000000 1.000000
vn 0.000000 0.000000 -3.141589
v 8.722633 61.406441 -52.753578 1.000000 1.000000 1.000000
vn 0.000000 0.000000 -3.141593
v 10.379009 61.463886 -52.753578 1.000000 1.000000 1.000000
vn 0.000000 0.000000 -6.283185
v 8.785521 60.795976 -52.753578 1.000000 1.000000 1.000000
vn 0.000000 0.000000 -6.283185
v 10.034700 60.069391 -52.753578 1.000000 1.000000 1.000000
vn 0.000000 0.000000 -6.283185
v -4.408632 60.233339 -52.753578 1.000000 1.000000 1.000000
vn 0.000000 0.000000 -3.141592
v -3.323757 60.988644 -52.753578 1.000000 1.000000 1.000000
vn 0.000000 0.000000 -6.283185
v -3.570738 59.348754 -52.753578 1.000000 1.000000 1.000000
vn 0.000000 0.000000 -6.283185
v 2.661647 59.174741 -52.753578 1.000000 1.000000 1.000000
vn 0.000000 0.000000 -6.283185
v 3.668129 59.324529 -52.753578 1.000000 1.000000 1.000000
vn 0.000000 0.000000 -3.141593
v 2.803368 58.200882 -52.753578 1.000000 1.000000 1.000000
vn 0.000000 0.000000 -3.141596
v 5.212646 58.284443 -52.753578 1.000000 1.000000 1.000000
vn 0.000000 0.000000 -3.141590
v 4.008007 58.242661 -52.753578 1.000000 1.000000 1.000000
vn 0.000000 0.000000 -6.283185
v 5.052549 59.301437 -52.753578 1.000000 1.000000 1.000000
vn 0.000000 0.000000 -6.283185
v 5.329585 60.512494 -52.753578 1.000000 1.000000 1.000000
vn 0.000000 0.000000 -6.283185
v 6.345337 59.768276 -52.753578 1.000000 1.000000 1.000000
vn 0.000000 0.000000 -6.283185
v 7.562823 60.462826 -52.753578 1.000000 1.000000 1.000000
vn 0.000000 0.000000 -6.283185
v 7.486656 59.316214 -52.753578 1.000000 1.000000 1.000000
vn 0.000000 0.000000 -6.283185
v 8.773148 59.599777 -52.753578 1.000000 1.000000 1.000000
vn 0.000000 0.000000 -3.141593
v 10.031200 58.451561 -52.753578 1.000000 1.000000 1.000000
vn 0.000000 0.000000 -6.283185
v -8.479787 58.615467 -52.753578 1.000000 1.000000 1.000000
vn 0.000000 0.000000 -3.141593
v -9.754761 57.765339 -52.753578 1.000000 1.000000 1.000000
vn 0.000000 0.000000 -6.283185
v -7.465315 58.434404 -52.753578 1.000000 1.000000 1.000000
vn 0.000000 0.000000 -3.141592
v -8.017586 57.825588 -52.753578 1.000000 1.000000 1.000000
vn 0.982860 0.098449 -2.893300
v -26.350899 57.189747 -47.024788 1.000000 1.000000 1.000000
vn 0.000000 0.000000 -3.141590
v -15.545347 57.564507 -52.753578 1.000000 1.000000 1.000000
vn 0.000000 0.000000 -6.283185
v -16.815772 58.496521 -52.753578 1.000000 1.000000 1.000000
vn 0.000000 0.000000 -3.141588
v -12.960871 60.654408 -52.753578 1.000000 1.000000 1.000000
vn 0.000000 0.000000 -3.141596
v 8.675983 58.404560 -52.753578 1.000000 1.000000 1.000000
vn 0.000000 0.000000 -3.141593
v -30.723518 57.038094 -52.753578 1.000000 1.000000 1.000000
vn 0.000000 0.000000 -3.141594
v -32.174194 56.987782 -52.753578 1.000000 1.000000 1.000000
vn 0.000000 0.000000 -6.283185
v -31.780064 57.849519 -52.753578 1.000000 1.000000 1.000000
vn 0.000000 0.000000 -3.141592
v -31.892700 59.997807 -52.753578 1.000000 1.000000 1.000000
vn 0.000000 0.000000 -3.141594
v -30.799187 60.035732 -52.753578 1.000000 1.000000 1.000000
vn 0.000000 0.000000 -6.283185
v -31.172232 58.853509 -52.753578 1.000000 1.000000 1.000000
vn 0.000000 0.000000 -6.283185
v -6.295196 58.780695 -52.753578 1.000000 1.000000 1.000000
vn 0.000000 0.000000 -3.141594
v -6.280411 57.885838 -52.753578 1.000000 1.000000 1.000000
vn 0.000000 0.000000 -3.141595
v -18.231166 60.471619 -52.753578 1.000000 1.000000 1.000000
vn 0.000000 0.000000 -3.141591
v -16.574789 60.529068 -52.753578 1.000000 1.000000 1.000000
vn 0.000000 0.000000 -3.141588
v -8.142315 60.821526 -52.753578 1.000000 1.000000 1.000000
vn 0.000000 0.000000 -3.141594
v -6.937675 60.863304 -52.753578 1.000000 1.000000 1.000000
vn 0.000000 0.000000 -6.283185
v -6.650472 60.118595 -52.753578 1.000000 1.000000 1.000000
vn 0.000000 0.000000 -3.141592
v 1.494797 61.155762 -52.753578 1.000000 1.000000 1.000000
vn 0.000000 0.000000 -3.141593
v 2.699436 61.197540 -52.753578 1.000000 1.000000 1.000000
vn 0.000000 0.000000 -6.283185
v 2.728297 60.365582 -52.753578 1.000000 1.000000 1.000000
vn 0.000000 0.000000 -3.141595
v 11.734230 61.510887 -52.753578 1.000000 1.000000 1.000000
vn 0.000000 0.000000 -6.283185
v 11.454674 60.298291 -52.753578 1.000000 1.000000 1.000000
vn 0.000000 0.000000 -6.283185
v -7.590211 59.482443 -52.753578 1.000000 1.000000 1.000000
vn 0.000000 0.000000 -3.141593
v 14.699179 58.613457 -52.753578 1.000000 1.000000 1.000000
vn 0.000000 0.000000 -6.283185
v 14.925325 59.438527 -52.753578 1.000000 1.000000 1.000000
vn 0.000000 0.000000 -3.141591
v -13.229115 57.644840 -52.753578 1.000000 1.000000 1.000000
vn 0.000000 0.000000 -3.141596
v -17.861582 57.484177 -52.753578 1.000000 1.000000 1.000000
vn 0.000000 0.000000 -3.141593
v -16.703465 57.524342 -52.753578 1.000000 1.000000 1.000000
vn 0.000000 0.000000 -3.141592
v 6.313354 61.322880 -52.753578 1.000000 1.000000 1.000000
vn 0.000000 0.000000 -6.283185
v -5.545699 59.791616 -52.753578 1.000000 1.000000 1.000000
vn 0.000000 0.000000 -3.141593
v 1.598728 58.159103 -52.753578 1.000000 1.000000 1.000000
vn 0.000000 0.000000 -6.283185
v 11.138268 59.453648 -52.753578 1.000000 1.000000 1.000000
vn 0.000000 0.000000 -3.141591
v 11.386418 58.498562 -52.753578 1.000000 1.000000 1.000000
vn 0.000000 0.000000 -3.141595
v -14.387230 57.604675 -52.753578 1.000000 1.000000 1.000000
vn 0.000000 0.000000 -6.283185
v -16.014864 59.574247 -52.753578 1.000000 1.000000 1.000000
vn 0.000000 0.000000 -6.283185
v -2.374621 60.282026 -52.753578 1.000000 1.000000 1.000000
vn 0.000000 0.000000 -3.142384
v -2.861115 58.003991 -52.753578 1.000000 1.000000 1.000000
vn 0.000000 0.000000 -3.141592
v 6.417286 58.326221 -52.753578 1.000000 1.000000 1.000000
vn 0.000000 0.000000 -3.141591
v -20.941605 60.377617 -52.753578 1.000000 1.000000 1.000000
vn 0.000000 0.000000 -3.141595
v -5.733036 60.905083 -52.753578 1.000000 1.000000 1.000000
vn 0.000000 0.000000 -3.141590
v -4.528397 60.946865 -52.753578 1.000000 1.000000 1.000000
vn 0.000000 0.000000 -3.141593
v -2.119118 61.030422 -52.753578 1.000000 1.000000 1.000000
vn 0.000000 0.000000 -3.141590
v 0.290157 61.113983 -52.753578 1.000000 1.000000 1.000000
vn 0.000000 0.000000 -3.141597
v 7.517994 61.364658 -52.753578 1.000000 1.000000 1.000000
vn 0.000000 0.000000 -3.141590
v 7.320763 58.357555 -52.753578 1.000000 1.000000 1.000000
vn 0.000000 0.000000 -1.570797
v 16.054398 58.660458 -52.753578 1.000000 1.000000 1.000000
vn 0.000000 0.000000 -3.141590
v 16.002434 60.158787 -52.753578 1.000000 1.000000 1.000000
vn 0.000000 0.000000 -3.141593
v -11.491940 57.705090 -52.753578 1.000000 1.000000 1.000000
vn 2.337981 -0.109622 -1.934979
v -27.670837 57.143967 -47.939552 1.000000 1.000000 1.000000
vn 0.000000 0.000000 -1.579509
v -33.463680 56.943058 -52.753578 1.000000 1.000000 1.000000
vn 0.000000 0.000000 -3.141592
v -29.604422 60.077170 -52.753578 1.000000 1.000000 1.000000
vn 0.000000 0.000000 -3.141592
v -15.370148 60.570847 -52.753578 1.000000 1.000000 1.000000
vn 0.000000 0.000000 -3.141597
v -14.165508 60.612625 -52.753578 1.000000 1.000000 1.000000
vn 0.000000 0.000000 -3.141594
v -11.756229 60.696186 -52.753578 1.000000 1.000000 1.000000
vn 0.000000 0.000000 -3.141593
v 12.637711 61.542223 -52.753578 1.000000 1.000000 1.000000
vn 0.000000 0.000000 -3.141590
v 13.541191 61.573559 -52.753578 1.000000 1.000000 1.000000
vn 0.000000 0.000000 -3.141593
v 14.745827 61.615337 -52.753578 1.000000 1.000000 1.000000
vn 0.000000 0.000000 -1.570799
v 15.950466 61.657116 -52.753578 1.000000 1.000000 1.000000
# 178 vertices, 0 vertices normals

f 1//1 2//2 3//3
f 4//4 5//5 6//6
f 7//7 8//8 9//9
f 10//10 11//11 1//1
f 12//12 2//2 13//13
f 14//14 11//11 15//15
f 13//13 14//14 16//16
f 7//7 4//4 17//17
f 17//17 6//6 18//18
f 11//11 19//19 15//15
f 16//16 15//15 20//20
f 21//21 15//15 19//19
f 22//22 23//23 21//21
f 23//23 24//24 25//25
f 26//26 27//27 23//23
f 28//28 29//29 27//27
f 30//30 31//31 32//32
f 33//33 30//30 29//29
f 31//31 30//30 34//34
f 34//34 30//30 35//35
f 36//36 35//35 30//30
f 37//37 36//36 30//30
f 35//35 36//36 38//38
f 39//39 38//38 36//36
f 8//8 7//7 39//39
f 17//17 39//39 7//7
f 39//39 40//40 38//38
f 41//41 42//42 43//43
f 44//44 45//45 46//46
f 47//47 1//1 3//3
f 1//1 14//14 2//2
f 3//3 2//2 12//12
f 6//6 5//5 48//48
f 49//49 50//50 51//51
f 45//45 52//52 53//53
f 47//47 10//10 1//1
f 10//10 54//54 11//11
f 1//1 11//11 14//14
f 2//2 14//14 13//13
f 11//11 54//54 19//19
f 14//14 15//15 16//16
f 9//9 55//55 7//7
f 39//39 17//17 40//40
f 40//40 17//17 18//18
f 17//17 4//4 6//6
f 18//18 6//6 48//48
f 3//3 56//56 47//47
f 57//57 58//58 59//59
f 60//60 58//58 57//57
f 61//61 62//62 63//63
f 64//64 65//65 66//66
f 46//46 67//67 44//44
f 4//4 55//55 68//68
f 69//69 51//51 70//70
f 71//71 65//65 64//64
f 49//49 51//51 72//72
f 46//46 45//45 53//53
f 7//7 55//55 4//4
f 4//4 68//68 5//5
f 12//12 73//73 74//74
f 74//74 73//73 75//75
f 76//76 77//77 78//78
f 79//79 80//80 81//81
f 78//78 82//82 43//43
f 79//79 5//5 83//83
f 63//63 84//84 61//61
f 85//85 86//86 87//87
f 88//88 43//43 82//82
f 89//89 90//90 63//63
f 63//63 90//90 84//84
f 91//91 92//92 50//50
f 93//93 94//94 95//95
f 70//70 92//92 96//96
f 97//97 98//98 99//99
f 99//99 98//98 100//100
f 101//101 102//102 103//103
f 104//104 105//105 106//106
f 107//107 108//108 109//109
f 95//95 110//110 109//109
f 111//111 112//112 113//113
f 114//114 100//100 115//115
f 61//61 116//116 117//117
f 116//116 118//118 119//119
f 32//32 120//120 24//24
f 28//28 27//27 26//26
f 33//33 29//29 28//28
f 67//67 63//63 62//62
f 99//99 100//100 114//114
f 52//52 121//121 122//122
f 53//53 123//123 46//46
f 114//114 115//115 124//124
f 125//125 126//126 127//127
f 128//128 129//129 130//130
f 58//58 127//127 59//59
f 77//77 81//81 80//80
f 82//82 78//78 80//80
f 103//103 85//85 87//87
f 131//131 86//86 132//132
f 133//133 134//134 41//41
f 135//135 136//136 137//137
f 138//138 139//139 140//140
f 141//141 71//71 142//142
f 118//118 143//143 131//131
f 105//105 109//109 108//108
f 144//144 65//65 145//145
f 45//45 44//44 146//146
f 51//51 50//50 70//70
f 92//92 70//70 50//50
f 128//128 58//58 60//60
f 42//42 122//122 147//147
f 148//148 147//147 122//122
f 117//117 62//62 61//61
f 149//149 112//112 111//111
f 114//114 112//112 99//99
f 137//137 131//131 143//143
f 131//131 137//137 150//150
f 151//151 70//70 96//96
f 70//70 151//151 69//69
f 152//152 64//64 153//153
f 64//64 152//152 142//142
f 146//146 154//154 45//45
f 122//122 41//41 155//155
f 52//52 154//154 121//121
f 49//49 156//156 50//50
f 49//49 72//72 157//157
f 111//111 113//113 158//158
f 41//41 122//122 42//42
f 80//80 78//78 77//77
f 147//147 76//76 42//42
f 78//78 42//42 76//76
f 80//80 79//79 83//83
f 5//5 79//79 48//48
f 81//81 48//48 79//79
f 42//42 78//78 43//43
f 83//83 82//82 80//80
f 68//68 83//83 5//5
f 157//157 103//103 49//49
f 103//103 157//157 85//85
f 118//118 116//116 143//143
f 84//84 116//116 61//61
f 116//116 84//84 143//143
f 132//132 118//118 131//131
f 68//68 159//159 83//83
f 83//83 159//159 82//82
f 41//41 134//134 155//155
f 41//41 43//43 133//133
f 67//67 89//89 63//63
f 143//143 135//135 137//137
f 160//160 161//161 101//101
f 143//143 84//84 135//135
f 102//102 162//162 156//156
f 91//91 163//163 92//92
f 50//50 156//156 91//91
f 95//95 94//94 110//110
f 96//96 92//92 138//138
f 149//149 164//164 112//112
f 112//112 164//164 99//99
f 98//98 142//142 100//100
f 111//111 110//110 149//149
f 110//110 111//111 109//109
f 160//160 101//101 150//150
f 103//103 87//87 101//101
f 49//49 103//103 156//156
f 156//156 103//103 102//102
f 106//106 151//151 104//104
f 108//108 106//106 105//105
f 107//107 111//111 158//158
f 95//95 109//109 105//105
f 165//165 113//113 124//124
f 152//152 100//100 142//142
f 100//100 152//152 115//115
f 166//166 145//145 167//167
f 119//119 118//118 132//132
f 168//168 62//62 117//117
f 116//116 119//119 117//117
f 23//23 22//22 26//26
f 24//24 120//120 169//169
f 120//120 32//32 31//31
f 30//30 32//32 29//29
f 130//130 58//58 128//128
f 57//57 59//59 170//170
f 104//104 96//96 140//140
f 27//27 24//24 23//23
f 29//29 32//32 27//27
f 24//24 27//27 32//32
f 130//130 127//127 58//58
f 127//127 130//130 75//75
f 56//56 129//129 171//171
f 130//130 129//129 56//56
f 127//127 126//126 59//59
f 170//170 59//59 126//126
f 140//140 95//95 105//105
f 87//87 86//86 131//131
f 88//88 133//133 43//43
f 134//134 172//172 155//155
f 173//173 123//123 53//53
f 174//174 89//89 67//67
f 136//136 160//160 137//137
f 161//161 102//102 101//101
f 135//135 84//84 90//90
f 156//156 162//162 91//91
f 163//163 138//138 92//92
f 94//94 149//149 110//110
f 164//164 97//97 99//99
f 141//141 175//175 71//71
f 96//96 104//104 151//151
f 25//25 15//15 23//23
f 36//36 37//37 8//8
f 20//20 25//25 169//169
f 25//25 24//24 169//169
f 66//66 65//65 144//144
f 67//67 62//62 44//44
f 168//168 44//44 62//62
f 3//3 74//74 56//56
f 73//73 125//125 75//75
f 12//12 74//74 3//3
f 56//56 75//75 130//130
f 75//75 56//56 74//74
f 158//158 113//113 165//165
f 160//160 150//150 137//137
f 44//44 168//168 146//146
f 131//131 150//150 87//87
f 45//45 154//154 52//52
f 142//142 98//98 141//141
f 150//150 101//101 87//87
f 112//112 114//114 113//113
f 124//124 113//113 114//114
f 153//153 115//115 152//152
f 20//20 15//15 25//25
f 127//127 75//75 125//125
f 140//140 105//105 104//104
f 153//153 64//64 66//66
f 144//144 145//145 166//166
f 159//159 88//88 82//82
f 140//140 139//139 93//93
f 175//175 176//176 71//71
f 52//52 155//155 53//53
f 138//138 140//140 96//96
f 142//142 71//71 64//64
f 173//173 53//53 172//172
f 172//172 53//53 155//155
f 56//56 171//171 47//47
f 36//36 8//8 39//39
f 71//71 176//176 65//65
f 30//30 33//33 37//37
f 145//145 65//65 177//177
f 121//121 148//148 122//122
f 51//51 69//69 72//72
f 122//122 155//155 52//52
f 46//46 123//123 174//174
f 109//109 111//111 107//107
f 176//176 177//177 65//65
f 177//177 178//178 167//167
f 145//145 177//177 167//167
f 15//15 21//21 23//23
f 140//140 93//93 95//95
f 46//46 174//174 67//67
# 257 faces, 0 coords texture

# End of File
