####
#
# OBJ File Generated by Meshlab
#
####
# Object 4.obj
#
# Vertices: 102
# Faces: 144
#
####
vn -6.279410 -0.217790 -0.000001
v 21.800860 60.742177 -51.606359 1.000000 1.000000 1.000000
vn -3.139705 -0.108895 -3.141601
v 21.814106 60.360348 -52.753574 1.000000 1.000000 1.000000
vn -6.279410 -0.217786 -0.000002
v 21.837611 59.682595 -51.851592 1.000000 1.000000 1.000000
vn 2.649984 0.210500 -5.470686
v 17.639927 60.262174 -47.142322 1.000000 1.000000 1.000000
vn 0.697930 0.079474 -2.989644
v 18.205227 61.735317 -46.918140 1.000000 1.000000 1.000000
vn -0.416484 0.096477 -6.173371
v 19.193603 60.693294 -46.891458 1.000000 1.000000 1.000000
vn -4.813891 -0.134627 -3.817145
v 21.174315 60.487934 -47.947590 1.000000 1.000000 1.000000
vn -2.893646 -0.127375 -1.084227
v 21.581565 61.852415 -48.798954 1.000000 1.000000 1.000000
vn -5.877140 -0.176594 -1.914468
v 21.643185 59.922917 -48.850763 1.000000 1.000000 1.000000
vn -3.111429 -0.051383 -0.298019
v 21.762138 61.858677 -49.754238 1.000000 1.000000 1.000000
vn 6.278790 0.233021 -0.012374
v 15.989181 60.495482 -51.538423 1.000000 1.000000 1.000000
vn 6.279449 0.214965 -0.012860
v 16.021076 59.587456 -51.847572 1.000000 1.000000 1.000000
vn 3.139702 0.108895 0.004068
v 16.002434 60.158787 -52.753578 1.000000 1.000000 1.000000
vn -6.267106 -0.087535 -0.296624
v 21.794965 60.912203 -50.263840 1.000000 1.000000 1.000000
vn -6.269039 -0.258650 -0.214471
v 21.833856 59.790882 -50.621704 1.000000 1.000000 1.000000
vn -3.139705 -0.108889 0.000001
v 21.866070 58.862019 -51.253906 1.000000 1.000000 1.000000
vn 3.103937 0.204233 -0.290859
v 15.946590 61.656982 -49.758003 1.000000 1.000000 1.000000
vn 2.842988 0.070634 -1.155841
v 16.125935 61.663204 -48.802483 1.000000 1.000000 1.000000
vn 6.039166 0.160405 -1.521319
v 16.143285 60.154769 -49.112494 1.000000 1.000000 1.000000
vn 1.948317 0.132825 -2.331186
v 17.025301 58.694133 -47.599386 1.000000 1.000000 1.000000
vn 5.106687 0.069765 -3.416563
v 16.518446 59.623347 -48.164907 1.000000 1.000000 1.000000
vn 1.914041 -0.097145 -2.434725
v 17.199886 61.700449 -47.422863 1.000000 1.000000 1.000000
vn 4.832262 0.064305 -3.773996
v 16.624815 60.763241 -47.977100 1.000000 1.000000 1.000000
vn 0.950790 0.036845 -6.061244
v 18.519335 59.604397 -46.910146 1.000000 1.000000 1.000000
vn -0.351647 0.024247 -3.082863
v 19.176161 61.768992 -46.881008 1.000000 1.000000 1.000000
vn -1.353907 0.005661 -2.765218
v 20.114796 61.801544 -47.132267 1.000000 1.000000 1.000000
vn -3.468146 -0.099960 -5.204571
v 20.518848 60.098044 -47.393780 1.000000 1.000000 1.000000
vn -1.711333 -0.034138 -5.957283
v 19.789136 59.732238 -47.018160 1.000000 1.000000 1.000000
vn -2.188486 -0.040651 -2.147025
v 21.000805 58.832010 -47.709179 1.000000 1.000000 1.000000
vn -2.199907 -0.070413 -2.164083
v 20.896873 61.828668 -47.709179 1.000000 1.000000 1.000000
vn -3.097750 -0.251097 -0.300590
v 21.866070 58.862019 -49.754238 1.000000 1.000000 1.000000
vn -2.854997 -0.168509 -1.139287
v 21.685497 58.855756 -48.798954 1.000000 1.000000 1.000000
vn 3.139633 0.110820 0.002536
v 15.948528 61.657051 -51.255791 1.000000 1.000000 1.000000
vn 6.268531 0.314972 -0.183937
v 15.978451 60.811285 -50.559126 1.000000 1.000000 1.000000
vn 1.569850 0.054443 0.002033
v 16.054398 58.660458 -52.753578 1.000000 1.000000 1.000000
vn 3.140250 0.091369 -0.006169
v 16.052460 58.660393 -51.255791 1.000000 1.000000 1.000000
vn 6.270672 0.127265 -0.286987
v 16.023552 59.868291 -50.375406 1.000000 1.000000 1.000000
vn 3.110847 0.026246 -0.290142
v 16.050522 58.660324 -49.758003 1.000000 1.000000 1.000000
vn -1.569852 -0.054445 -1.570795
v 21.866070 58.862019 -52.753574 1.000000 1.000000 1.000000
vn 1.569853 0.054448 0.002034
v 15.950466 61.657116 -52.753578 1.000000 1.000000 1.000000
vn -3.139705 -0.108892 0.000002
v 21.762138 61.858677 -51.253906 1.000000 1.000000 1.000000
vn 0.000000 0.000000 -6.283185
v 38.758020 60.452075 -52.753574 1.000000 1.000000 1.000000
vn 0.000000 0.000000 -6.283185
v 37.627324 60.969046 -52.753574 1.000000 1.000000 1.000000
vn 0.000000 0.000000 -6.283185
v 38.768703 61.759044 -52.753574 1.000000 1.000000 1.000000
vn -1.569852 -0.054447 -1.570798
v 21.762138 61.858677 -52.753574 1.000000 1.000000 1.000000
vn 0.000000 0.000000 -3.141595
v 27.946007 59.072887 -52.753574 1.000000 1.000000 1.000000
vn 0.000000 0.000000 -3.141589
v 26.730019 59.030712 -52.753574 1.000000 1.000000 1.000000
vn 0.000000 0.000000 -6.283185
v 27.926415 59.801263 -52.753574 1.000000 1.000000 1.000000
vn 0.000000 0.000000 -6.283185
v 25.402194 61.182155 -52.753574 1.000000 1.000000 1.000000
vn 0.000000 0.000000 -6.283185
v 26.734633 60.686681 -52.753574 1.000000 1.000000 1.000000
vn 0.000000 0.000000 -6.283185
v 25.845244 59.955911 -52.753574 1.000000 1.000000 1.000000
vn 0.000000 0.000000 -6.283185
v 27.935018 61.094727 -52.753574 1.000000 1.000000 1.000000
vn 0.000000 0.000000 -6.283185
v 35.088575 60.059154 -52.753574 1.000000 1.000000 1.000000
vn 0.000000 0.000000 -6.283185
v 34.084825 60.827095 -52.753574 1.000000 1.000000 1.000000
vn 0.000000 0.000000 -6.283185
v 35.407770 61.350570 -52.753574 1.000000 1.000000 1.000000
vn 0.000000 0.000000 -3.141595
v 30.377983 59.157234 -52.753574 1.000000 1.000000 1.000000
vn 0.000000 0.000000 -3.141590
v 29.161995 59.115059 -52.753574 1.000000 1.000000 1.000000
vn 0.000000 0.000000 -6.283185
v 30.368670 60.043747 -52.753574 1.000000 1.000000 1.000000
vn 0.000000 0.000000 -6.283185
v 30.410598 61.069753 -52.753574 1.000000 1.000000 1.000000
vn 0.000000 0.000000 -6.283185
v 31.569095 60.647998 -52.753574 1.000000 1.000000 1.000000
vn 0.000000 0.000000 -6.283185
v 32.808612 60.037857 -52.753574 1.000000 1.000000 1.000000
vn 0.000000 0.000000 -6.283185
v 32.753190 61.310198 -52.753574 1.000000 1.000000 1.000000
vn 0.000000 0.000000 -3.141590
v 32.706032 62.238239 -52.753574 1.000000 1.000000 1.000000
vn 0.000000 0.000000 -3.141595
v 33.922020 62.280411 -52.753574 1.000000 1.000000 1.000000
vn 0.000000 0.000000 -3.141597
v 25.514030 58.988541 -52.753574 1.000000 1.000000 1.000000
vn 0.000000 0.000000 -6.283185
v 23.068938 59.793195 -52.753574 1.000000 1.000000 1.000000
vn 0.000000 0.000000 -6.283185
v 23.038606 60.923034 -52.753574 1.000000 1.000000 1.000000
vn 0.000000 0.000000 -6.283185
v 24.518710 60.208108 -52.753574 1.000000 1.000000 1.000000
vn 0.000000 0.000000 -3.141589
v 24.298042 58.946365 -52.753574 1.000000 1.000000 1.000000
vn 0.000000 0.000000 -3.141591
v 22.978134 61.900852 -52.753574 1.000000 1.000000 1.000000
vn 0.000000 0.000000 -6.283185
v 24.166522 61.323167 -52.753574 1.000000 1.000000 1.000000
vn 0.000000 0.000000 -3.141590
v 37.673912 59.410271 -52.753574 1.000000 1.000000 1.000000
vn 0.000000 0.000000 -3.141596
v 38.889900 59.452446 -52.753574 1.000000 1.000000 1.000000
vn 0.000000 0.000000 -3.141595
v 37.569984 62.406929 -52.753574 1.000000 1.000000 1.000000
vn 0.000000 0.000000 -6.283185
v 40.002880 61.424131 -52.753574 1.000000 1.000000 1.000000
vn 0.000000 0.000000 -3.141595
v 40.001953 62.491276 -52.753574 1.000000 1.000000 1.000000
vn 0.000000 0.000000 -3.141596
v 24.650116 61.958839 -52.753574 1.000000 1.000000 1.000000
vn 0.000000 0.000000 -6.283185
v 29.148862 60.680303 -52.753574 1.000000 1.000000 1.000000
vn 0.000000 0.000000 -3.141591
v 34.834007 62.312042 -52.753574 1.000000 1.000000 1.000000
vn 0.000000 0.000000 -3.141595
v 23.082069 58.904194 -52.753574 1.000000 1.000000 1.000000
vn 0.000000 0.000000 -3.141595
v 36.457924 59.368099 -52.753574 1.000000 1.000000 1.000000
vn 0.000000 0.000000 -6.283185
v 36.501400 60.316556 -52.753574 1.000000 1.000000 1.000000
vn 0.000000 0.000000 -6.283185
v 40.044405 60.165750 -52.753574 1.000000 1.000000 1.000000
vn 0.000000 0.000000 -3.141591
v 28.868068 62.105130 -52.753574 1.000000 1.000000 1.000000
vn 0.000000 0.000000 -3.141598
v 41.269905 61.035122 -52.753574 1.000000 1.000000 1.000000
vn 0.000000 0.000000 -3.141590
v 38.785973 62.449104 -52.753574 1.000000 1.000000 1.000000
vn 0.000000 0.000000 -3.141589
v 26.018097 62.006287 -52.753574 1.000000 1.000000 1.000000
vn 0.000000 0.000000 -6.283185
v 36.470249 61.395185 -52.753574 1.000000 1.000000 1.000000
vn 0.000000 0.000000 -3.141592
v 36.201996 62.359486 -52.753574 1.000000 1.000000 1.000000
vn 0.000000 0.000000 -3.141590
v 31.593971 59.199406 -52.753574 1.000000 1.000000 1.000000
vn 0.000000 0.000000 -3.141595
v 31.490044 62.196064 -52.753574 1.000000 1.000000 1.000000
vn 0.000000 0.000000 -3.141596
v 32.809959 59.241581 -52.753574 1.000000 1.000000 1.000000
vn 0.000000 0.000000 -3.141592
v 34.025948 59.283752 -52.753574 1.000000 1.000000 1.000000
vn 0.000000 0.000000 -3.141589
v 40.105888 59.494617 -52.753574 1.000000 1.000000 1.000000
vn 0.000000 0.000000 -1.570794
v 41.321877 59.536793 -52.753574 1.000000 1.000000 1.000000
vn 0.000000 0.000000 -3.141592
v 29.894058 62.140713 -52.753574 1.000000 1.000000 1.000000
vn 0.000000 0.000000 -3.141595
v 27.386081 62.053730 -52.753574 1.000000 1.000000 1.000000
vn 0.000000 0.000000 -1.570794
v 41.217941 62.533451 -52.753574 1.000000 1.000000 1.000000
vn 0.000000 0.000000 -3.141590
v 35.241936 59.325924 -52.753574 1.000000 1.000000 1.000000
vn 2.889195 0.112637 -1.083199
v 16.229868 58.666544 -48.802484 1.000000 1.000000 1.000000
vn 0.443468 -0.014712 -2.996783
v 18.632787 58.749883 -46.881428 1.000000 1.000000 1.000000
vn -0.987962 -0.033436 -2.902538
v 19.911247 58.794222 -47.024784 1.000000 1.000000 1.000000
# 102 vertices, 0 vertices normals

f 1//1 2//2 3//3
f 4//4 5//5 6//6
f 7//7 8//8 9//9
f 9//9 8//8 10//10
f 11//11 12//12 13//13
f 14//14 1//1 15//15
f 15//15 3//3 16//16
f 17//17 18//18 19//19
f 4//4 20//20 21//21
f 22//22 4//4 23//23
f 5//5 4//4 22//22
f 20//20 4//4 24//24
f 25//25 6//6 5//5
f 26//26 27//27 28//28
f 26//26 7//7 27//27
f 7//7 29//29 27//27
f 8//8 7//7 30//30
f 10//10 14//14 9//9
f 15//15 9//9 14//14
f 9//9 31//31 32//32
f 33//33 34//34 11//11
f 35//35 12//12 36//36
f 36//36 37//37 38//38
f 3//3 2//2 39//39
f 40//40 11//11 13//13
f 13//13 12//12 35//35
f 10//10 41//41 14//14
f 9//9 15//15 31//31
f 31//31 15//15 16//16
f 15//15 1//1 3//3
f 16//16 3//3 39//39
f 40//40 33//33 11//11
f 33//33 17//17 34//34
f 12//12 11//11 37//37
f 12//12 37//37 36//36
f 34//34 17//17 19//19
f 42//42 43//43 44//44
f 1//1 41//41 45//45
f 46//46 47//47 48//48
f 49//49 50//50 51//51
f 52//52 48//48 50//50
f 53//53 54//54 55//55
f 56//56 57//57 58//58
f 59//59 60//60 58//58
f 61//61 60//60 62//62
f 63//63 64//64 62//62
f 14//14 41//41 1//1
f 1//1 45//45 2//2
f 47//47 65//65 51//51
f 66//66 67//67 68//68
f 66//66 68//68 69//69
f 70//70 71//71 67//67
f 72//72 42//42 73//73
f 74//74 44//44 43//43
f 75//75 44//44 76//76
f 71//71 70//70 77//77
f 57//57 48//48 78//78
f 64//64 79//79 54//54
f 69//69 80//80 66//66
f 71//71 49//49 68//68
f 81//81 53//53 82//82
f 42//42 72//72 43//43
f 83//83 42//42 75//75
f 78//78 52//52 84//84
f 85//85 83//83 75//75
f 75//75 42//42 44//44
f 86//86 76//76 44//44
f 48//48 57//57 46//46
f 68//68 49//49 51//51
f 51//51 50//50 47//47
f 52//52 78//78 48//48
f 50//50 48//48 47//47
f 82//82 53//53 55//55
f 50//50 49//49 87//87
f 77//77 49//49 71//71
f 88//88 55//55 89//89
f 90//90 58//58 60//60
f 58//58 90//90 56//56
f 78//78 58//58 57//57
f 58//58 78//78 59//59
f 54//54 62//62 64//64
f 62//62 54//54 61//61
f 91//91 62//62 60//60
f 62//62 91//91 63//63
f 65//65 68//68 51//51
f 68//68 65//65 69//69
f 66//66 2//2 67//67
f 68//68 67//67 71//71
f 2//2 66//66 39//39
f 80//80 39//39 66//66
f 45//45 67//67 2//2
f 67//67 45//45 70//70
f 90//90 61//61 92//92
f 93//93 54//54 53//53
f 81//81 82//82 72//72
f 43//43 72//72 82//82
f 73//73 42//42 83//83
f 73//73 83//83 94//94
f 93//93 61//61 54//54
f 61//61 90//90 60//60
f 95//95 83//83 85//85
f 88//88 43//43 82//82
f 43//43 88//88 74//74
f 60//60 59//59 91//91
f 96//96 59//59 78//78
f 87//87 97//97 50//50
f 52//52 50//50 97//97
f 85//85 75//75 98//98
f 76//76 98//98 75//75
f 44//44 74//74 86//86
f 49//49 77//77 87//87
f 92//92 61//61 93//93
f 99//99 53//53 81//81
f 94//94 83//83 95//95
f 96//96 91//91 59//59
f 89//89 74//74 88//88
f 22//22 23//23 18//18
f 55//55 54//54 79//79
f 78//78 84//84 96//96
f 82//82 55//55 88//88
f 55//55 79//79 89//89
f 97//97 84//84 52//52
f 23//23 21//21 19//19
f 100//100 21//21 20//20
f 4//4 21//21 23//23
f 101//101 24//24 28//28
f 26//26 6//6 25//25
f 30//30 7//7 26//26
f 37//37 34//34 19//19
f 21//21 100//100 19//19
f 93//93 53//53 99//99
f 23//23 19//19 18//18
f 20//20 24//24 101//101
f 6//6 24//24 4//4
f 101//101 28//28 102//102
f 102//102 27//27 29//29
f 27//27 102//102 28//28
f 9//9 32//32 29//29
f 11//11 34//34 37//37
f 24//24 6//6 28//28
f 26//26 28//28 6//6
f 9//9 29//29 7//7
f 100//100 38//38 19//19
f 37//37 19//19 38//38
# 144 faces, 0 coords texture

# End of File
