####
#
# OBJ File Generated by Meshlab
#
####
# Object 3.obj
#
# Vertices: 164
# Faces: 248
#
####
vn 0.000003 6.283184 0.004690
v -33.800180 4.396407 -6.521049 1.000000 1.000000 1.000000
vn 0.000001 6.283184 0.004683
v -33.986616 4.395977 -5.942838 1.000000 1.000000 1.000000
vn -0.000003 6.283184 0.004687
v -33.436107 4.396164 -6.195298 1.000000 1.000000 1.000000
vn -0.000010 6.283184 0.004687
v -32.314998 4.395167 -4.858594 1.000000 1.000000 1.000000
vn -0.000004 6.283184 0.004690
v -32.862747 4.394967 -4.591083 1.000000 1.000000 1.000000
vn -0.000008 6.283184 0.004689
v -32.392199 4.394869 -4.458250 1.000000 1.000000 1.000000
vn -0.000004 6.283184 0.004688
v -36.867419 4.396097 -6.106007 1.000000 1.000000 1.000000
vn 0.000000 6.283184 0.004685
v -37.299373 4.396277 -6.349072 1.000000 1.000000 1.000000
vn -0.000001 6.283184 0.004694
v -37.140278 4.395840 -5.762918 1.000000 1.000000 1.000000
vn 0.000000 6.283184 0.004691
v -34.966009 4.396337 -6.426260 1.000000 1.000000 1.000000
vn -0.000003 6.283184 0.004689
v -35.315211 4.396695 -6.905694 1.000000 1.000000 1.000000
vn -0.000012 6.283184 0.004693
v -35.545586 4.396299 -6.376269 1.000000 1.000000 1.000000
vn -0.000001 6.283184 0.004693
v -32.608095 4.395478 -5.275472 1.000000 1.000000 1.000000
vn -0.000003 6.283184 0.004690
v -33.135055 4.395598 -5.435678 1.000000 1.000000 1.000000
vn 0.000001 6.283184 0.004693
v -32.927710 4.395234 -4.948375 1.000000 1.000000 1.000000
vn -0.000001 6.283184 0.004688
v -33.653284 4.392325 -1.052771 1.000000 1.000000 1.000000
vn -0.000002 3.019828 0.002252
v -33.278530 4.392025 -0.649919 1.000000 1.000000 1.000000
vn -0.000003 6.283184 0.004692
v -33.173900 4.392458 -1.230167 1.000000 1.000000 1.000000
vn 0.000001 6.283184 0.004688
v -34.171931 4.392519 -1.312950 1.000000 1.000000 1.000000
vn -0.000001 6.283184 0.004695
v -33.660998 4.392744 -1.612912 1.000000 1.000000 1.000000
vn -0.000003 2.995478 0.002237
v -32.492914 4.392591 -1.407348 1.000000 1.000000 1.000000
vn -0.000009 6.283184 0.004690
v -32.683514 4.392895 -1.814827 1.000000 1.000000 1.000000
vn -0.000003 6.283184 0.004690
v -33.112056 4.392705 -1.561204 1.000000 1.000000 1.000000
vn -0.000001 2.995471 0.002235
v -32.191042 4.392932 -1.863626 1.000000 1.000000 1.000000
vn -0.000005 6.283184 0.004689
v -32.501016 4.393217 -2.245757 1.000000 1.000000 1.000000
vn 0.000001 3.019825 0.002255
v -31.958821 4.393301 -2.358996 1.000000 1.000000 1.000000
vn -0.000007 6.283184 0.004692
v -32.394477 4.393569 -2.717434 1.000000 1.000000 1.000000
vn -0.000006 6.283184 0.004689
v -32.975905 4.393486 -2.607386 1.000000 1.000000 1.000000
vn -0.000007 6.283184 0.004694
v -32.826955 4.393878 -3.133002 1.000000 1.000000 1.000000
vn -0.000009 6.283184 0.004693
v -32.269377 4.393896 -3.154508 1.000000 1.000000 1.000000
vn -0.000006 6.283184 0.004691
v -32.658056 4.394212 -3.579179 1.000000 1.000000 1.000000
vn -0.000011 6.283184 0.004693
v -35.728867 4.396681 -6.887694 1.000000 1.000000 1.000000
vn -0.000010 6.283184 0.004695
v -35.926096 4.396339 -6.431099 1.000000 1.000000 1.000000
vn -0.000008 6.283184 0.004693
v -36.038944 4.396682 -6.889820 1.000000 1.000000 1.000000
vn -0.000007 6.283184 0.004693
v -36.378055 4.396632 -6.823103 1.000000 1.000000 1.000000
vn 0.000005 6.283184 0.004689
v -37.705622 4.396037 -6.026034 1.000000 1.000000 1.000000
vn -0.000005 6.283184 0.004695
v -38.429509 4.395507 -5.316953 1.000000 1.000000 1.000000
vn -0.000002 3.019832 0.002256
v -38.794075 4.395578 -5.412380 1.000000 1.000000 1.000000
vn -0.000003 3.044163 0.002271
v -38.959267 4.395297 -5.036442 1.000000 1.000000 1.000000
vn 0.000002 6.283184 0.004699
v -37.905709 4.395291 -5.027806 1.000000 1.000000 1.000000
vn 0.000003 6.283184 0.004695
v -38.460830 4.395111 -4.786428 1.000000 1.000000 1.000000
vn -0.000005 6.283184 0.004696
v -37.971811 4.394922 -4.535378 1.000000 1.000000 1.000000
vn 0.000007 6.283184 0.004689
v -38.205306 4.394018 -3.323167 1.000000 1.000000 1.000000
vn -0.000002 3.363318 0.002511
v -37.705952 4.394258 -3.645034 1.000000 1.000000 1.000000
vn 0.000002 6.283184 0.004688
v -38.181867 4.394394 -3.828197 1.000000 1.000000 1.000000
vn -0.000005 6.283184 0.004697
v -38.789343 4.393951 -3.232296 1.000000 1.000000 1.000000
vn -0.000005 3.044181 0.002273
v -39.146664 4.393789 -3.016585 1.000000 1.000000 1.000000
vn 0.000002 6.283184 0.004689
v -38.630715 4.393723 -2.927906 1.000000 1.000000 1.000000
vn 0.000004 6.283184 0.004692
v -38.030170 4.393645 -2.823781 1.000000 1.000000 1.000000
vn 0.000005 6.283184 0.004690
v -38.512792 4.393407 -2.503196 1.000000 1.000000 1.000000
vn 0.000007 6.283184 0.004692
v -38.023255 4.393307 -2.372283 1.000000 1.000000 1.000000
vn 0.000004 6.283184 0.004695
v -38.440397 4.393118 -2.116649 1.000000 1.000000 1.000000
vn 0.000003 6.283184 0.004682
v -38.120793 4.392925 -1.858827 1.000000 1.000000 1.000000
vn -0.000008 6.283184 0.004687
v -37.675202 4.393194 -2.220250 1.000000 1.000000 1.000000
vn -0.000003 6.283184 0.004682
v -37.584720 4.392885 -1.805216 1.000000 1.000000 1.000000
vn 0.000004 6.283184 0.004688
v -37.546492 4.392492 -1.277551 1.000000 1.000000 1.000000
vn -0.000002 3.019822 0.002254
v -38.060085 4.392284 -0.999886 1.000000 1.000000 1.000000
vn 0.000002 2.987366 0.002230
v -37.750946 4.392083 -0.729611 1.000000 1.000000 1.000000
vn -0.000006 6.283184 0.004690
v -37.214372 4.392828 -1.728742 1.000000 1.000000 1.000000
vn -0.000010 6.283184 0.004690
v -35.847299 4.392195 -0.880007 1.000000 1.000000 1.000000
vn -0.000004 3.389001 0.002529
v -35.826141 4.392643 -1.479757 1.000000 1.000000 1.000000
vn 0.000001 6.283184 0.004689
v -36.285611 4.392376 -1.122627 1.000000 1.000000 1.000000
vn -0.000004 6.283184 0.004688
v -35.897565 4.391809 -0.362743 1.000000 1.000000 1.000000
vn -0.000001 3.019837 0.002255
v -35.732777 4.391507 0.042273 1.000000 1.000000 1.000000
vn -0.000006 6.283184 0.004694
v -35.535057 4.391884 -0.461921 1.000000 1.000000 1.000000
vn -0.000005 6.283184 0.004688
v -35.410759 4.392303 -1.022612 1.000000 1.000000 1.000000
vn -0.000004 2.979256 0.002223
v -34.778362 4.391549 -0.012561 1.000000 1.000000 1.000000
vn -0.000005 6.283184 0.004696
v -34.483867 4.391902 -0.485619 1.000000 1.000000 1.000000
vn -0.000004 6.283184 0.004694
v -35.031726 4.391956 -0.558911 1.000000 1.000000 1.000000
vn -0.000007 6.283184 0.004689
v -35.006592 4.392372 -1.115722 1.000000 1.000000 1.000000
vn -0.000000 3.044195 0.002274
v -31.771423 4.393793 -3.016580 1.000000 1.000000 1.000000
vn -0.000005 6.283184 0.004687
v -32.071202 4.394173 -3.525762 1.000000 1.000000 1.000000
vn -0.000003 6.283184 0.004690
v -32.793860 4.394589 -4.084553 1.000000 1.000000 1.000000
vn 0.000000 3.306757 0.002468
v -33.209663 4.394340 -3.750464 1.000000 1.000000 1.000000
vn -0.000009 6.283184 0.004692
v -32.235116 4.394539 -4.017264 1.000000 1.000000 1.000000
vn 0.000001 3.339540 0.002491
v -34.835037 4.395912 -5.856885 1.000000 1.000000 1.000000
vn -0.000001 6.283184 0.004687
v -34.389485 4.396236 -6.291765 1.000000 1.000000 1.000000
vn -0.000000 6.283184 0.004689
v -36.381720 4.396245 -6.305657 1.000000 1.000000 1.000000
vn -0.000004 6.283184 0.004690
v -36.898308 4.396548 -6.712090 1.000000 1.000000 1.000000
vn 0.000002 3.044166 0.002275
v -37.411263 4.396686 -6.896559 1.000000 1.000000 1.000000
vn 0.000004 3.019832 0.002253
v -37.750942 4.396514 -6.665832 1.000000 1.000000 1.000000
vn 0.000006 6.283184 0.004688
v -38.704224 4.394537 -4.018305 1.000000 1.000000 1.000000
vn 0.000003 6.283184 0.004686
v -38.713739 4.394219 -3.591037 1.000000 1.000000 1.000000
vn -0.000007 6.283184 0.004693
v -36.701981 4.392088 -0.735868 1.000000 1.000000 1.000000
vn -0.000000 6.283184 0.004691
v -36.253267 4.391938 -0.535131 1.000000 1.000000 1.000000
vn -0.000001 3.019818 0.002257
v -35.322182 4.391503 0.047276 1.000000 1.000000 1.000000
vn -0.000002 3.019820 0.002253
v -36.139729 4.391548 -0.012562 1.000000 1.000000 1.000000
vn -0.000005 2.979252 0.002229
v -36.669041 4.391650 -0.150942 1.000000 1.000000 1.000000
vn -0.000002 2.995445 0.002239
v -37.231010 4.391836 -0.400589 1.000000 1.000000 1.000000
vn -0.000001 6.283184 0.004687
v -37.904789 4.392576 -1.390863 1.000000 1.000000 1.000000
vn -0.000001 6.283184 0.004693
v -37.195235 4.392304 -1.027259 1.000000 1.000000 1.000000
vn 0.000001 3.019825 0.002250
v -38.425175 4.392589 -1.407351 1.000000 1.000000 1.000000
vn -0.000006 3.019814 0.002259
v -38.852211 4.393110 -2.107072 1.000000 1.000000 1.000000
vn -0.000004 3.019830 0.002254
v -38.660019 4.392839 -1.744196 1.000000 1.000000 1.000000
vn -0.000005 3.339541 0.002496
v -37.439629 4.393505 -2.635342 1.000000 1.000000 1.000000
vn -0.000003 3.019825 0.002253
v -39.047649 4.393492 -2.618072 1.000000 1.000000 1.000000
vn -0.000008 3.044190 0.002274
v -39.186546 4.393991 -3.287581 1.000000 1.000000 1.000000
vn -0.000003 3.019806 0.002255
v -39.206543 4.394298 -3.697723 1.000000 1.000000 1.000000
vn -0.000002 3.019837 0.002254
v -39.087105 4.395006 -4.646222 1.000000 1.000000 1.000000
vn -0.000000 6.283184 0.004694
v -38.032446 4.395721 -5.602424 1.000000 1.000000 1.000000
vn -0.000003 3.044175 0.002273
v -38.584446 4.395842 -5.765469 1.000000 1.000000 1.000000
vn -0.000001 3.329147 0.002488
v -37.138649 4.395413 -5.191138 1.000000 1.000000 1.000000
vn 0.000004 6.283184 0.004696
v -37.524938 4.395576 -5.409571 1.000000 1.000000 1.000000
vn 0.000002 3.329158 0.002486
v -37.387657 4.395159 -4.851769 1.000000 1.000000 1.000000
vn -0.000003 3.019826 0.002253
v -38.341469 4.396089 -6.096494 1.000000 1.000000 1.000000
vn 0.000001 3.339539 0.002497
v -36.830730 4.395627 -5.478126 1.000000 1.000000 1.000000
vn 0.000001 3.019839 0.002258
v -37.050751 4.396833 -7.093151 1.000000 1.000000 1.000000
vn -0.000003 3.044166 0.002273
v -36.669033 4.396946 -7.244502 1.000000 1.000000 1.000000
vn -0.000005 3.397470 0.002536
v -35.878113 4.395947 -5.905830 1.000000 1.000000 1.000000
vn 0.000001 3.378377 0.002523
v -36.427864 4.395813 -5.726392 1.000000 1.000000 1.000000
vn -0.000004 3.019834 0.002253
v -36.274403 4.397031 -7.358005 1.000000 1.000000 1.000000
vn -0.000004 3.044166 0.002271
v -35.868908 4.397080 -7.422737 1.000000 1.000000 1.000000
vn -0.000004 3.378376 0.002522
v -35.300850 4.395974 -5.940286 1.000000 1.000000 1.000000
vn -0.000001 6.283184 0.004689
v -34.940387 4.396709 -6.924621 1.000000 1.000000 1.000000
vn -0.000002 3.044166 0.002268
v -35.049171 4.397080 -7.422736 1.000000 1.000000 1.000000
vn -0.000003 3.019837 0.002255
v -34.643677 4.397033 -7.358003 1.000000 1.000000 1.000000
vn -0.000004 3.363312 0.002508
v -34.443382 4.395797 -5.702667 1.000000 1.000000 1.000000
vn -0.000004 2.995476 0.002237
v -33.278526 4.396575 -6.745519 1.000000 1.000000 1.000000
vn 0.000002 2.995465 0.002239
v -33.745524 4.396788 -7.030527 1.000000 1.000000 1.000000
vn 0.000004 3.378378 0.002521
v -33.965065 4.395555 -5.377650 1.000000 1.000000 1.000000
vn -0.000004 3.019820 0.002257
v -32.857998 4.396315 -6.395553 1.000000 1.000000 1.000000
vn -0.000008 6.283184 0.004688
v -33.097399 4.395967 -5.930560 1.000000 1.000000 1.000000
vn 0.000001 3.019829 0.002254
v -32.576614 4.396091 -6.096491 1.000000 1.000000 1.000000
vn 0.000005 6.283184 0.004687
v -33.574186 4.395751 -5.641490 1.000000 1.000000 1.000000
vn 0.000001 3.044178 0.002272
v -32.333637 4.395844 -5.765464 1.000000 1.000000 1.000000
vn 0.000001 6.283184 0.004689
v -32.741744 4.395797 -5.701722 1.000000 1.000000 1.000000
vn -0.000000 3.363306 0.002513
v -33.430836 4.395023 -4.666096 1.000000 1.000000 1.000000
vn 0.000001 3.339540 0.002493
v -33.646969 4.395293 -5.027294 1.000000 1.000000 1.000000
vn -0.000006 3.019829 0.002254
v -32.124008 4.395581 -5.412375 1.000000 1.000000 1.000000
vn -0.000010 3.019819 0.002255
v -31.958818 4.395301 -5.036438 1.000000 1.000000 1.000000
vn -0.000006 2.995474 0.002237
v -31.801201 4.394910 -4.512537 1.000000 1.000000 1.000000
vn -0.000006 2.995471 0.002236
v -31.721542 4.394506 -3.971266 1.000000 1.000000 1.000000
vn -0.000001 3.044168 0.002277
v -31.830978 4.393593 -2.749218 1.000000 1.000000 1.000000
vn -0.000006 6.283184 0.004687
v -33.021395 4.393160 -2.171010 1.000000 1.000000 1.000000
vn 0.000002 3.383905 0.002524
v -33.615681 4.393339 -2.410805 1.000000 1.000000 1.000000
vn 0.000001 3.389003 0.002530
v -33.330853 4.393759 -2.973192 1.000000 1.000000 1.000000
vn 0.000003 6.283184 0.004687
v -33.378037 4.393010 -1.969806 1.000000 1.000000 1.000000
vn -0.000001 2.995463 0.002238
v -32.858002 4.392286 -0.999882 1.000000 1.000000 1.000000
vn 0.000002 6.283184 0.004688
v -34.130539 4.392113 -0.767095 1.000000 1.000000 1.000000
vn 0.000001 2.987363 0.002229
v -33.623726 4.391859 -0.427535 1.000000 1.000000 1.000000
vn -0.000001 2.995442 0.002239
v -34.186028 4.391672 -0.177723 1.000000 1.000000 1.000000
vn -0.000002 3.412303 0.002547
v -34.784218 4.392699 -1.553253 1.000000 1.000000 1.000000
vn -0.000002 3.359242 0.002513
v -34.215359 4.392902 -1.824920 1.000000 1.000000 1.000000
vn -0.000006 6.283184 0.004690
v -34.622722 4.392239 -0.936108 1.000000 1.000000 1.000000
vn 0.000001 3.338082 0.002493
v -33.924976 4.393072 -2.051775 1.000000 1.000000 1.000000
vn 0.000001 3.308296 0.002474
v -33.226940 4.394104 -3.434859 1.000000 1.000000 1.000000
vn 0.000001 3.019817 0.002255
v -31.721542 4.394097 -3.424169 1.000000 1.000000 1.000000
vn 0.000000 3.348626 0.002498
v -33.250290 4.394613 -4.116707 1.000000 1.000000 1.000000
vn -0.000001 6.283184 0.004695
v -34.520775 4.396595 -6.772247 1.000000 1.000000 1.000000
vn 0.000000 3.019820 0.002256
v -34.249046 4.396948 -7.244500 1.000000 1.000000 1.000000
vn -0.000001 3.019837 0.002251
v -35.459038 4.397099 -7.447719 1.000000 1.000000 1.000000
vn 0.000001 3.044176 0.002273
v -38.060081 4.396313 -6.395557 1.000000 1.000000 1.000000
vn -0.000001 3.019829 0.002255
v -39.166603 4.394705 -4.243362 1.000000 1.000000 1.000000
vn 0.000004 6.283184 0.004696
v -38.695434 4.394807 -4.379337 1.000000 1.000000 1.000000
vn 0.000007 6.283184 0.004695
v -38.274754 4.394747 -4.300451 1.000000 1.000000 1.000000
vn -0.000007 3.329147 0.002486
v -37.569016 4.394876 -4.471920 1.000000 1.000000 1.000000
vn -0.000007 3.329143 0.002486
v -37.676369 4.394572 -4.064916 1.000000 1.000000 1.000000
vn 0.000001 3.378376 0.002520
v -37.618740 4.393831 -3.073354 1.000000 1.000000 1.000000
vn -0.000006 3.329139 0.002486
v -37.206802 4.393243 -2.284673 1.000000 1.000000 1.000000
vn -0.000006 3.363322 0.002511
v -36.912678 4.393019 -1.983566 1.000000 1.000000 1.000000
vn -0.000007 6.283184 0.004691
v -36.817462 4.392547 -1.351334 1.000000 1.000000 1.000000
vn 0.000000 3.412300 0.002548
v -36.427502 4.392784 -1.668875 1.000000 1.000000 1.000000
vn -0.000001 3.373701 0.002513
v -35.353699 4.392623 -1.452665 1.000000 1.000000 1.000000
vn 0.000001 6.283184 0.004696
v -34.144708 4.396603 -6.782314 1.000000 1.000000 1.000000
# 164 vertices, 0 vertices normals

f 1//1 2//2 3//3
f 4//4 5//5 6//6
f 7//7 8//8 9//9
f 10//10 11//11 12//12
f 13//13 14//14 15//15
f 16//16 17//17 18//18
f 19//19 16//16 20//20
f 21//21 22//22 23//23
f 22//22 24//24 25//25
f 25//25 26//26 27//27
f 28//28 27//27 29//29
f 29//29 30//30 31//31
f 32//32 12//12 11//11
f 33//33 34//34 35//35
f 36//36 9//9 8//8
f 37//37 38//38 39//39
f 40//40 41//41 42//42
f 43//43 44//44 45//45
f 46//46 47//47 48//48
f 43//43 48//48 49//49
f 49//49 50//50 51//51
f 51//51 52//52 53//53
f 54//54 53//53 55//55
f 56//56 57//57 58//58
f 55//55 56//56 59//59
f 60//60 61//61 62//62
f 63//63 64//64 65//65
f 60//60 65//65 66//66
f 67//67 68//68 69//69
f 66//66 69//69 70//70
f 50//50 49//49 48//48
f 30//30 29//29 27//27
f 18//18 23//23 20//20
f 71//71 72//72 30//30
f 31//31 73//73 74//74
f 6//6 73//73 75//75
f 76//76 77//77 10//10
f 33//33 35//35 78//78
f 35//35 79//79 78//78
f 80//80 81//81 8//8
f 82//82 83//83 45//45
f 43//43 46//46 48//48
f 84//84 85//85 62//62
f 85//85 63//63 60//60
f 67//67 69//69 86//86
f 69//69 66//66 65//65
f 86//86 69//69 65//65
f 86//86 65//65 64//64
f 85//85 87//87 63//63
f 87//87 85//85 88//88
f 89//89 88//88 84//84
f 56//56 90//90 57//57
f 56//56 58//58 91//91
f 57//57 90//90 92//92
f 55//55 53//53 90//90
f 53//53 92//92 90//90
f 93//93 94//94 52//52
f 92//92 53//53 94//94
f 95//95 51//51 54//54
f 96//96 48//48 47//47
f 97//97 46//46 83//83
f 83//83 98//98 97//97
f 41//41 39//39 99//99
f 39//39 41//41 37//37
f 100//100 101//101 37//37
f 102//102 103//103 104//104
f 101//101 100//100 105//105
f 105//105 100//100 36//36
f 106//106 9//9 102//102
f 79//79 80//80 8//8
f 80//80 79//79 107//107
f 7//7 79//79 8//8
f 35//35 108//108 79//79
f 109//109 78//78 110//110
f 108//108 35//35 111//111
f 111//111 34//34 112//112
f 113//113 12//12 109//109
f 12//12 113//113 10//10
f 114//114 115//115 11//11
f 115//115 114//114 116//116
f 10//10 114//114 11//11
f 117//117 77//77 76//76
f 118//118 119//119 1//1
f 120//120 2//2 117//117
f 3//3 118//118 1//1
f 121//121 122//122 123//123
f 124//124 122//122 3//3
f 13//13 125//125 126//126
f 127//127 15//15 128//128
f 125//125 13//13 129//129
f 129//129 4//4 130//130
f 6//6 131//131 4//4
f 131//131 75//75 132//132
f 133//133 71//71 30//30
f 27//27 26//26 133//133
f 27//27 133//133 30//30
f 26//26 25//25 24//24
f 25//25 28//28 134//134
f 135//135 28//28 136//136
f 134//134 135//135 137//137
f 138//138 18//18 17//17
f 16//16 139//139 140//140
f 140//140 139//139 141//141
f 142//142 19//19 143//143
f 19//19 142//142 144//144
f 67//67 141//141 68//68
f 144//144 142//142 70//70
f 17//17 16//16 140//140
f 19//19 139//139 16//16
f 20//20 143//143 19//19
f 143//143 20//20 145//145
f 18//18 21//21 23//23
f 145//145 137//137 135//135
f 137//137 145//145 20//20
f 134//134 28//28 135//135
f 24//24 22//22 21//21
f 25//25 134//134 22//22
f 28//28 25//25 27//27
f 29//29 136//136 28//28
f 136//136 29//29 146//146
f 147//147 72//72 71//71
f 72//72 147//147 132//132
f 132//132 75//75 72//72
f 75//75 73//73 31//31
f 72//72 31//31 30//30
f 146//146 31//31 74//74
f 31//31 146//146 29//29
f 74//74 73//73 148//148
f 75//75 131//131 6//6
f 73//73 6//6 5//5
f 129//129 13//13 4//4
f 15//15 127//127 5//5
f 14//14 126//126 122//122
f 128//128 124//124 120//120
f 118//118 3//3 121//121
f 2//2 124//124 3//3
f 117//117 2//2 77//77
f 116//116 149//149 150//150
f 149//149 116//116 114//114
f 76//76 10//10 113//113
f 151//151 11//11 115//115
f 112//112 32//32 151//151
f 32//32 33//33 12//12
f 151//151 32//32 11//11
f 112//112 34//34 32//32
f 34//34 111//111 35//35
f 109//109 12//12 33//33
f 33//33 32//32 34//34
f 78//78 109//109 33//33
f 107//107 79//79 108//108
f 78//78 79//79 7//7
f 7//7 110//110 78//78
f 106//106 7//7 9//9
f 152//152 36//36 81//81
f 36//36 103//103 9//9
f 81//81 36//36 8//8
f 152//152 105//105 36//36
f 102//102 9//9 103//103
f 103//103 36//36 100//100
f 40//40 103//103 100//100
f 103//103 40//40 104//104
f 38//38 37//37 101//101
f 40//40 37//37 41//41
f 153//153 154//154 99//99
f 41//41 155//155 42//42
f 99//99 154//154 41//41
f 156//156 42//42 157//157
f 82//82 153//153 98//98
f 157//157 155//155 45//45
f 82//82 98//98 83//83
f 155//155 154//154 82//82
f 45//45 155//155 82//82
f 45//45 44//44 157//157
f 43//43 45//45 83//83
f 44//44 43//43 158//158
f 47//47 46//46 97//97
f 43//43 83//83 46//46
f 49//49 158//158 43//43
f 93//93 50//50 96//96
f 52//52 51//51 50//50
f 158//158 49//49 95//95
f 94//94 53//53 52//52
f 54//54 51//51 53//53
f 95//95 54//54 159//159
f 55//55 90//90 56//56
f 160//160 161//161 162//162
f 84//84 62//62 161//161
f 84//84 88//88 85//85
f 162//162 161//161 62//62
f 62//62 61//61 162//162
f 60//60 62//62 85//85
f 64//64 63//63 87//87
f 60//60 63//63 65//65
f 61//61 60//60 66//66
f 66//66 163//163 61//61
f 69//69 68//68 144//144
f 163//163 70//70 142//142
f 70//70 163//163 66//66
f 75//75 31//31 72//72
f 154//154 153//153 82//82
f 122//122 124//124 14//14
f 14//14 124//124 128//128
f 77//77 149//149 10//10
f 51//51 95//95 49//49
f 155//155 157//157 42//42
f 50//50 93//93 52//52
f 55//55 159//159 54//54
f 161//161 160//160 59//59
f 154//154 155//155 41//41
f 100//100 37//37 40//40
f 91//91 58//58 89//89
f 126//126 125//125 123//123
f 137//137 22//22 134//134
f 137//137 23//23 22//22
f 13//13 126//126 14//14
f 126//126 123//123 122//122
f 121//121 3//3 122//122
f 149//149 77//77 164//164
f 40//40 156//156 104//104
f 96//96 50//50 48//48
f 14//14 128//128 15//15
f 84//84 161//161 91//91
f 91//91 161//161 59//59
f 18//18 20//20 16//16
f 119//119 164//164 1//1
f 164//164 119//119 150//150
f 144//144 70//70 69//69
f 124//124 2//2 120//120
f 110//110 7//7 106//106
f 89//89 84//84 91//91
f 10//10 149//149 114//114
f 77//77 1//1 164//164
f 1//1 77//77 2//2
f 42//42 156//156 40//40
f 4//4 131//131 130//130
f 141//141 139//139 68//68
f 139//139 19//19 144//144
f 139//139 144//144 68//68
f 73//73 5//5 148//148
f 5//5 127//127 148//148
f 150//150 149//149 164//164
f 59//59 56//56 91//91
f 138//138 21//21 18//18
f 23//23 137//137 20//20
f 15//15 5//5 4//4
f 59//59 160//160 159//159
f 15//15 4//4 13//13
f 59//59 159//159 55//55
# 248 faces, 0 coords texture

# End of File
