####
#
# OBJ File Generated by Meshlab
#
####
# Object component_13.obj
#
# Vertices: 51
# Faces: 51
#
####
vn 0.000000 -3.094551 0.000000
v 14.320891 1.000000 5.000001
vn 0.000000 -1.570796 0.000000
v 11.533119 1.000000 5.000001
vn 0.000000 -1.570796 0.000000
v 11.533119 1.000000 13.995833
vn 0.000000 -3.103424 0.000000
v 13.349586 1.000000 13.995833
vn 0.000000 -2.997191 0.000000
v 16.204033 1.000000 13.671465
vn 0.000000 -3.006543 0.000000
v 15.769184 1.000000 13.796972
vn 0.000000 -3.033823 0.000000
v 14.790609 1.000000 13.940805
vn 0.000000 -3.017528 0.000000
v 18.914318 1.000000 9.384388
vn 0.000000 -3.010021 0.000000
v 18.874048 1.000000 10.100042
vn 0.000000 -2.990864 0.000000
v 18.730413 1.000000 10.855932
vn 0.000000 -2.980145 0.000000
v 18.494484 1.000000 11.526069
vn 0.000000 -2.986568 0.000000
v 18.165514 1.000000 12.128304
vn 0.000000 -2.975448 0.000000
v 17.774824 1.000000 12.636950
vn 0.000000 -2.977524 0.000000
v 17.311956 1.000000 13.067869
vn 0.000000 -2.981381 0.000000
v 16.828259 1.000000 13.388659
vn 0.000000 -3.014418 0.000000
v 15.222870 1.000000 5.042463
vn 0.000000 -2.993719 0.000000
v 16.118011 1.000000 5.200008
vn 0.000000 -2.985326 0.000000
v 16.603251 1.000000 5.361937
vn 0.000000 -2.988900 0.000000
v 17.034147 1.000000 5.585367
vn 0.000000 -3.010402 0.000000
v 17.468307 1.000000 5.902618
vn 0.000000 -3.012047 0.000000
v 17.728516 1.000000 6.151045
vn 0.000000 -2.988333 0.000000
v 18.104248 1.000000 6.616621
vn 0.000000 -2.983355 0.000000
v 18.463604 1.000000 7.235961
vn 0.000000 -2.987470 0.000000
v 18.705465 1.000000 7.864164
vn 0.000000 -2.996056 0.000000
v 18.859230 1.000000 8.573772
vn 0.000000 -4.712389 0.000000
v 12.340438 1.000000 13.073184
vn 0.000000 -3.146715 0.000000
v 12.972959 1.000000 13.073184
vn 0.000000 -3.183800 0.000000
v 13.283525 1.000000 13.071593
vn 0.000000 -3.266313 0.000000
v 14.673464 1.000000 13.005759
vn 0.000000 -3.290541 0.000000
v 15.737303 1.000000 12.820898
vn 0.000000 -3.221377 0.000000
v 15.883762 1.000000 12.772201
vn 0.000000 -3.303432 0.000000
v 16.350325 1.000000 12.574511
vn 0.000000 -3.317753 0.000000
v 16.800762 1.000000 12.290461
vn 0.000000 -3.309134 0.000000
v 17.197899 1.000000 11.928724
vn 0.000000 -3.288902 0.000000
v 17.516191 1.000000 11.522373
vn 0.000000 -3.288202 0.000000
v 17.735598 1.000000 11.136638
vn 0.000000 -3.300630 0.000000
v 17.937910 1.000000 10.615884
vn 0.000000 -3.286259 0.000000
v 18.063974 1.000000 10.028794
vn 0.000000 -3.280229 0.000000
v 18.106997 1.000000 9.386189
vn 0.000000 -3.287421 0.000000
v 18.058453 1.000000 8.711127
vn 0.000000 -3.297971 0.000000
v 17.944817 1.000000 8.197208
vn 0.000000 -3.298186 0.000000
v 17.755383 1.000000 7.714530
vn 0.000000 -3.303762 0.000000
v 17.501953 1.000000 7.282576
vn 0.000000 -3.304757 0.000000
v 17.196566 1.000000 6.914630
vn 0.000000 -3.306514 0.000000
v 16.823650 1.000000 6.590923
vn 0.000000 -3.302181 0.000000
v 16.435448 1.000000 6.352937
vn 0.000000 -3.286831 0.000000
v 15.944540 1.000000 6.151510
vn 0.000000 -3.272262 0.000000
v 15.597586 1.000000 6.065084
vn 0.000000 -3.226935 0.000000
v 14.667008 1.000000 5.959045
vn 0.000000 -3.169711 0.000000
v 13.373013 1.000000 5.922651
vn 0.000000 -4.712389 0.000000
v 12.340438 1.000000 5.922651
# 51 vertices, 0 vertices normals

f 26//26 27//27 4//4
f 4//4 27//27 28//28
f 4//4 28//28 7//7
f 7//7 28//28 29//29
f 7//7 29//29 6//6
f 6//6 29//29 30//30
f 6//6 30//30 5//5
f 5//5 30//30 31//31
f 5//5 31//31 15//15
f 15//15 31//31 32//32
f 15//15 32//32 14//14
f 14//14 32//32 33//33
f 14//14 33//33 13//13
f 13//13 33//33 34//34
f 13//13 34//34 12//12
f 12//12 34//34 35//35
f 12//12 35//35 11//11
f 11//11 35//35 36//36
f 11//11 36//36 10//10
f 10//10 36//36 37//37
f 10//10 37//37 9//9
f 9//9 37//37 38//38
f 9//9 38//38 8//8
f 8//8 38//38 39//39
f 8//8 39//39 25//25
f 25//25 39//39 40//40
f 25//25 40//40 24//24
f 24//24 40//40 41//41
f 24//24 41//41 23//23
f 23//23 41//41 42//42
f 23//23 42//42 22//22
f 22//22 42//42 43//43
f 22//22 43//43 21//21
f 21//21 43//43 44//44
f 21//21 44//44 20//20
f 20//20 44//44 45//45
f 20//20 45//45 19//19
f 19//19 45//45 46//46
f 19//19 46//46 18//18
f 18//18 46//46 47//47
f 18//18 47//47 17//17
f 17//17 47//47 48//48
f 17//17 48//48 16//16
f 16//16 48//48 49//49
f 16//16 49//49 1//1
f 1//1 49//49 50//50
f 1//1 50//50 2//2
f 2//2 50//50 51//51
f 2//2 51//51 3//3
f 3//3 51//51 26//26
f 3//3 26//26 4//4
# 51 faces, 0 coords texture

# End of File
