####
#
# OBJ File Generated by Meshlab
#
####
# Object component_3.obj
#
# Vertices: 101
# Faces: 99
#
####
vn 0.000000 -3.023361 0.000000
v 87.965263 1.000000 4.769338
vn 0.000000 -2.982339 0.000000
v 87.510262 1.000000 4.805805
vn 0.000000 -1.606078 0.000000
v 85.229752 1.000000 6.735375
vn 0.000000 -3.081420 0.000000
v 85.251289 1.000000 6.696395
vn 0.000000 -2.984267 0.000000
v 85.718506 1.000000 5.959321
vn 0.000000 -2.999879 0.000000
v 86.111038 1.000000 5.513828
vn 0.000000 -2.989096 0.000000
v 86.383270 1.000000 5.281348
vn 0.000000 -2.982371 0.000000
v 86.743172 1.000000 5.058555
vn 0.000000 -2.985742 0.000000
v 87.122459 1.000000 4.900390
vn 0.000000 -1.609323 0.000000
v 85.990219 1.000000 7.191293
vn 0.000000 -3.306707 0.000000
v 87.965263 1.000000 5.691988
vn 0.000000 -3.300464 0.000000
v 87.680397 1.000000 5.716901
vn 0.000000 -3.293878 0.000000
v 87.459846 1.000000 5.772302
vn 0.000000 -3.298418 0.000000
v 87.206093 1.000000 5.879106
vn 0.000000 -3.291054 0.000000
v 86.949341 1.000000 6.038370
vn 0.000000 -3.290302 0.000000
v 86.666893 1.000000 6.278539
vn 0.000000 -3.280409 0.000000
v 86.346680 1.000000 6.645547
vn 0.000000 -3.281868 0.000000
v 89.727669 1.000000 7.216523
vn 0.000000 -3.198664 0.000000
v 89.726341 1.000000 7.188266
vn 0.000000 -3.310150 0.000000
v 89.700523 1.000000 6.940953
vn 0.000000 -3.291902 0.000000
v 89.648819 1.000000 6.755985
vn 0.000000 -3.295180 0.000000
v 89.553612 1.000000 6.544430
vn 0.000000 -3.308615 0.000000
v 89.423271 1.000000 6.343948
vn 0.000000 -3.270049 0.000000
v 89.270958 1.000000 6.178303
vn 0.000000 -3.276386 0.000000
v 89.138428 1.000000 6.066935
vn 0.000000 -3.298937 0.000000
v 88.919037 1.000000 5.928146
vn 0.000000 -3.306583 0.000000
v 88.606552 1.000000 5.793551
vn 0.000000 -3.305430 0.000000
v 88.300812 1.000000 5.718174
vn 0.000000 -3.321342 0.000000
v 89.405106 1.000000 8.099526
vn 0.000000 -3.283967 0.000000
v 89.544434 1.000000 7.883653
vn 0.000000 -3.302701 0.000000
v 89.650314 1.000000 7.653255
vn 0.000000 -3.317925 0.000000
v 89.705467 1.000000 7.453712
vn 0.000000 -3.126312 0.000000
v 87.783264 1.000000 9.533958
vn 0.000000 -3.193085 0.000000
v 88.001862 1.000000 9.375721
vn 0.000000 -3.281430 0.000000
v 88.847580 1.000000 8.694526
vn 0.000000 -3.009465 0.000000
v 86.309181 1.000000 10.757550
vn 0.000000 -3.010863 0.000000
v 86.454910 1.000000 10.593416
vn 0.000000 -3.069449 0.000000
v 87.014320 1.000000 10.108687
vn 0.000000 -2.972187 0.000000
v 85.806412 1.000000 12.127109
vn 0.000000 -2.956155 0.000000
v 85.839432 1.000000 11.751678
vn 0.000000 -2.983077 0.000000
v 85.935104 1.000000 11.410195
vn 0.000000 -2.979329 0.000000
v 86.078140 1.000000 11.099690
vn 0.000000 -3.008153 0.000000
v 88.022934 1.000000 14.226496
vn 0.000000 -3.033435 0.000000
v 87.785416 1.000000 14.214225
vn 0.000000 -2.977704 0.000000
v 87.438461 1.000000 14.158314
vn 0.000000 -2.985716 0.000000
v 87.087067 1.000000 14.040435
vn 0.000000 -2.983091 0.000000
v 86.761253 1.000000 13.871003
vn 0.000000 -3.049036 0.000000
v 86.473495 1.000000 13.657629
vn 0.000000 -3.042169 0.000000
v 86.456963 1.000000 13.642816
vn 0.000000 -2.984443 0.000000
v 86.232773 1.000000 13.397668
vn 0.000000 -2.967892 0.000000
v 86.053085 1.000000 13.125563
vn 0.000000 -2.979701 0.000000
v 85.916367 1.000000 12.810934
vn 0.000000 -2.975240 0.000000
v 85.836609 1.000000 12.495993
vn 0.000000 -2.970307 0.000000
v 88.438164 1.000000 14.192445
vn 0.000000 -1.579767 0.000000
v 90.419655 1.000000 12.703763
vn 0.000000 -3.058836 0.000000
v 90.249466 1.000000 12.932513
vn 0.000000 -3.011466 0.000000
v 89.764687 1.000000 13.482569
vn 0.000000 -3.002412 0.000000
v 89.478539 1.000000 13.732664
vn 0.000000 -2.977333 0.000000
v 89.171463 1.000000 13.933450
vn 0.000000 -2.979873 0.000000
v 88.789993 1.000000 14.101442
vn 0.000000 -1.635398 0.000000
v 89.689827 1.000000 12.150536
vn 0.000000 -3.261249 0.000000
v 87.932823 1.000000 13.303846
vn 0.000000 -3.263029 0.000000
v 88.109627 1.000000 13.294067
vn 0.000000 -3.246529 0.000000
v 88.365959 1.000000 13.248299
vn 0.000000 -3.246031 0.000000
v 88.422501 1.000000 13.231940
vn 0.000000 -3.310161 0.000000
v 88.670326 1.000000 13.131208
vn 0.000000 -3.306926 0.000000
v 88.897079 1.000000 12.990735
vn 0.000000 -3.279203 0.000000
v 89.170044 1.000000 12.751343
vn 0.000000 -3.309521 0.000000
v 86.613731 1.000000 12.164950
vn 0.000000 -3.277802 0.000000
v 86.628288 1.000000 12.340827
vn 0.000000 -3.317851 0.000000
v 86.663437 1.000000 12.498906
vn 0.000000 -3.305879 0.000000
v 86.728813 1.000000 12.655696
vn 0.000000 -3.299418 0.000000
v 86.813988 1.000000 12.791753
vn 0.000000 -3.298763 0.000000
v 86.928734 1.000000 12.923334
vn 0.000000 -3.304490 0.000000
v 87.096603 1.000000 13.063718
vn 0.000000 -3.301192 0.000000
v 87.261169 1.000000 13.160931
vn 0.000000 -3.301831 0.000000
v 87.463303 1.000000 13.240255
vn 0.000000 -3.290922 0.000000
v 87.681656 1.000000 13.287648
vn 0.000000 -3.315450 0.000000
v 87.206604 1.000000 11.002628
vn 0.000000 -3.306939 0.000000
v 86.907806 1.000000 11.328478
vn 0.000000 -3.304153 0.000000
v 86.768433 1.000000 11.542713
vn 0.000000 -3.305657 0.000000
v 86.688416 1.000000 11.724716
vn 0.000000 -3.306391 0.000000
v 86.632759 1.000000 11.942551
vn 0.000000 -3.084679 0.000000
v 88.415779 1.000000 10.107011
vn 0.000000 -3.176204 0.000000
v 87.803329 1.000000 10.544438
vn 0.000000 -2.957255 0.000000
v 90.534988 1.000000 7.203907
vn 0.000000 -2.972205 0.000000
v 90.495705 1.000000 7.605413
vn 0.000000 -2.987627 0.000000
v 90.410370 1.000000 7.917488
vn 0.000000 -2.985361 0.000000
v 90.228493 1.000000 8.323796
vn 0.000000 -2.969310 0.000000
v 89.971466 1.000000 8.718582
vn 0.000000 -2.997318 0.000000
v 89.462662 1.000000 9.265406
vn 0.000000 -3.020353 0.000000
v 88.209023 1.000000 4.778668
vn 0.000000 -2.982708 0.000000
v 88.624161 1.000000 4.845448
vn 0.000000 -2.984214 0.000000
v 89.002205 1.000000 4.970049
vn 0.000000 -2.980572 0.000000
v 89.339050 1.000000 5.143603
vn 0.000000 -3.042549 0.000000
v 89.665329 1.000000 5.384903
vn 0.000000 -3.043434 0.000000
v 89.781433 1.000000 5.490031
vn 0.000000 -2.990906 0.000000
v 90.044395 1.000000 5.779872
vn 0.000000 -2.974022 0.000000
v 90.260025 1.000000 6.104635
vn 0.000000 -2.979056 0.000000
v 90.409744 1.000000 6.441202
vn 0.000000 -2.972380 0.000000
v 90.497932 1.000000 6.778102
# 101 vertices, 0 vertices normals

f 61//61 55//55 56//56
f 85//85 33//33 84//84
f 84//84 33//33 34//34
f 84//84 34//34 91//91
f 91//91 34//34 35//35
f 91//91 35//35 90//90
f 90//90 35//35 29//29
f 90//90 29//29 89//89
f 89//89 29//29 30//30
f 89//89 30//30 88//88
f 88//88 30//30 31//31
f 88//88 31//31 87//87
f 87//87 31//31 32//32
f 87//87 32//32 86//86
f 32//32 18//18 86//86
f 86//86 18//18 19//19
f 86//86 19//19 101//101
f 101//101 19//19 20//20
f 101//101 20//20 100//100
f 100//100 20//20 21//21
f 100//100 21//21 99//99
f 99//99 21//21 22//22
f 99//99 22//22 98//98
f 98//98 22//22 23//23
f 98//98 23//23 97//97
f 97//97 23//23 24//24
f 97//97 24//24 96//96
f 96//96 24//24 25//25
f 96//96 25//25 95//95
f 95//95 25//25 26//26
f 95//95 26//26 94//94
f 94//94 26//26 27//27
f 94//94 27//27 93//93
f 93//93 27//27 28//28
f 93//93 28//28 92//92
f 92//92 28//28 11//11
f 92//92 11//11 1//1
f 61//61 56//56 68//68
f 68//68 56//56 57//57
f 68//68 57//57 67//67
f 67//67 57//57 58//58
f 67//67 58//58 66//66
f 66//66 58//58 59//59
f 66//66 59//59 65//65
f 65//65 59//59 60//60
f 65//65 60//60 64//64
f 64//64 60//60 54//54
f 64//64 54//54 63//63
f 63//63 54//54 43//43
f 63//63 43//43 62//62
f 62//62 43//43 44//44
f 62//62 44//44 78//78
f 78//78 44//44 45//45
f 78//78 45//45 77//77
f 77//77 45//45 46//46
f 77//77 46//46 76//76
f 76//76 46//46 47//47
f 76//76 47//47 75//75
f 75//75 47//47 48//48
f 75//75 48//48 74//74
f 74//74 48//48 49//49
f 74//74 49//49 73//73
f 73//73 49//49 50//50
f 73//73 50//50 72//72
f 72//72 50//50 51//51
f 72//72 51//51 71//71
f 71//71 51//51 52//52
f 71//71 52//52 70//70
f 70//70 52//52 53//53
f 70//70 53//53 69//69
f 69//69 53//53 39//39
f 69//69 39//39 83//83
f 83//83 39//39 40//40
f 83//83 40//40 82//82
f 82//82 40//40 41//41
f 82//82 41//41 81//81
f 81//81 41//41 42//42
f 81//81 42//42 80//80
f 80//80 42//42 36//36
f 80//80 36//36 79//79
f 79//79 36//36 37//37
f 79//79 37//37 85//85
f 85//85 37//37 38//38
f 85//85 38//38 33//33
f 1//1 11//11 2//2
f 2//2 11//11 12//12
f 2//2 12//12 9//9
f 9//9 12//12 13//13
f 9//9 13//13 8//8
f 8//8 13//13 14//14
f 8//8 14//14 7//7
f 7//7 14//14 15//15
f 7//7 15//15 6//6
f 6//6 15//15 16//16
f 6//6 16//16 5//5
f 5//5 16//16 17//17
f 5//5 17//17 4//4
f 4//4 17//17 10//10
f 4//4 10//10 3//3
# 99 faces, 0 coords texture

# End of File
