####
#
# OBJ File Generated by Meshlab
#
####
# Object component_11.obj
#
# Vertices: 54
# Faces: 54
#
####
vn 0.000000 -1.570796 0.000000
v 31.600752 1.000000 5.000001
vn 0.000000 -1.570796 0.000000
v 31.600752 1.000000 13.995833
vn 0.000000 -3.122753 0.000000
v 33.400997 1.000000 13.995833
vn 0.000000 -2.940478 0.000000
v 35.439114 1.000000 13.873294
vn 0.000000 -3.059125 0.000000
v 34.423138 1.000000 13.976574
vn 0.000000 -2.986611 0.000000
v 37.251980 1.000000 11.590097
vn 0.000000 -2.972429 0.000000
v 37.213139 1.000000 12.064541
vn 0.000000 -2.991650 0.000000
v 37.126499 1.000000 12.402652
vn 0.000000 -2.985996 0.000000
v 36.997841 1.000000 12.706287
vn 0.000000 -3.027645 0.000000
v 36.831219 1.000000 12.974199
vn 0.000000 -3.034803 0.000000
v 36.739216 1.000000 13.090247
vn 0.000000 -2.973564 0.000000
v 36.469810 1.000000 13.364147
vn 0.000000 -2.973738 0.000000
v 36.155098 1.000000 13.591515
vn 0.000000 -2.986228 0.000000
v 35.831932 1.000000 13.750737
vn 0.000000 -5.364722 0.000000
v 34.062347 1.000000 9.151924
vn 0.000000 -3.055665 0.000000
v 34.361572 1.000000 9.157900
vn 0.000000 -2.990144 0.000000
v 35.218918 1.000000 9.249030
vn 0.000000 -2.979409 0.000000
v 35.719852 1.000000 9.380866
vn 0.000000 -3.007397 0.000000
v 36.099300 1.000000 9.550102
vn 0.000000 -3.011756 0.000000
v 36.307755 1.000000 9.678977
vn 0.000000 -2.972709 0.000000
v 36.578552 1.000000 9.899560
vn 0.000000 -2.978462 0.000000
v 36.812737 1.000000 10.167458
vn 0.000000 -2.980494 0.000000
v 36.990383 1.000000 10.453840
vn 0.000000 -2.981819 0.000000
v 37.135773 1.000000 10.803433
vn 0.000000 -2.980541 0.000000
v 37.220177 1.000000 11.156980
vn 0.000000 -0.898495 0.000000
v 37.367306 1.000000 5.000001
vn 0.000000 -2.243098 0.000000
v 36.368973 1.000000 5.000001
vn 0.000000 -4.040088 0.000000
v 33.064014 1.000000 9.151924
vn 0.000000 -4.712389 0.000000
v 32.408066 1.000000 9.151924
vn 0.000000 -1.570796 0.000000
v 32.408066 1.000000 5.000001
vn 0.000000 -3.299323 0.000000
v 35.428894 1.000000 12.939750
vn 0.000000 -3.295948 0.000000
v 35.072189 1.000000 13.016595
vn 0.000000 -3.199426 0.000000
v 34.094788 1.000000 13.073184
vn 0.000000 -3.294672 0.000000
v 35.643803 1.000000 12.856415
vn 0.000000 -3.294585 0.000000
v 35.813721 1.000000 12.758449
vn 0.000000 -3.314117 0.000000
v 36.000916 1.000000 12.608309
vn 0.000000 -3.307147 0.000000
v 36.167507 1.000000 12.419239
vn 0.000000 -4.712389 0.000000
v 32.408066 1.000000 13.073184
vn 0.000000 -4.704731 0.000000
v 32.408066 1.000000 10.074573
vn 0.000000 -3.180708 0.000000
v 34.055141 1.000000 10.061959
vn 0.000000 -3.217051 0.000000
v 34.624500 1.000000 10.079876
vn 0.000000 -3.249430 0.000000
v 35.047165 1.000000 10.125238
vn 0.000000 -3.298577 0.000000
v 35.365692 1.000000 10.194715
vn 0.000000 -3.297167 0.000000
v 35.633923 1.000000 10.299288
vn 0.000000 -3.305395 0.000000
v 35.847187 1.000000 10.423474
vn 0.000000 -3.293668 0.000000
v 36.007214 1.000000 10.555850
vn 0.000000 -3.296845 0.000000
v 36.149281 1.000000 10.715365
vn 0.000000 -3.316475 0.000000
v 36.282360 1.000000 10.921916
vn 0.000000 -3.307389 0.000000
v 36.374966 1.000000 11.142502
vn 0.000000 -3.299441 0.000000
v 36.428066 1.000000 11.367589
vn 0.000000 -3.298585 0.000000
v 36.444656 1.000000 11.591898
vn 0.000000 -3.304958 0.000000
v 36.424442 1.000000 11.834394
vn 0.000000 -3.297663 0.000000
v 36.376202 1.000000 12.026092
vn 0.000000 -3.295717 0.000000
v 36.298195 1.000000 12.209265
# 54 vertices, 0 vertices normals

f 2//2 1//1 29//29
f 29//29 1//1 30//30
f 27//27 26//26 28//28
f 28//28 26//26 15//15
f 13//13 14//14 31//31
f 31//31 14//14 32//32
f 32//32 14//14 4//4
f 32//32 4//4 33//33
f 31//31 34//34 13//13
f 13//13 34//34 35//35
f 13//13 35//35 12//12
f 12//12 35//35 36//36
f 12//12 36//36 11//11
f 11//11 36//36 37//37
f 4//4 5//5 33//33
f 33//33 5//5 3//3
f 33//33 3//3 38//38
f 38//38 3//3 2//2
f 38//38 2//2 39//39
f 39//39 2//2 29//29
f 39//39 29//29 40//40
f 29//29 28//28 40//40
f 40//40 28//28 15//15
f 40//40 15//15 41//41
f 41//41 15//15 16//16
f 41//41 16//16 42//42
f 42//42 16//16 17//17
f 42//42 17//17 43//43
f 43//43 17//17 18//18
f 43//43 18//18 44//44
f 44//44 18//18 19//19
f 44//44 19//19 45//45
f 45//45 19//19 20//20
f 45//45 20//20 46//46
f 46//46 20//20 21//21
f 46//46 21//21 47//47
f 47//47 21//21 22//22
f 47//47 22//22 48//48
f 48//48 22//22 23//23
f 48//48 23//23 49//49
f 49//49 23//23 24//24
f 49//49 24//24 50//50
f 50//50 24//24 25//25
f 50//50 25//25 51//51
f 51//51 25//25 6//6
f 51//51 6//6 52//52
f 52//52 6//6 7//7
f 52//52 7//7 53//53
f 53//53 7//7 8//8
f 53//53 8//8 54//54
f 54//54 8//8 9//9
f 54//54 9//9 37//37
f 37//37 9//9 10//10
f 37//37 10//10 11//11
# 54 faces, 0 coords texture

# End of File
