v 0.0 56.90291213989258 3.0
vn -3.1415929794311523 0.0 3.1415929794311523
v 0.0 82.46607971191406 3.0
vn -3.1415929794311523 0.0 3.1415929794311523
v 0.0 49.46741485595703 3.0
vn -3.1415929794311523 0.0 3.1415929794311523
v 0.0 87.71607971191406 3.0
vn -3.1415929794311523 0.0 3.1415929794311523
v 0.0 86.137451171875 3.0
vn -3.1415929794311523 0.0 3.1415929794311523
v 0.0 100.0 3.0
vn -1.570796012878418 1.570796012878418 1.570796012878418
v 0.0 93.5253677368164 3.0
vn -3.1415929794311523 0.0 3.1415929794311523
v 0.0 92.71607971191406 3.0
vn -3.1415929794311523 0.0 3.1415929794311523
v 0.0 88.5253677368164 3.0
vn -3.1415929794311523 0.0 3.1415929794311523
v 0.0 33.180389404296875 3.0
vn -3.1415929794311523 0.0 3.1415929794311523
v 0.0 39.92975616455078 3.0
vn -3.1415929794311523 0.0 3.1415929794311523
v 0.0 44.44364547729492 3.0
vn -3.1415929794311523 0.0 3.1415929794311523
v 0.0 45.300880432128906 3.0
vn -3.1415929794311523 0.0 3.1415929794311523
v 0.0 47.01829528808594 3.0
vn -3.1415929794311523 0.0 3.1415929794311523
v 0.0 3.0 3.0
vn -4.71238899230957 1.570796012878418 1.570796012878418
v 0.0 8.75 3.0
vn -3.1415929794311523 0.0 3.1415929794311523
v 0.0 28.259016036987305 3.0
vn -3.1415929794311523 0.0 3.1415929794311523
v 0.0 18.430383682250977 44.14308547973633
vn -2.8797919750213623 -1.1919499635696411 2.87762188911438
v 0.0 25.48407745361328 46.03311538696289
vn -1.832595944404602 0.9537969827651978 2.3026719093322754
v 0.0 11.604805946350098 40.202335357666016
vn -2.8797929286956787 -1.8961189985275269 2.4710700511932373
v 0.0 6.031743049621582 34.6292724609375
vn -2.8797929286956787 -2.4710700511932373 1.8961189985275269
v 0.0 2.090993881225586 27.803695678710938
vn -2.8797929286956787 -2.87762188911438 1.1919499635696411
v 0.0 0.0 20.0
vn -2.8797929286956787 -3.088068962097168 0.4065519869327545
v 0.0 0.0 4.884669780731201
vn -3.1415929794311523 -3.1415929794311523 0.0
v 0.0 0.0 0.0
vn -1.570796012878418 -1.570796012878418 -1.570796012878418
v 0.0 0.0 14.111165046691895
vn -3.1415929794311523 -3.1415929794311523 0.0
v 0.0 100.0 0.0
vn -1.570796012878418 1.570796012878418 -1.570796012878418
v 0.0 4.791292190551758 26.68519401550293
vn -3.4033920764923096 2.87762188911438 -1.1919499635696411
v 0.0 3.0 20.0
vn -3.4033920764923096 3.088068962097168 -0.4065519869327545
v 0.0 26.984079360961914 43.43503952026367
vn -1.3089959621429443 1.7669010162353516 -0.7318739891052246
v 0.0 19.548885345458984 41.442787170410156
vn -3.403393030166626 1.1919499635696411 -2.87762188911438
v 0.0 13.384082794189453 37.8835334777832
vn -3.403390884399414 1.8961189985275269 -2.4710700511932373
v 0.0 8.350543022155762 32.849998474121094
vn -3.403393030166626 2.4710700511932373 -1.8961189985275269
f 7//7 6//6 27//27
f 22//22 28//28 23//23
f 23//23 28//28 29//29
f 15//15 25//25 24//24
f 2//2 5//5 27//27
f 27//27 5//5 4//4
f 15//15 24//24 29//29
f 29//29 24//24 26//26
f 29//29 26//26 23//23
f 4//4 9//9 27//27
f 27//27 9//9 8//8
f 27//27 8//8 7//7
f 15//15 16//16 25//25
f 25//25 16//16 17//17
f 25//25 17//17 10//10
f 13//13 14//14 25//25
f 25//25 14//14 3//3
f 25//25 3//3 27//27
f 27//27 3//3 1//1
f 27//27 1//1 2//2
f 10//10 11//11 25//25
f 25//25 11//11 12//12
f 25//25 12//12 13//13
f 19//19 30//30 18//18
f 18//18 30//30 31//31
f 31//31 32//32 18//18
f 18//18 32//32 20//20
f 32//32 33//33 20//20
f 20//20 33//33 21//21
f 33//33 28//28 21//21
f 21//21 28//28 22//22
