v 87.8751220703125 2.380007028579712 15.626428604125977
vn 3.141597032546997 -3.141592025756836 -0.0023449999280273914
v 87.8751220703125 2.3811259269714355 14.126428604125977
vn 3.141594886779785 -3.141592025756836 -0.0023449999280273914
v 87.87510681152344 17.378881454467773 17.13762664794922
vn 2.6815149784088135 2.3553619384765625 1.112481951713562
v 87.87510681152344 17.380001068115234 15.637626647949219
vn 3.141592025756836 3.141592025756836 0.002346999943256378
v 87.8751220703125 2.3788869380950928 17.126428604125977
vn 2.6815199851989746 -2.357023000717163 1.108962059020996
v 87.8751220703125 2.383366107940674 11.126431465148926
vn 1.5707999467849731 -1.569625973701477 -1.5719690322875977
v 87.8751220703125 2.3822460174560547 12.626429557800293
vn 3.141594886779785 -3.141592025756836 -0.002345999935641885
v 87.87510681152344 17.381122589111328 14.137627601623535
vn 3.141585111618042 3.141592025756836 0.0023449999280273914
v 87.8751220703125 6.1109490394592285 15.63536262512207
vn 6.283185005187988 0.0 0.0
v 87.8751220703125 7.653139114379883 14.050505638122559
vn 6.283185005187988 0.0 0.0
v 87.87510681152344 13.63193416595459 12.730644226074219
vn 6.283185005187988 2.499999936844688e-05 -0.0
v 87.8751220703125 11.755547523498535 13.478684425354004
vn 6.283185005187988 2.499999936844688e-05 0.0
v 87.8751220703125 11.764762878417969 11.992829322814941
vn 6.283185005187988 2.499999936844688e-05 0.0
v 87.87510681152344 15.50388240814209 17.136226654052734
vn 5.363025188446045 -0.0016589999431744218 2.221450090408325
v 87.87510681152344 13.62888240814209 17.13482666015625
vn 5.363038063049316 -0.0016339999856427312 2.221445083618164
v 87.8751220703125 11.753883361816406 17.133426666259766
vn 5.36303186416626 -0.001636000000871718 2.221435070037842
v 87.8751220703125 4.492740154266357 11.12800407409668
vn 3.1415939331054688 0.0023449999280273914 -3.141592025756836
v 87.87510681152344 15.50836181640625 11.136228561401367
vn 3.1415960788726807 0.002345999935641885 -3.141592025756836
v 87.8751220703125 11.758362770080566 11.133428573608398
vn 3.1415939331054688 0.0023580000270158052 -3.1415839195251465
v 87.8751220703125 4.176787853240967 15.958881378173828
vn 6.283185005187988 0.0 0.0
v 87.8751220703125 4.170163154602051 14.649398803710938
vn 6.283185005187988 0.0 0.0
v 87.8751220703125 5.926727771759033 14.12901496887207
vn 6.283185005187988 0.0 0.0
v 87.8751220703125 4.27069616317749 13.118745803833008
vn 6.283185005187988 0.0 0.0
v 87.8751220703125 6.184760093688965 12.628469467163086
vn 6.283185005187988 0.0 0.0
v 87.8751220703125 9.8326416015625 14.149735450744629
vn 6.283185005187988 0.0 0.0
v 87.8751220703125 8.462218284606934 12.8888578414917
vn 6.283185005187988 0.0 0.0
v 87.87510681152344 13.622215270996094 15.87353801727295
vn 6.283185005187988 2.499999936844688e-05 -0.0
v 87.8751220703125 11.693690299987793 15.116488456726074
vn 6.283185005187988 2.4000000848900527e-05 0.0
v 87.87510681152344 15.504798889160156 15.141048431396484
vn 6.283185005187988 0.0 -0.0
v 87.87510681152344 13.623297691345215 14.257830619812012
vn 6.283185005187988 2.499999936844688e-05 0.0
v 87.87510681152344 15.506231307983398 13.581564903259277
vn 6.283185005187988 0.0 -0.0
v 87.8751220703125 6.686344146728516 11.12964153289795
vn 3.1415960788726807 0.002345999935641885 -3.141592025756836
v 87.87510681152344 15.507610321044922 12.123220443725586
vn 6.283185005187988 0.0 -0.0
v 87.8751220703125 9.883363723754883 11.132028579711914
vn 3.1415939331054688 0.002345999935641885 -3.141592025756836
v 87.87510681152344 13.63336181640625 11.134828567504883
vn 3.1415960788726807 0.0023580000270158052 -3.1415998935699463
v 87.8751220703125 5.1913862228393555 17.128528594970703
vn 5.363029956817627 -0.0016550000291317701 2.221445083618164
v 87.8751220703125 8.941385269165039 17.13132667541504
vn 5.363033771514893 -0.0016589999431744218 2.221440076828003
v 87.8751220703125 10.222735404968262 16.059825897216797
vn 6.283185005187988 0.0 -0.0
v 87.8751220703125 9.989051818847656 12.634525299072266
vn 6.283185005187988 0.0 -0.0
v 87.8751220703125 10.347634315490723 17.13237762451172
vn 5.363033771514893 -0.0016589999431744218 2.2214410305023193
v 87.8751220703125 7.066384792327881 17.129928588867188
vn 5.3630290031433105 -0.0016599999507889152 2.2214460372924805
v 87.87510681152344 17.382240295410156 12.637627601623535
vn 3.1415939331054688 3.141592025756836 0.0023449999280273914
v 87.87510681152344 17.38336181640625 11.137628555297852
vn 1.5707950592041016 1.571969985961914 -1.5696200132369995
v 87.8751220703125 8.12800407409668 15.382444381713867
vn 6.283185005187988 0.0 0.0
v 87.8751220703125 8.2848539352417 11.13083553314209
vn 3.1415939331054688 0.002345999935641885 -3.141592025756836
f 9//9 22//22 10//10
f 11//11 12//12 13//13
f 22//22 20//20 21//21
f 22//22 21//21 23//23
f 24//24 23//23 17//17
f 27//27 16//16 28//28
f 14//14 27//27 29//29
f 28//28 25//25 12//12
f 29//29 30//30 31//31
f 26//26 24//24 32//32
f 31//31 11//11 33//33
f 13//13 34//34 19//19
f 33//33 35//35 18//18
f 9//9 10//10 44//44
f 30//30 12//12 11//11
f 36//36 20//20 9//9
f 22//22 23//23 24//24
f 15//15 16//16 27//27
f 29//29 27//27 30//30
f 33//33 11//11 35//35
f 9//9 20//20 22//22
f 38//38 44//44 25//25
f 37//37 44//44 38//38
f 12//12 25//25 39//39
f 39//39 13//13 12//12
f 13//13 39//39 34//34
f 31//31 30//30 11//11
f 20//20 5//5 1//1
f 1//1 21//21 20//20
f 21//21 1//1 2//2
f 44//44 41//41 9//9
f 2//2 23//23 21//21
f 23//23 2//2 7//7
f 26//26 10//10 24//24
f 28//28 38//38 25//25
f 14//14 15//15 27//27
f 3//3 14//14 4//4
f 29//29 4//4 14//14
f 27//27 28//28 30//30
f 12//12 30//30 28//28
f 4//4 29//29 8//8
f 31//31 8//8 29//29
f 25//25 10//10 26//26
f 8//8 31//31 42//42
f 33//33 42//42 31//31
f 11//11 13//13 35//35
f 19//19 35//35 13//13
f 42//42 33//33 43//43
f 18//18 43//43 33//33
f 37//37 41//41 44//44
f 41//41 36//36 9//9
f 38//38 40//40 37//37
f 39//39 26//26 45//45
f 10//10 22//22 24//24
f 16//16 38//38 28//28
f 32//32 45//45 26//26
f 32//32 24//24 17//17
f 16//16 40//40 38//38
f 44//44 10//10 25//25
f 45//45 34//34 39//39
f 25//25 26//26 39//39
f 7//7 6//6 17//17
f 5//5 20//20 36//36
f 7//7 17//17 23//23
