v -81.74685668945312 8.228114128112793 17.98295783996582
vn -3.008634090423584 2.6717400550842285 0.4164310097694397
v -81.74685668945312 5.5281147956848145 17.980941772460938
vn -3.0209479331970215 -2.741657018661499 0.5626320242881775
v -81.74685668945312 14.228113174438477 17.987438201904297
vn -3.0305869579315186 2.6696510314941406 0.3584139943122864
v -81.74685668945312 11.52811336517334 17.985422134399414
vn -3.01894211769104 -2.7336039543151855 0.5661789774894714
v -81.798583984375 2.378556966781616 17.38726234436035
vn -3.0614659786224365 -2.601433038711548 0.057280998677015305
v -81.79859161376953 4.928555965423584 17.3891658782959
vn -3.0615360736846924 2.6017959117889404 0.061184998601675034
v -81.787109375 10.928194046020508 17.877395629882812
vn -3.0997819900512695 2.935012102127075 0.39759400486946106
v -81.787109375 8.828193664550781 17.87582778930664
vn -3.0997750759124756 -2.9355990886688232 0.393218994140625
v -81.81007385253906 10.928915977478027 16.909896850585938
vn -3.115057945251465 2.935516119003296 -0.24566100537776947
v -81.81007385253906 8.828916549682617 16.908329010009766
vn -3.1150529384613037 -2.9351420402526855 -0.2500529885292053
v -81.79859924316406 14.828553199768066 17.396556854248047
vn -3.0935120582580566 -2.8004980087280273 0.08129700273275375
v -81.75328063964844 15.936871528625488 16.65530014038086
vn -6.139401912689209 0.013509999960660934 -0.818539023399353
v -81.72224426269531 17.379268646240234 16.438865661621094
vn -3.0082030296325684 2.755204916000366 -0.6353480219841003
v -81.787109375 17.378192901611328 17.882211685180664
vn -2.9940779209136963 2.524991989135742 0.43621501326560974
v -81.80426025390625 6.95585298538208 17.376726150512695
vn -6.1422119140625 0.2173449993133545 0.08786000311374664
v -81.80262756347656 12.962617874145508 17.388988494873047
vn -6.139121055603027 0.22083500027656555 0.1128389984369278
v -81.71857452392578 3.6515491008758545 17.158010482788086
vn -6.199420928955078 0.0004569999873638153 -0.31275099515914917
f 8//8 7//7 9//9
f 8//8 9//9 10//10
