v 65.35900115966797 40.94828796386719 68.77400970458984
vn -0.928022027015686 -2.8369948863983154 2.9633119106292725
v 46.16447830200195 40.94828796386719 31.41629981994629
vn -2.9382340908050537 -2.8178069591522217 -0.9899309873580933
v 83.16796875 40.94828796386719 68.77400970458984
vn 0.928022027015686 -2.836993932723999 2.9633119106292725
v 103.89897918701172 40.94828796386719 40.754554748535156
vn 3.099914073944092 -2.8154489994049072 1.1000000085914508e-05
v 102.36249542236328 40.94828796386719 50.092811584472656
vn 2.938230037689209 -2.817800998687744 0.9899359941482544
v 91.32942962646484 40.94828796386719 64.77307891845703
vn 1.7806049585342407 -2.8312010765075684 2.542289972305298
v 50.54886245727539 40.94828796386719 58.37509536743164
vn -2.477447032928467 -2.823854923248291 1.8667739629745483
v 74.26348114013672 40.94828796386719 17.836597442626953
vn 9.999999974752427e-07 -4.430519104003906 -2.511460065841675
v 91.32942962646484 40.94828796386719 16.735960006713867
vn 1.6510560512542725 -2.7412030696868896 -2.59871506690979
v 74.26348114013672 40.94828796386719 70.13069152832031
vn -0.0 -2.8391990661621094 3.1057519912719727
v 57.19753646850586 40.94828796386719 64.77307891845703
vn -1.7806040048599243 -2.8312020301818848 2.542289972305298
v 97.97809600830078 40.94828796386719 23.134016036987305
vn 2.4774539470672607 -2.823862075805664 -1.8667680025100708
v 50.54886245727539 40.94828796386719 23.13394546508789
vn -2.477454900741577 -2.8238439559936523 -1.866758942604065
v 57.19753646850586 40.94828796386719 16.735960006713867
vn -1.651049017906189 -2.741209030151367 -2.598721981048584
v 80.99534606933594 40.94828796386719 12.777576446533203
vn -0.38181400299072266 -2.1313281059265137 -2.722598075866699
v 97.97809600830078 40.94828796386719 58.37509536743164
vn 2.477452039718628 -2.82384991645813 1.8667659759521484
v 67.53162384033203 40.94828796386719 12.777576446533203
vn 0.38181498646736145 -2.131326913833618 -2.722598075866699
v 46.16440200805664 40.94828796386719 50.092811584472656
vn -2.938227891921997 -2.8177878856658936 0.9899330139160156
v 102.36256408691406 40.94828796386719 31.41629981994629
vn 2.9382269382476807 -2.817786931991577 -0.9899340271949768
v 44.627986907958984 40.94828796386719 40.754554748535156
vn -3.099914073944092 -2.815448045730591 -1.2000000424450263e-05
f 1//1 2//2 3//3
f 2//2 4//4 5//5
f 1//1 7//7 2//2
f 8//8 9//9 2//2
f 9//9 12//12 2//2
f 13//13 14//14 2//2
f 8//8 15//15 9//9
f 6//6 2//2 16//16
f 17//17 8//8 2//2
f 7//7 18//18 2//2
f 2//2 19//19 4//4
f 14//14 17//17 2//2
f 18//18 20//20 2//2
f 2//2 5//5 16//16
f 2//2 12//12 19//19
f 7//7 1//1 11//11
f 2//2 6//6 3//3
f 1//1 3//3 10//10
