v -28.76102066040039 9.31558609008789 -32.87656021118164
vn 0.3574970066547394 -1.3501169681549072 2.4066569805145264
v -28.183971405029297 9.31558609008789 -34.31866455078125
vn 1.9743670225143433 -1.3802299499511719 -1.5642069578170776
v -28.755477905273438 9.31558609008789 -34.76576232910156
vn 1.2859350442886353 -1.987615942955017 -2.4587759971618652
v -29.42669677734375 9.31558609008789 -34.760616302490234
vn -1.3100939989089966 -1.903885006904602 -2.421204090118408
v -29.007856369018555 9.31558609008789 -33.902339935302734
vn 0.0 -6.283185005187988 0.0
v -29.696765899658203 9.31558609008789 -34.5609016418457
vn -1.7711440324783325 -1.3324099779129028 -1.809736967086792
v -29.831878662109375 9.31558609008789 -33.204505920410156
vn -1.6875109672546387 -1.8580429553985596 2.0927228927612305
v -30.05384063720703 9.31558609008789 -33.832725524902344
vn -2.7995429039001465 -2.0829970836639404 -0.36627399921417236
v -28.142616271972656 9.31558609008789 -33.42082977294922
vn 2.5424039363861084 -2.5214738845825195 1.590690016746521
v -28.057445526123047 9.31558609008789 -33.747920989990234
vn 3.018709897994995 -2.470273971557617 -0.05342999845743179
f 4//4 5//5 6//6
f 7//7 5//5 1//1
f 5//5 4//4 3//3
f 2//2 5//5 3//3
f 8//8 5//5 7//7
f 10//10 5//5 2//2
f 5//5 8//8 6//6
f 10//10 9//9 5//5
f 5//5 9//9 1//1
