v -61.436676025390625 26.47565269470215 -57.862892150878906
vn -0.03057200089097023 0.3237369954586029 -6.267989158630371
v -59.90909957885742 26.50394058227539 -57.86268615722656
vn 0.127593994140625 0.3173759877681732 -6.2645111083984375
v -60.65720748901367 25.25267219543457 -57.87398147583008
vn -0.0038479999639093876 -0.24871200323104858 -6.270627021789551
v -60.03876876831055 24.34404754638672 -57.7949333190918
vn 0.045412998646497726 -0.6747350096702576 -6.24489688873291
v -59.200225830078125 25.224931716918945 -57.87423324584961
vn 0.7163569927215576 -0.26496100425720215 -6.159951210021973
v -58.58884811401367 26.612476348876953 -57.777259826660156
vn 1.7761739492416382 0.37547799944877625 -5.807192802429199
v -59.487613677978516 27.463520050048828 -57.77748489379883
vn 0.3588930070400238 0.7659040093421936 -6.203064918518066
v -69.46451568603516 25.561960220336914 -57.871192932128906
vn -0.30896300077438354 -0.1686529964208603 -6.2459330558776855
v -69.45563507080078 27.160018920898438 -57.80628204345703
vn -0.25189900398254395 0.5362579822540283 -6.241586208343506
v -67.03703308105469 25.047460556030273 -57.87325668334961
vn -0.019713999703526497 -0.3379240036010742 -6.260140895843506
v -65.79631805419922 24.617996215820312 -57.8260612487793
vn 0.03578700125217438 -0.47918298840522766 -6.25936222076416
v -64.4384994506836 24.241899490356445 -57.78236389160156
vn 0.0006549999816343188 -0.6833670139312744 -6.242061138153076
v -63.49888229370117 25.072711944580078 -57.86967468261719
vn -0.0335640013217926 -0.3074890077114105 -6.263521194458008
v -68.30760192871094 26.964094161987305 -57.8371467590332
vn -0.03179199993610382 0.4886139929294586 -6.255060195922852
v -67.02467346191406 26.587099075317383 -57.8613395690918
vn 0.02973799966275692 0.3519749939441681 -6.265355110168457
v -68.21054077148438 25.53398895263672 -57.87023162841797
vn -0.04069500043988228 -0.1497659981250763 -6.275207996368408
v -64.47364807128906 25.667802810668945 -57.870235443115234
vn -0.026726000010967255 -0.03282500058412552 -6.276944160461426
v -62.97592544555664 26.538087844848633 -57.849212646484375
vn -0.009802999906241894 0.3568960130214691 -6.267518997192383
v -62.12985610961914 25.064661026000977 -57.868927001953125
vn -0.0053900000639259815 -0.31488698720932007 -6.264587879180908
v -65.79660034179688 26.215574264526367 -57.86384201049805
vn 0.03525000065565109 0.190760999917984 -6.274310111999512
v -64.39337921142578 27.237974166870117 -57.80006408691406
vn 0.00010599999950500205 0.6000139713287354 -6.2478837966918945
f 1//1 2//2 3//3
f 5//5 2//2 6//6
f 6//6 2//2 7//7
f 14//14 15//15 16//16
f 12//12 17//17 13//13
f 18//18 1//1 19//19
f 3//3 19//19 1//1
f 17//17 11//11 20//20
f 18//18 19//19 13//13
f 9//9 14//14 8//8
f 16//16 8//8 14//14
f 10//10 16//16 15//15
f 5//5 3//3 2//2
f 12//12 11//11 17//17
f 11//11 10//10 20//20
f 13//13 17//17 18//18
f 4//4 3//3 5//5
f 15//15 20//20 10//10
f 18//18 17//17 21//21
f 17//17 20//20 21//21
