v -10.292778015136719 32.116493225097656 -122.76435089111328
vn -5.119800090789795 0.3236829936504364 -1.6520440578460693
v -10.251152038574219 32.247379302978516 -122.45500183105469
vn -4.842820167541504 3.1319758892059326 2.164484977722168
v -10.282970428466797 32.209434509277344 -122.41666412353516
vn -2.8691859245300293 0.6129630208015442 2.059782028198242
v -10.309562683105469 32.186973571777344 -122.49456787109375
vn -4.722515106201172 -0.01297600008547306 1.1027719974517822
v -10.29092788696289 32.12036895751953 -122.5927734375
vn -5.8699951171875 -2.1623220443725586 0.37937700748443604
v -10.255732536315918 32.04756546020508 -122.56241607666016
vn -4.9145708084106445 -2.826385974884033 1.7597589492797852
f 2//2 4//4 3//3
f 4//4 1//1 5//5
f 4//4 5//5 6//6
