v -43.5339469909668 21.858335494995117 3.6687469482421875
vn -3.132333993911743 -0.0931750014424324 -2.966649055480957
v -43.49330139160156 22.98009490966797 3.6687469482421875
vn -3.117579936981201 0.31898900866508484 -2.9694950580596924
v -43.4742317199707 21.89432144165039 51.88874816894531
vn -3.133078098297119 -0.08473200350999832 -2.9864730834960938
v -43.49061584472656 22.26151466369629 15.07140064239502
vn -6.269786834716797 0.12041600048542023 -0.010963999666273594
v -43.50667190551758 22.070268630981445 16.23457908630371
vn -6.263388156890869 0.014812000095844269 -0.010484999977052212
v -43.48532485961914 22.764942169189453 13.58973217010498
vn -6.2447428703308105 0.4794749915599823 0.0434890016913414
v -43.510807037353516 22.439678192138672 5.037137031555176
vn -6.261652946472168 0.23432500660419464 0.10120099782943726
v -43.43972396850586 21.062557220458984 17.253339767456055
vn -6.227137088775635 -0.7071239948272705 0.055195000022649765
v -43.48760223388672 22.485193252563477 17.43857765197754
vn -6.262179851531982 0.2636930048465729 0.046831998974084854
v -43.458736419677734 21.270700454711914 14.095227241516113
vn -6.24610710144043 -0.5551040172576904 0.012238999828696251
v -43.51137924194336 22.033416748046875 12.689250946044922
vn -6.264115810394287 -0.046505000442266464 -0.01936499960720539
v -43.51227569580078 21.87371063232422 8.692270278930664
vn -6.2667999267578125 -0.13406899571418762 -0.029425999149680138
v -43.49037170410156 22.727781295776367 9.902481079101562
vn -6.238263130187988 0.48339200019836426 0.09137500077486038
v -43.46054458618164 21.87023162841797 58.9975471496582
vn -6.254343032836914 -0.19857999682426453 -0.02089500054717064
v -43.45097351074219 21.908334732055664 70.66874694824219
vn -3.1330809593200684 -0.08606400340795517 2.9814109802246094
v -43.45522689819336 21.998065948486328 55.55256271362305
vn -6.260800838470459 -0.129954993724823 -0.007532000076025724
v -43.43722152709961 22.73883819580078 53.10971450805664
vn -6.252089977264404 0.48778700828552246 0.06673599779605865
v -43.450130462646484 21.68750762939453 53.16853332519531
vn -6.260448932647705 -0.34380099177360535 0.07279200106859207
v -43.4351921081543 21.205408096313477 21.068328857421875
vn -6.237359046936035 -0.6621649861335754 -0.005905000027269125
v -43.51171875 21.894807815551758 19.75238800048828
vn -6.254197120666504 -0.11197499930858612 0.001787999994121492
v -43.49592208862305 22.732149124145508 7.594191074371338
vn -6.254247188568115 0.3515639901161194 -0.032055001705884933
v -43.437965393066406 20.856529235839844 4.852025032043457
vn -6.21113395690918 -0.8290529847145081 0.05190199986100197
v -43.47004699707031 22.994112014770508 22.448745727539062
vn -3.1179630756378174 0.311926007270813 2.9680399894714355
v -43.51069259643555 21.87234878540039 22.448745727539062
vn -3.1316380500793457 -0.08838800340890884 2.9550271034240723
v -43.44150924682617 21.763832092285156 67.3136215209961
vn -6.256583213806152 -0.28926199674606323 -0.03541100025177002
v -43.473899841308594 21.32177734375 9.932849884033203
vn -6.250002861022949 -0.4931569993495941 0.05136999860405922
v -43.4970817565918 21.81849479675293 6.335578918457031
vn -6.268943786621094 -0.1488170027732849 0.03547799959778786
v -43.446929931640625 22.309009552001953 56.71553421020508
vn -6.263959884643555 0.12238100171089172 0.046133000403642654
v -43.449459075927734 22.008365631103516 63.95919418334961
vn -6.2664031982421875 -0.08857899904251099 0.01540399994701147
v -43.442569732666016 21.878389358520508 62.6327018737793
vn -6.26271915435791 -0.22532999515533447 -0.025087999179959297
v -43.441593170166016 21.805017471313477 68.34386444091797
vn -6.261538028717041 -0.25481098890304565 0.0030670000705868006
v -43.47134780883789 22.57354736328125 20.976621627807617
vn -6.26593017578125 0.3149139881134033 -0.026264000684022903
v -43.48027420043945 21.40778923034668 11.334261894226074
vn -6.2566609382629395 -0.37055298686027527 -0.02656799927353859
v -43.4613151550293 22.380887985229492 11.199202537536621
vn -6.273231029510498 0.294948011636734 -0.013923999853432178
v -43.47382736206055 22.384782791137695 18.54729652404785
vn -6.272065162658691 0.2448199987411499 -0.021883999928832054
v -43.443973541259766 22.392732620239258 60.20858383178711
vn -6.265489101409912 0.20901800692081451 0.021891999989748
v -43.455326080322266 21.446617126464844 18.437284469604492
vn -6.2588419914245605 -0.47170498967170715 -0.027797000482678413
f 8//8 9//9 5//5
f 17//17 3//3 18//18
f 32//32 20//20 19//19
f 22//22 27//27 7//7
f 10//10 6//6 11//11
f 12//12 26//26 13//13
f 6//6 10//10 4//4
f 23//23 32//32 24//24
f 19//19 24//24 32//32
f 1//1 7//7 2//2
f 7//7 1//1 22//22
f 35//35 37//37 20//20
f 11//11 34//34 33//33
f 26//26 34//34 13//13
f 34//34 26//26 33//33
f 35//35 9//9 37//37
f 8//8 37//37 9//9
