v -7.174962043762207 -1.1991740465164185 -40.73224639892578
vn -0.35317400097846985 2.606132984161377 -5.240634918212891
v -7.916149139404297 -1.63886296749115 -40.721031188964844
vn -1.1443099975585938 0.9538350105285645 -5.9706130027771
v -6.170600891113281 -1.5089739561080933 -40.776676177978516
vn 0.6436079740524292 1.4107190370559692 -5.864130973815918
v -7.074338912963867 -1.7584789991378784 -40.81365203857422
vn -0.24253199994564056 0.39543598890304565 -6.226930141448975
v -6.1327691078186035 -4.499231815338135 -40.78203201293945
vn 0.6895580291748047 -0.9009450078010559 -6.0685529708862305
v -6.961462020874023 -4.584668159484863 -40.80523681640625
vn -0.1445939987897873 -1.2608619928359985 -5.9816741943359375
v -5.753842830657959 -3.7787530422210693 -40.73773956298828
vn 1.0096980333328247 -0.026561999693512917 -6.187314033508301
v -7.473326206207275 -3.85221791267395 -40.78308868408203
vn -0.6585900187492371 -0.08362399786710739 -6.236384868621826
v -7.0579400062561035 -3.0807809829711914 -40.81602096557617
vn -0.2532539963722229 0.005142000038176775 -6.266884803771973
v -6.669195175170898 -3.798408031463623 -40.817203521728516
vn 0.12850700318813324 -0.040950000286102295 -6.271236896514893
v -6.18288516998291 -3.0743770599365234 -40.79267120361328
vn 0.6040220260620117 0.0059079998172819614 -6.24151611328125
v -6.588998794555664 -2.3517038822174072 -40.81694030761719
vn 0.2237599939107895 0.03872999921441078 -6.265748977661133
v -7.498126983642578 -2.3677549362182617 -40.780723571777344
vn -0.7116850018501282 0.004689000081270933 -6.230525016784668
v -7.856016159057617 -3.1061038970947266 -40.73057174682617
vn -1.0301170349121094 0.03155500069260597 -6.189842224121094
f 1//1 3//3 4//4
f 2//2 1//1 4//4
f 8//8 9//9 10//10
f 10//10 11//11 7//7
f 12//12 9//9 13//13
f 14//14 13//13 9//9
f 11//11 10//10 9//9
f 3//3 12//12 4//4
f 6//6 10//10 5//5
f 10//10 6//6 8//8
f 7//7 5//5 10//10
f 4//4 13//13 2//2
f 9//9 8//8 14//14
f 13//13 4//4 12//12
f 9//9 12//12 11//11
