v -50.01682662963867 100.28205108642578 -37.77375793457031
vn -6.272924900054932 -0.3588840067386627 0.0009159999899566174
v -50.04852294921875 100.84188842773438 -39.02192306518555
vn -6.2754011154174805 -0.30828800797462463 -0.005841000005602837
v -50.096805572509766 102.17340850830078 -39.004302978515625
vn -6.281604766845703 -0.09307900071144104 -0.009996999986469746
v -50.09592056274414 102.90991973876953 -37.753623962402344
vn -6.283164024353027 0.002256999956443906 -0.0008280000183731318
v -50.09467697143555 103.47965240478516 -39.003578186035156
vn -6.282677173614502 0.05983800068497658 -0.005187999922782183
v -50.064090728759766 104.83199310302734 -39.003578186035156
vn -6.276145935058594 0.2775990068912506 -0.009619000367820263
v -50.019535064697266 105.56987762451172 -37.753578186035156
vn -6.2720441818237305 0.3736329972743988 -0.0009379999828524888
v -50.09221649169922 104.40167236328125 -32.753578186035156
vn -3.1383309364318848 0.10246600210666656 3.0647730827331543
v -50.09931945800781 101.73898315429688 -32.753578186035156
vn -3.138885974884033 -0.08351399749517441 3.06440806388855
v -50.007835388183594 100.12333679199219 -35.253639221191406
vn -6.271115779876709 -0.3869839906692505 0.0022990000434219837
v -50.041988372802734 100.7400131225586 -36.50468063354492
vn -6.274735927581787 -0.3241789937019348 0.0030070000793784857
v -50.07439422607422 101.33863067626953 -40.253170013427734
vn -6.277793884277344 -0.2375900000333786 0.00406099995598197
v -50.098445892333984 102.06678771972656 -36.503639221191406
vn -6.28089714050293 -0.10683000087738037 0.00686000008136034
v -50.09648132324219 102.802001953125 -35.253578186035156
vn -6.283055782318115 -0.011613000184297562 0.004044000059366226
v -50.094146728515625 103.39742279052734 -36.503578186035156
vn -6.282924175262451 0.04752400144934654 0.0026080000679939985
v -50.09126281738281 103.99188232421875 -40.253578186035156
vn -6.2808661460876465 0.13326600193977356 0.004133000038564205
v -50.07196044921875 104.72850036621094 -36.503578186035156
vn -6.276212215423584 0.26495400071144104 0.006575999781489372
v -50.02645492553711 105.46283721923828 -35.253578186035156
vn -6.272723197937012 0.3603929877281189 0.003986999858170748
v -50.095767974853516 103.07032775878906 -42.753578186035156
vn -3.1415810585021973 0.008476999588310719 -3.1413819789886475
v -50.09931945800781 101.73898315429688 -42.753578186035156
vn -3.1389269828796387 -0.08609600365161896 -3.0713460445404053
v -50.09221649169922 104.40167236328125 -42.753578186035156
vn -3.138519048690796 0.09981200098991394 -3.0711939334869385
v -50.009864807128906 105.73046875 -42.753578186035156
vn -3.1355719566345215 0.19440700113773346 -3.141395092010498
v -50.02405548095703 100.40975952148438 -42.753578186035156
vn -3.1365199089050293 -0.1784439980983734 -3.139833927154541
v -50.02405548095703 100.40975952148438 -32.753578186035156
vn -3.1365230083465576 -0.17839600145816803 3.14029598236084
v -50.05966567993164 101.03868103027344 -34.003578186035156
vn -6.276125907897949 -0.28735101222991943 -0.007697000168263912
v -50.04753494262695 100.82835388183594 -41.5029182434082
vn -6.274825096130371 -0.32118698954582214 0.006275000050663948
v -50.08214569091797 101.4686279296875 -35.253578186035156
vn -6.278069972991943 -0.21536299586296082 0.006074999924749136
v -50.098388671875 102.0888671875 -41.50330352783203
vn -6.281122207641602 -0.10218100249767303 0.018861999735236168
v -50.09585189819336 102.38350677490234 -34.003578186035156
vn -6.2824931144714355 -0.05922200158238411 -0.013880999758839607
v -50.095767974853516 103.07032775878906 -32.753578186035156
vn -3.1415839195251465 0.007096000015735626 3.139430046081543
v -50.09404373168945 103.7159423828125 -34.003578186035156
vn -6.282096862792969 0.08502300083637238 -0.007891000248491764
v -50.09461212158203 103.45275115966797 -41.50356674194336
vn -6.282855033874512 0.051270000636577606 0.006008000113070011
v -50.09098434448242 104.13339233398438 -35.253578186035156
vn -6.279808044433594 0.15702100098133087 0.005683000199496746
v -50.070796966552734 104.74730682373047 -41.503578186035156
vn -6.276188850402832 0.26840299367904663 0.01881900057196617
v -50.050559997558594 105.04625701904297 -34.003578186035156
vn -6.274949073791504 0.3135879933834076 -0.013881999999284744
v -50.009864807128906 105.73046875 -32.753578186035156
vn -3.1356539726257324 0.19306600093841553 3.139491081237793
v -50.00145721435547 100.01068115234375 -40.264163970947266
vn -6.269534111022949 -0.40894898772239685 -0.0032649999484419823
v -50.096920013427734 102.638427734375 -40.253440856933594
vn -6.282878875732422 -0.028555000200867653 0.0029410000424832106
v -50.036624908447266 105.29866027832031 -40.253578186035156
vn -6.273565769195557 0.34310799837112427 0.0030960000585764647
v -50.09053039550781 101.58372497558594 -37.7555046081543
vn -6.27785587310791 -0.19946600496768951 -0.0035649999044835567
v -50.092647552490234 104.24046325683594 -37.753578186035156
vn -6.2787017822265625 0.17113900184631348 -0.004033000208437443
f 3//3 4//4 5//5
f 12//12 2//2 3//3
f 13//13 14//14 15//15
f 16//16 5//5 6//6
f 11//11 27//27 13//13
f 26//26 12//12 28//28
f 25//25 9//9 29//29
f 29//29 30//30 31//31
f 32//32 19//19 28//28
f 15//15 33//33 17//17
f 32//32 16//16 34//34
f 31//31 8//8 35//35
f 27//27 11//11 10//10
f 37//37 2//2 12//12
f 38//38 28//28 12//12
f 14//14 13//13 27//27
f 33//33 15//15 14//14
f 38//38 5//5 16//16
f 5//5 38//38 3//3
f 39//39 34//34 16//16
f 18//18 17//17 33//33
f 2//2 40//40 3//3
f 40//40 2//2 1//1
f 40//40 13//13 4//4
f 15//15 4//4 13//13
f 5//5 41//41 6//6
f 41//41 5//5 4//4
f 41//41 17//17 7//7
f 10//10 25//25 27//27
f 9//9 25//25 24//24
f 12//12 26//26 37//37
f 1//1 11//11 40//40
f 13//13 40//40 11//11
f 23//23 26//26 20//20
f 28//28 20//20 26//26
f 12//12 3//3 38//38
f 4//4 3//3 40//40
f 27//27 29//29 14//14
f 29//29 27//27 25//25
f 30//30 29//29 9//9
f 14//14 31//31 33//33
f 31//31 14//14 29//29
f 8//8 31//31 30//30
f 20//20 28//28 19//19
f 16//16 32//32 38//38
f 28//28 38//38 32//32
f 4//4 15//15 41//41
f 17//17 41//41 15//15
f 19//19 32//32 21//21
f 34//34 21//21 32//32
f 16//16 6//6 39//39
f 7//7 6//6 41//41
f 33//33 35//35 18//18
f 35//35 33//33 31//31
f 36//36 35//35 8//8
f 21//21 34//34 22//22
