v -28.813928604125977 140.6974334716797 -32.753578186035156
vn -0.11551400274038315 3.089401960372925 2.8116419315338135
v -28.38152313232422 140.6300048828125 -42.753578186035156
vn 0.5236279964447021 2.9960010051727295 -2.6996030807495117
v -29.46484375 140.60061645507812 -34.262969970703125
vn -1.7343889474868774 5.932469844818115 0.013531999662518501
v -29.11063575744629 140.68063354492188 -35.8538818359375
vn -0.7889599800109863 6.103489875793457 -0.05685500055551529
v -28.89597511291504 140.68978881835938 -41.384925842285156
vn -0.08308500051498413 6.120942115783691 -0.10409600287675858
v -28.504056930541992 140.68629455566406 -34.34528732299805
vn 0.6625609993934631 6.145727157592773 -0.02087000012397766
v -28.835119247436523 140.66627502441406 -37.44226837158203
vn 0.161748006939888 6.128274917602539 -0.03634899854660034
v -28.23996353149414 140.62396240234375 -40.065086364746094
vn 1.4445550441741943 5.945241928100586 -0.008440000005066395
v -28.830448150634766 140.68927001953125 -38.97123336791992
vn 0.0947050005197525 6.142640113830566 0.08498899638652802
f 6//6 4//4 3//3
f 3//3 1//1 6//6
