v 8.60327434539795 7.840025901794434 19.216995239257812
vn 6.20910120010376 0.8696110248565674 -0.020343000069260597
v 8.570170402526855 8.03188419342041 18.39490509033203
vn 6.184051990509033 1.0456490516662598 0.006178999785333872
v 8.648359298706055 6.815449237823486 8.653611183166504
vn 6.262156009674072 -0.2978479862213135 0.011687000282108784
v 8.654422760009766 7.1849589347839355 9.503437995910645
vn 6.272349834442139 0.14170700311660767 0.0011370000429451466
v 8.628029823303223 7.548213958740234 5.144128799438477
vn 6.244114875793457 0.5623289942741394 0.0011190000222995877
v 8.65049934387207 6.8503642082214355 4.438165187835693
vn 6.265338897705078 -0.21998600661754608 0.029637999832630157
v 8.619558334350586 7.696556091308594 4.383749008178711
vn 6.226830005645752 0.7138260006904602 0.04875199869275093
v 8.642419815063477 7.463817119598389 2.9639899730682373
vn 6.253596782684326 0.4506309926509857 -0.009209999814629555
v 8.608466148376465 7.79854679107666 3.6148619651794434
vn 6.215729236602783 0.8437010049819946 0.0040870001539587975
v 8.657052040100098 7.127134799957275 3.738542079925537
vn 6.271002769470215 0.05364900082349777 0.012272000312805176
v 8.597637176513672 7.895938873291016 0.5109279751777649
vn 3.098310947418213 0.49758100509643555 -3.04300594329834
v 8.644365310668945 7.481212139129639 0.5109279751777649
vn 3.1309659481048584 0.1385120004415512 -3.0151119232177734
v 8.656132698059082 7.131229877471924 19.573070526123047
vn 6.272049903869629 0.1183290034532547 0.018326999619603157
v 8.646295547485352 7.379298210144043 17.78720474243164
vn 6.259528160095215 0.3608199954032898 0.004898000042885542
v 8.58719253540039 7.937621116638184 2.1483490467071533
vn 6.197152137756348 0.9711949825286865 0.01762400008738041
v 8.654460906982422 7.193142890930176 2.165994882583618
vn 6.270240783691406 0.13413800299167633 0.007786000147461891
v 8.65457534790039 6.960896015167236 1.3296459913253784
vn 6.265912055969238 -0.18986999988555908 -0.07269900292158127
v 8.62738037109375 7.631339073181152 1.351654052734375
vn 6.244568824768066 0.6158789992332458 0.024210000410676003
v 8.621265411376953 6.451811790466309 2.143691062927246
vn 6.233288764953613 -0.6931170225143433 0.00023999999393709004
v 8.583182334899902 7.967591762542725 11.456914901733398
vn 6.189850807189941 1.0059579610824585 0.007542000152170658
v 8.585088729858398 7.946603775024414 10.586738586425781
vn 6.198030948638916 0.9503210186958313 -0.01634800061583519
v 8.652168273925781 6.85561990737915 20.510927200317383
vn 3.132194995880127 -0.10243599861860275 3.0151479244232178
v 8.55884075164795 6.027327060699463 20.510927200317383
vn 3.079608917236328 -0.5843279957771301 3.0162529945373535
v 8.626055717468262 7.634220123291016 15.646300315856934
vn 6.2399468421936035 0.6621099710464478 -0.005501000210642815
v 8.595885276794434 7.882018089294434 16.39116668701172
vn 6.208362102508545 0.896697998046875 0.012752999551594257
v 8.657241821289062 7.119850158691406 16.104717254638672
vn 6.270914077758789 0.06514500081539154 0.023509999737143517
v 8.602553367614746 7.844127178192139 6.905832767486572
vn 6.2083940505981445 0.8714839816093445 -0.01559399999678135
v 8.621818542480469 7.650378227233887 6.104075908660889
vn 6.233342170715332 0.6889560222625732 -0.029951000586152077
v 8.590774536132812 7.928353786468506 7.635033130645752
vn 6.193727016448975 0.9819779992103577 -0.008080000057816505
v 8.639491081237793 7.515437126159668 8.259535789489746
vn 6.247805118560791 0.49619001150131226 0.02465200051665306
v 8.652064323425293 7.240642070770264 7.39539909362793
vn 6.2699689865112305 0.16536900401115417 -0.013690000399947166
v 8.6400728225708 6.680661201477051 2.987139940261841
vn 6.2607598304748535 -0.41075998544692993 -0.004656000062823296
v 8.638635635375977 6.606949806213379 5.1496357917785645
vn 6.246798992156982 -0.4779149889945984 0.04192399978637695
v 8.611612319946289 6.3744378089904785 7.0994110107421875
vn 6.225595951080322 -0.7528700232505798 -0.004757999908179045
v 8.626992225646973 7.614497184753418 9.0497407913208
vn 6.239896774291992 0.6327340006828308 -0.017618000507354736
v 8.600714683532715 6.306272029876709 18.627641677856445
vn 6.214838981628418 -0.8440390229225159 -0.02283800020813942
v 8.63090991973877 6.546380043029785 15.235943794250488
vn 6.243228912353516 -0.6333140134811401 -0.0002680000034160912
v 8.571195602416992 6.098357200622559 14.779662132263184
vn 6.182071208953857 -1.0571630001068115 -0.010792000219225883
v 8.62165641784668 7.670422077178955 14.371622085571289
vn 6.245649814605713 0.5938540101051331 0.01423299964517355
v 8.58978271484375 7.9159698486328125 12.353297233581543
vn 6.194562911987305 0.977524995803833 0.0031759999692440033
v 8.560306549072266 8.085572242736816 14.019376754760742
vn 6.160672187805176 1.190930962562561 -0.0281980000436306
v 8.57490062713623 8.006118774414062 13.152604103088379
vn 6.174454212188721 1.0976790189743042 -0.006029999814927578
v 8.604840278625488 7.818839073181152 9.843025207519531
vn 6.214818000793457 0.8330780267715454 0.0177449993789196
v 8.61274242401123 6.375466823577881 3.756753921508789
vn 6.232083797454834 -0.7300090193748474 0.007437999825924635
v 8.565006256103516 6.088866233825684 3.0047590732574463
vn 6.17130184173584 -1.1385350227355957 -0.025078000500798225
v 8.580965995788574 6.159056186676025 10.252696990966797
vn 6.187185764312744 -1.0095579624176025 -0.011988000012934208
v 8.64415168762207 6.707151889801025 10.849416732788086
vn 6.2608537673950195 -0.395781010389328 -0.026166999712586403
v 8.646645545959473 7.349567890167236 11.11468505859375
vn 6.265651226043701 0.31902700662612915 -0.010614999569952488
v 8.641352653503418 6.637416839599609 11.608604431152344
vn 6.252358913421631 -0.4750469923019409 -0.012089000083506107
v 8.572868347167969 6.106288909912109 11.088573455810547
vn 6.171803951263428 -1.1178710460662842 0.019726000726222992
v 8.643511772155762 6.671485900878906 12.55317211151123
vn 6.2605791091918945 -0.407478004693985 0.014565999619662762
v 8.650765419006348 7.25848388671875 11.917840003967285
vn 6.269336223602295 0.24260899424552917 -0.009499000385403633
v 8.653777122497559 7.0555877685546875 10.273014068603516
vn 6.269096851348877 0.0016710000345483422 0.0013729999773204327
v 8.621002197265625 7.688571929931641 20.510929107666016
vn 3.115875005722046 0.32843801379203796 2.989276885986328
v 8.649170875549316 7.320819854736328 12.825018882751465
vn 6.26625394821167 0.30360299348831177 0.0025949999690055847
v 8.634580612182617 7.528929233551025 13.681039810180664
vn 6.256208896636963 0.4726180136203766 0.009829999879002571
v 8.648509979248047 6.7727179527282715 13.50227165222168
vn 6.263329982757568 -0.3097490072250366 0.023444000631570816
v 8.649041175842285 6.897362232208252 14.420458793640137
vn 6.268932819366455 -0.18622100353240967 -0.011579999700188637
v 8.657879829406738 7.046870231628418 15.313752174377441
vn 6.272910118103027 0.003607999999076128 -0.01925400085747242
v 8.657084465026855 7.021411895751953 6.502366065979004
vn 6.266632080078125 -0.0650779977440834 -0.0001900000061141327
v 8.65412712097168 6.921554088592529 5.688480854034424
vn 6.263733863830566 -0.17146800458431244 -0.0268389992415905
v 8.598236083984375 6.279706954956055 8.215685844421387
vn 6.19778299331665 -0.9605889916419983 0.07375600188970566
v 8.644190788269043 6.6683149337768555 7.82877779006958
vn 6.251944065093994 -0.440777987241745 -0.02457300014793873
v 8.581953048706055 6.15907621383667 13.915390014648438
vn 6.196961879730225 -0.9720450043678284 0.029340999200940132
v 8.627664566040039 6.5131449699401855 16.640127182006836
vn 6.235964775085449 -0.6514599919319153 -0.01622599922120571
v 8.633845329284668 6.5622639656066895 17.988662719726562
vn 6.240365982055664 -0.5775319933891296 0.020090999081730843
v 8.645734786987305 6.713322162628174 17.29497528076172
vn 6.25816011428833 -0.39642098546028137 -0.0012100000167265534
v 8.653674125671387 7.188440799713135 18.71684455871582
vn 6.267436981201172 0.13315699994564056 -0.02362699992954731
v 8.650655746459961 7.299168109893799 16.893081665039062
vn 6.264547824859619 0.27676400542259216 0.00585100008174777
v 8.56833553314209 6.082334995269775 19.549020767211914
vn 6.1736369132995605 -1.1191940307617188 0.006858000066131353
v 8.57667064666748 6.143139839172363 13.068670272827148
vn 6.196637153625488 -1.0062129497528076 8.099999831756577e-05
v 8.586271286010742 6.176437854766846 12.32514762878418
vn 6.192185878753662 -1.019003987312317 0.0001900000061141327
v 8.615727424621582 7.700884819030762 19.95136070251465
vn 6.239543914794922 0.6692709922790527 0.020517000928521156
v 8.638633728027344 6.62781286239624 19.301755905151367
vn 6.256161212921143 -0.4897719919681549 -0.026006000116467476
v 8.633931159973145 6.582706928253174 9.451897621154785
vn 6.2448577880859375 -0.5889189839363098 -0.016210999339818954
v 8.587130546569824 6.233892917633057 6.1613030433654785
vn 6.20587682723999 -0.9204000234603882 -0.01640000008046627
v 8.572750091552734 6.2440900802612305 8.730873107910156
vn 6.203550815582275 -0.9854289889335632 0.020764000713825226
v 8.636086463928223 6.629324913024902 19.9606876373291
vn 6.254361152648926 -0.546875 0.014094999991357327
v 8.600767135620117 6.5550689697265625 0.5109279751777649
vn 3.1218008995056152 -0.3255529999732971 -3.1470389366149902
v 8.577488899230957 6.131640911102295 1.3626279830932617
vn 6.171302795410156 -1.0608470439910889 -0.11381600052118301
v 8.629595756530762 7.533895969390869 14.981607437133789
vn 6.257705211639404 0.5131300091743469 -0.0324460007250309
v 8.626297950744629 6.520940780639648 15.893077850341797
vn 6.236719131469727 -0.6827369928359985 0.01641100086271763
f 3//3 4//4 75//75
f 5//5 6//6 7//7
f 8//8 9//9 10//10
f 13//13 74//74 68//68
f 68//68 14//14 2//2
f 15//15 8//8 16//16
f 16//16 17//17 18//18
f 17//17 19//19 80//80
f 24//24 25//25 26//26
f 30//30 31//31 29//29
f 10//10 7//7 6//6
f 32//32 19//19 16//16
f 30//30 35//35 3//3
f 37//37 38//38 58//58
f 9//9 7//7 10//10
f 16//16 8//8 32//32
f 10//10 32//32 8//8
f 44//44 10//10 6//6
f 4//4 35//35 43//43
f 18//18 15//15 16//16
f 12//12 18//18 17//17
f 18//18 12//12 11//11
f 19//19 17//17 16//16
f 44//44 45//45 32//32
f 47//47 48//48 49//49
f 46//46 47//47 50//50
f 51//51 49//49 52//52
f 4//4 53//53 75//75
f 55//55 56//56 57//57
f 56//56 55//55 42//42
f 24//24 59//59 81//81
f 31//31 27//27 29//29
f 27//27 31//31 60//60
f 12//12 17//17 79//79
f 5//5 33//33 6//6
f 33//33 5//5 61//61
f 60//60 28//28 27//27
f 76//76 61//61 60//60
f 34//34 76//76 60//60
f 32//32 10//10 44//44
f 31//31 30//30 63//63
f 35//35 4//4 3//3
f 38//38 64//64 58//58
f 65//65 82//82 26//26
f 66//66 67//67 14//14
f 1//1 13//13 68//68
f 1//1 68//68 2//2
f 53//53 48//48 47//47
f 21//21 48//48 53//53
f 64//64 57//57 58//58
f 58//58 57//57 56//56
f 26//26 59//59 24//24
f 60//60 31//31 34//34
f 63//63 34//34 31//31
f 71//71 72//72 51//51
f 64//64 71//71 57//57
f 59//59 82//82 37//37
f 26//26 69//69 65//65
f 68//68 66//66 14//14
f 67//67 65//65 69//69
f 14//14 67//67 69//69
f 58//58 39//39 81//81
f 68//68 74//74 36//36
f 22//22 13//13 73//73
f 45//45 19//19 32//32
f 43//43 53//53 4//4
f 53//53 43//43 21//21
f 52//52 20//20 40//40
f 20//20 52//52 48//48
f 21//21 20//20 48//48
f 23//23 70//70 78//78
f 52//52 55//55 51//51
f 57//57 51//51 55//55
f 59//59 37//37 58//58
f 40//40 55//55 52//52
f 69//69 26//26 25//25
f 39//39 56//56 41//41
f 62//62 63//63 3//3
f 60//60 61//61 28//28
f 5//5 28//28 61//61
f 75//75 53//53 46//46
f 53//53 47//47 46//46
f 50//50 47//47 49//49
f 13//13 78//78 74//74
f 52//52 49//49 48//48
f 1//1 73//73 13//13
f 72//72 49//49 51//51
f 71//71 51//51 57//57
f 23//23 78//78 22//22
f 68//68 36//36 66//66
f 73//73 54//54 22//22
f 70//70 74//74 78//78
f 74//74 70//70 36//36
f 55//55 40//40 42//42
f 58//58 56//56 39//39
f 56//56 42//42 41//41
f 3//3 63//63 30//30
f 75//75 77//77 3//3
f 77//77 62//62 3//3
f 80//80 79//79 17//17
f 78//78 13//13 22//22
f 58//58 81//81 59//59
f 26//26 82//82 59//59
