v -59.57925033569336 22.717578887939453 20.51093101501465
vn -3.1195619106292725 0.35986998677253723 3.088937997817993
v -59.65719223022461 21.230178833007812 20.51093101501465
vn -3.139754056930542 -0.05386599898338318 3.067286968231201
v -59.613460540771484 22.421436309814453 0.5109300017356873
vn -3.1263129711151123 0.27990999817848206 -3.045754909515381
v -59.65403747558594 21.52828025817871 0.5109300017356873
vn -3.139910936355591 0.02389100007712841 -3.0761289596557617
v -59.63237762451172 20.634464263916016 0.5109300017356873
vn -3.131701946258545 -0.2112710028886795 -3.045809030532837
v -59.650882720947266 21.826377868652344 20.51093101501465
vn -3.1365950107574463 0.13728000223636627 3.0542550086975098
v -59.576499938964844 20.04085350036621 20.51093101501465
vn -3.1153910160064697 -0.3902919888496399 3.066718101501465
v -59.63237762451172 20.634462356567383 20.51093101501465
vn -3.132848024368286 -0.21463599801063538 3.0701780319213867
v -59.61860656738281 20.4948673248291 17.144786834716797
vn -6.261291980743408 -0.49966898560523987 -0.006279999855905771
v -59.56788635253906 19.99103546142578 15.722817420959473
vn -6.232563018798828 -0.7791600227355957 0.01358100026845932
v -59.650577545166016 21.0782527923584 17.119705200195312
vn -6.27827787399292 -0.18488100171089172 -0.012473000213503838
v -59.628116607666016 20.6031436920166 15.722818374633789
vn -6.265621185302734 -0.4355359971523285 0.013624000363051891
v -59.65131378173828 21.693071365356445 17.11970329284668
vn -6.279205799102783 0.1601399928331375 -0.013023000210523605
v -59.65403366088867 21.18476676940918 15.696046829223633
vn -6.279640197753906 -0.12962299585342407 0.011481000110507011
v -59.62151336669922 22.282751083374023 17.144786834716797
vn -6.262523174285889 0.484019011259079 -0.006264999974519014
v -59.65008544921875 21.777694702148438 15.722818374633789
vn -6.277769088745117 0.2037689983844757 0.013536999933421612
v -59.56201171875 22.863981246948242 17.119705200195312
vn -6.230152130126953 0.7976179718971252 -0.012458999641239643
v -59.61397933959961 22.391698837280273 15.722818374633789
vn -6.256755828857422 0.5483430027961731 0.01357400044798851
v -59.61594009399414 22.386627197265625 10.320819854736328
vn -6.258172988891602 0.5333639979362488 -0.005872999783605337
v -59.65060806274414 21.806779861450195 10.27527904510498
vn -6.276762008666992 0.22488300502300262 -0.016973000019788742
v -59.614524841308594 22.399900436401367 11.962059020996094
vn -6.257233142852783 0.5455030202865601 0.004534000065177679
v -59.65610122680664 21.177013397216797 10.275277137756348
vn -6.279138088226318 -0.12617699801921844 -0.017131999135017395
v -59.65082931518555 21.80401611328125 11.962059020996094
vn -6.277193069458008 0.21775099635124207 0.00447099981829524
v -59.62916564941406 20.59739112854004 10.320818901062012
vn -6.264667987823486 -0.4507870078086853 -0.005714999977499247
v -59.655948638916016 21.207046508789062 11.962058067321777
vn -6.279993057250977 -0.11060100048780441 0.004412999842315912
v -59.57283020019531 20.01925277709961 10.275278091430664
vn -6.234838962554932 -0.7584019899368286 -0.0167820006608963
v -59.62985610961914 20.610628128051758 11.962058067321777
vn -6.265626907348633 -0.4387109875679016 0.004381000064313412
v -59.57262420654297 20.016389846801758 11.962058067321777
vn -6.234139919281006 -0.7655640244483948 0.00431999983265996
v -59.583797454833984 20.158784866333008 14.087501525878906
vn -6.242836952209473 -0.6855840086936951 -0.0012740000383928418
v -59.60856246948242 20.380807876586914 19.282726287841797
vn -6.254199981689453 -0.5662180185317993 0.014268999919295311
v -59.650550842285156 21.05077362060547 14.087019920349121
vn -6.2754387855529785 -0.19742999970912933 -0.0019950000569224358
v -59.63954162597656 21.94622039794922 14.087503433227539
vn -6.2732977867126465 0.2980090081691742 -0.0012280000373721123
v -59.6523551940918 21.25156021118164 19.261714935302734
vn -6.279807090759277 -0.0894870012998581 0.02319899946451187
v -59.63282012939453 22.07911491394043 19.539316177368164
vn -6.2690348625183105 0.37268298864364624 0.023920999839901924
v -59.56614303588867 22.837684631347656 14.087020874023438
vn -6.229250907897949 0.7852489948272705 -0.0019480000482872128
v -59.5715446472168 22.78846549987793 6.055635929107666
vn -6.234447002410889 0.763634979724884 -0.0033179998863488436
v -59.62709045410156 22.21619987487793 6.085803031921387
vn -6.2653279304504395 0.4405139982700348 -0.001491999952122569
v -59.576576232910156 22.743513107299805 8.996158599853516
vn -6.235376834869385 0.7355250120162964 -0.00993099994957447
v -59.65374755859375 21.599172592163086 6.114340782165527
vn -6.279997825622559 0.10782899707555771 0.00145800004247576
v -59.648231506347656 21.0020751953125 6.055635929107666
vn -6.277215957641602 -0.21915200352668762 -0.003280000062659383
v -59.642765045166016 21.85123634338379 8.996164321899414
vn -6.275885105133057 0.23999600112438202 -0.007540999911725521
v -59.613739013671875 20.428146362304688 6.085803031921387
vn -6.257264137268066 -0.5431600213050842 -0.0014609999489039183
v -59.646148681640625 20.956214904785156 8.996158599853516
vn -6.2737250328063965 -0.24744699895381927 -0.009654000401496887
v -59.572147369384766 20.064542770385742 8.996164321899414
vn -6.2363362312316895 -0.743241012096405 -0.007261999882757664
v -59.606407165527344 22.425556182861328 4.029969215393066
vn -6.256374835968018 0.5602719783782959 -0.00520299980416894
v -59.644081115722656 21.830541610717773 4.029969215393066
vn -6.277095794677734 0.23279300332069397 -0.005206000059843063
v -59.650630950927734 21.2343692779541 4.029969215393066
vn -6.2806878089904785 -0.09531400352716446 -0.005210000090301037
v -59.62603759765625 20.638668060302734 4.029969215393066
vn -6.267138957977295 -0.4231869876384735 -0.005210000090301037
v -59.570369720458984 20.04506492614746 4.029969215393066
vn -6.2364888191223145 -0.7498940229415894 -0.005212999880313873
v -59.61343002319336 20.436128616333008 16.449722290039062
vn -6.257192134857178 -0.5314260125160217 0.003008000086992979
v -59.65431213378906 21.325031280517578 16.412687301635742
vn -6.279658794403076 -0.0484750010073185 0.004120999947190285
v -59.62556457519531 22.22418785095215 16.449722290039062
vn -6.263419151306152 0.4521630108356476 0.0031139999628067017
v -59.57137680053711 22.781551361083984 11.11452865600586
vn -6.236148834228516 0.7553709745407104 0.0024500000290572643
v -59.627655029296875 22.18798828125 11.11452865600586
vn -6.267134189605713 0.42780598998069763 0.0012379999971017241
v -59.65286636352539 21.591432571411133 11.113750457763672
vn -6.280904769897461 0.10090599954128265 0.00022499999613501132
v -59.646854400634766 20.994380950927734 11.114527702331543
vn -6.277587890625 -0.22808200120925903 0.002363000065088272
v -59.60971450805664 20.39930534362793 11.114527702331543
vn -6.257020950317383 -0.5564860105514526 0.0011530000483617187
v -59.585296630859375 20.149734497070312 14.946849822998047
vn -6.24292516708374 -0.6922019720077515 -0.020882999524474144
v -59.57210159301758 20.014928817749023 18.65692710876465
vn -6.23368501663208 -0.7666710019111633 0.022911999374628067
v -59.63481521606445 20.733802795410156 14.916764259338379
vn -6.269989013671875 -0.3762829899787903 -0.016954999417066574
v -59.6312255859375 20.641010284423828 18.656442642211914
vn -6.267022132873535 -0.41604799032211304 0.0203660000115633
v -59.654537200927734 21.348535537719727 14.916765213012695
vn -6.2812089920043945 -0.02455100044608116 -0.01649099960923195
v -59.6558723449707 21.218448638916016 18.611894607543945
vn -6.279856204986572 -0.1074180006980896 0.015974000096321106
v -59.6424674987793 21.937347412109375 14.946850776672363
vn -6.274419784545898 0.2913849949836731 -0.021064000204205513
v -59.650596618652344 21.797658920288086 18.666112899780273
vn -6.276978969573975 0.216279998421669 0.01884699985384941
v -59.60015106201172 22.521987915039062 14.916765213012695
vn -6.251808166503906 0.6076650023460388 -0.01713700033724308
v -59.61143112182617 22.425931930541992 18.666622161865234
vn -6.2552409172058105 0.5642150044441223 0.027633000165224075
v -59.635799407958984 22.042089462280273 7.7559709548950195
vn -6.270631790161133 0.3558970093727112 0.01608400046825409
v -59.653404235839844 21.435718536376953 7.776153087615967
vn -6.280879020690918 0.019798999652266502 0.013193000108003616
v -59.59511184692383 20.254419326782227 7.755970001220703
vn -6.249269008636475 -0.6277909874916077 0.01608099974691868
v -59.61042785644531 22.418899536132812 1.7288730144500732
vn -6.256770133972168 0.5513250231742859 -0.015441999770700932
v -59.59305191040039 22.58672523498535 13.303791046142578
vn -6.248477935791016 0.6394609808921814 0.006430000066757202
v -59.64756393432617 21.83369255065918 1.752830982208252
vn -6.276593208312988 0.2401770055294037 0.0013719999697059393
v -59.63886260986328 21.99965476989746 13.275591850280762
vn -6.272406101226807 0.3290340006351471 0.01141900010406971
v -59.65468215942383 21.246049880981445 1.7288739681243896
vn -6.280191898345947 -0.09132099896669388 -0.014921000227332115
v -59.65422821044922 21.413497924804688 13.303791046142578
vn -6.281134128570557 0.00786300003528595 0.006479999981820583
v -59.62898254394531 20.632095336914062 1.7288730144500732
vn -6.266156196594238 -0.43174898624420166 -0.015531999990344048
v -59.63789367675781 20.798608779907227 13.303790092468262
vn -6.271659851074219 -0.3444800078868866 0.006173999980092049
v -59.574344635009766 20.048255920410156 1.752830982208252
vn -6.237183094024658 -0.7422029972076416 0.0012730000307783484
v -59.5914306640625 20.211585998535156 13.275590896606445
vn -6.246799945831299 -0.6548569798469543 0.011164999566972256
v -59.60585021972656 20.352603912353516 17.826574325561523
vn -6.2545881271362305 -0.5813509821891785 -0.008476000279188156
v -59.64543533325195 20.947925567626953 17.8258113861084
vn -6.276406764984131 -0.2545650005340576 -0.009492999874055386
v -59.65386962890625 21.543697357177734 17.8258113861084
vn -6.281109809875488 0.0750569999217987 -0.011226000264286995
v -59.63115310668945 22.139976501464844 17.826574325561523
vn -6.268660068511963 0.4021030068397522 -0.008212000131607056
v -59.57732009887695 22.734180450439453 17.8258113861084
vn -6.23921012878418 0.7282299995422363 -0.009352999739348888
v -59.61096954345703 22.409408569335938 9.656204223632812
vn -6.2562360763549805 0.5424330234527588 -0.03373600170016289
v -59.65431213378906 21.515472412109375 9.626119613647461
vn -6.279416084289551 0.06334900110960007 -0.036368001252412796
v -59.62786865234375 20.620746612548828 9.656204223632812
vn -6.264172077178955 -0.4414829909801483 -0.033250000327825546
v -59.602622985839844 22.47821617126465 3.2814319133758545
vn -6.25353479385376 0.589257001876831 0.010408000089228153
v -59.64304733276367 21.88339614868164 3.2814319133758545
vn -6.275773048400879 0.26191699504852295 0.010389000177383423
v -59.6523551940918 21.287273406982422 3.2814319133758545
vn -6.280888080596924 -0.0661190003156662 0.010364999994635582
v -59.63052749633789 20.691478729248047 3.2814319133758545
vn -6.268866062164307 -0.3940039873123169 0.010342000052332878
v -59.57761764526367 20.09763526916504 3.2814319133758545
vn -6.23974084854126 -0.72080397605896 0.010317999869585037
v -59.57761001586914 20.0856876373291 19.896989822387695
vn -6.238368034362793 -0.7323300242424011 -0.03438200056552887
v -59.633670806884766 20.72393226623535 19.895803451538086
vn -6.2707672119140625 -0.3592830002307892 -0.03289100155234337
v -59.65432357788086 21.50901985168457 19.905521392822266
vn -6.279613971710205 0.07028800249099731 -0.04170599952340126
v -59.60806655883789 22.43799591064453 19.90666389465332
vn -6.255630016326904 0.5505269765853882 -0.037450000643730164
v -59.56948471069336 22.80144691467285 6.829719066619873
vn -6.234861850738525 0.7616779804229736 0.0032500000670552254
v -59.627830505371094 22.188602447509766 6.850327968597412
vn -6.267263889312744 0.41203799843788147 0.005733000114560127
v -59.653076171875 21.465211868286133 7.076204776763916
vn -6.281364917755127 0.06918899714946747 0.0005029999883845448
v -59.64820861816406 21.015037536621094 6.829719066619873
vn -6.277317047119141 -0.22125400602817535 0.0032579998951405287
v -59.61014175415039 20.400592803955078 6.850327968597412
vn -6.254721164703369 -0.5716959834098816 0.005754000041633844
v -59.58741760253906 22.642606735229492 12.552400588989258
vn -6.244497776031494 0.6810309886932373 0.02442999929189682
v -59.636451721191406 22.047819137573242 12.552400588989258
vn -6.271594047546387 0.3532769978046417 0.023693999275565147
v -59.65433883666992 21.45128059387207 12.552399635314941
vn -6.281477928161621 0.02470099925994873 0.023987000808119774
v -59.641021728515625 20.85462188720703 12.552399635314941
vn -6.274221897125244 -0.3028309941291809 0.024196000769734383
v -59.59653854370117 20.259475708007812 12.552399635314941
vn -6.249783039093018 -0.6308119893074036 0.023462999612092972
v -59.56712341308594 22.810813903808594 5.055455207824707
vn -6.233537197113037 0.7724519968032837 -0.004807999823242426
v -59.63603973388672 22.04383659362793 8.392297744750977
vn -6.26868200302124 0.35802799463272095 0.006839999929070473
v -59.62497329711914 22.217239379882812 5.055455207824707
vn -6.265407085418701 0.445358008146286 -0.005098000168800354
v -59.6517448425293 21.62145233154297 5.055455207824707
vn -6.280104160308838 0.11786200106143951 -0.004395999945700169
v -59.65005874633789 21.13994026184082 8.381820678710938
vn -6.277771949768066 -0.14442500472068787 0.0050760000012815
v -59.647361755371094 21.02507972717285 5.055455207824707
vn -6.277698040008545 -0.21017199754714966 -0.0048050000332295895
v -59.59560775756836 20.25596046447754 8.392297744750977
vn -6.247666835784912 -0.6254630088806152 0.006870000157505274
v -59.61183547973633 20.429750442504883 5.055455207824707
vn -6.258111953735352 -0.5382450222969055 -0.005096000153571367
v -59.597206115722656 22.537866592407227 7.553578853607178
vn -6.249355792999268 0.6322159767150879 0.03470899909734726
v -59.63442611694336 20.75019073486328 7.553578853607178
vn -6.27140998840332 -0.35150599479675293 0.03470199927687645
v -59.58864212036133 22.62340545654297 2.501394033432007
vn -6.245617866516113 0.6699900031089783 0.011183000169694424
v -59.636661529541016 22.029186248779297 2.501394033432007
vn -6.272043228149414 0.34367498755455017 0.011633000336587429
v -59.653587341308594 21.433271408081055 2.501394033432007
vn -6.281439781188965 0.015533999539911747 0.012361000292003155
v -59.639381408691406 20.837282180786133 2.501394033432007
vn -6.273653030395508 -0.31290099024772644 0.011075999587774277
v -59.59407424926758 20.24285125732422 2.501394033432007
vn -6.248828887939453 -0.6393600106239319 0.011524000205099583
v -59.582950592041016 22.671733856201172 1.114361047744751
vn -6.240868091583252 0.7050600051879883 -0.004687000066041946
v -59.649757385253906 21.7799072265625 1.13046395778656
vn -6.275930881500244 0.20447300374507904 -0.010882999747991562
v -59.64129638671875 20.886289596557617 1.114361047744751
vn -6.27444314956665 -0.27723100781440735 -0.004784999880939722
v -59.56813049316406 19.994958877563477 1.13046395778656
vn -6.230970859527588 -0.7772589921951294 -0.010997000150382519
f 50//50 11//11 51//51
f 51//51 13//13 52//52
f 81//81 61//61 82//82
f 82//82 63//63 83//83
f 83//83 65//65 84//84
f 84//84 67//67 85//85
f 53//53 19//19 54//54
f 54//54 20//20 55//55
f 86//86 41//41 87//87
f 55//55 22//22 56//56
f 56//56 24//24 57//57
f 87//87 43//43 88//88
f 60//60 29//29 58//58
f 62//62 31//31 60//60
f 64//64 32//32 62//62
f 66//66 32//32 64//64
f 11//11 50//50 9//9
f 13//13 51//51 11//11
f 15//15 52//52 13//13
f 17//17 52//52 15//15
f 20//20 54//54 19//19
f 22//22 55//55 20//20
f 24//24 56//56 22//22
f 26//26 57//57 24//24
f 29//29 60//60 31//31
f 61//61 30//30 33//33
f 31//31 62//62 32//32
f 65//65 33//33 34//34
f 32//32 66//66 35//35
f 99//99 116//116 98//98
f 100//100 68//68 99//99
f 102//102 117//117 101//101
f 10//10 50//50 12//12
f 12//12 50//50 51//51
f 51//51 14//14 12//12
f 14//14 51//51 16//16
f 52//52 16//16 51//51
f 16//16 52//52 18//18
f 103//103 21//21 104//104
f 104//104 23//23 105//105
f 105//105 25//25 106//106
f 106//106 27//27 107//107
f 61//61 81//81 59//59
f 63//63 82//82 61//61
f 9//9 82//82 11//11
f 82//82 9//9 81//81
f 65//65 83//83 63//63
f 11//11 83//83 13//13
f 83//83 11//11 82//82
f 67//67 84//84 65//65
f 13//13 84//84 15//15
f 84//84 13//13 83//83
f 15//15 85//85 17//17
f 85//85 15//15 84//84
f 54//54 21//21 53//53
f 41//41 86//86 38//38
f 21//21 54//54 23//23
f 55//55 23//23 54//54
f 19//19 86//86 20//20
f 87//87 20//20 86//86
f 23//23 55//55 25//25
f 56//56 25//25 55//55
f 43//43 87//87 41//41
f 20//20 87//87 22//22
f 25//25 56//56 27//27
f 57//57 27//27 56//56
f 44//44 88//88 43//43
f 22//22 88//88 24//24
f 88//88 22//22 87//87
f 27//27 57//57 28//28
f 24//24 88//88 26//26
f 12//12 58//58 10//10
f 58//58 12//12 60//60
f 94//94 8//8 95//95
f 59//59 30//30 61//61
f 14//14 60//60 12//12
f 60//60 14//14 62//62
f 95//95 2//2 96//96
f 61//61 33//33 63//63
f 16//16 62//62 14//14
f 62//62 16//16 64//64
f 63//63 33//33 65//65
f 18//18 64//64 16//16
f 64//64 18//18 66//66
f 34//34 96//96 97//97
f 65//65 34//34 67//67
f 110//110 36//36 108//108
f 112//112 41//41 109//109
f 111//111 37//37 110//110
f 113//113 39//39 111//111
f 112//112 117//117 70//70
f 115//115 40//40 113//113
f 119//119 89//89 118//118
f 120//120 90//90 119//119
f 121//121 91//91 120//120
f 122//122 92//92 121//121
f 8//8 94//94 7//7
f 2//2 95//95 8//8
f 6//6 96//96 2//2
f 96//96 6//6 97//97
f 1//1 97//97 6//6
f 68//68 100//100 69//69
f 69//69 100//100 101//101
f 98//98 36//36 37//37
f 99//99 37//37 39//39
f 101//101 39//39 40//40
f 101//101 40//40 42//42
f 35//35 72//72 32//32
f 74//74 32//32 72//72
f 90//90 46//46 45//45
f 124//124 71//71 123//123
f 76//76 32//32 74//74
f 23//23 104//104 21//21
f 72//72 104//104 74//74
f 104//104 72//72 103//103
f 91//91 47//47 46//46
f 124//124 4//4 125//125
f 32//32 76//76 31//31
f 78//78 31//31 76//76
f 25//25 105//105 23//23
f 74//74 105//105 76//76
f 105//105 74//74 104//104
f 92//92 48//48 47//47
f 31//31 78//78 29//29
f 80//80 29//29 78//78
f 27//27 106//106 25//25
f 76//76 106//106 78//78
f 106//106 76//76 105//105
f 93//93 49//49 48//48
f 126//126 77//77 125//125
f 28//28 107//107 27//27
f 78//78 107//107 80//80
f 107//107 78//78 106//106
f 95//95 30//30 94//94
f 30//30 95//95 33//33
f 96//96 33//33 95//95
f 33//33 96//96 34//34
f 38//38 109//109 41//41
f 46//46 110//110 45//45
f 108//108 45//45 110//110
f 36//36 110//110 37//37
f 69//69 109//109 68//68
f 109//109 69//69 112//112
f 47//47 111//111 46//46
f 110//110 46//46 111//111
f 37//37 111//111 39//39
f 41//41 112//112 43//43
f 117//117 112//112 69//69
f 48//48 113//113 47//47
f 111//111 47//47 113//113
f 39//39 113//113 40//40
f 43//43 114//114 44//44
f 114//114 43//43 112//112
f 70//70 114//114 112//112
f 49//49 115//115 48//48
f 113//113 48//48 115//115
f 40//40 115//115 42//42
f 89//89 119//119 90//90
f 90//90 120//120 91//91
f 91//91 121//121 92//92
f 92//92 122//122 93//93
f 73//73 119//119 71//71
f 118//118 71//71 119//119
f 75//75 120//120 73//73
f 119//119 73//73 120//120
f 77//77 121//121 75//75
f 120//120 75//75 121//121
f 79//79 122//122 77//77
f 121//121 77//77 122//122
f 116//116 99//99 68//68
f 69//69 101//101 117//117
f 117//117 102//102 70//70
f 98//98 37//37 99//99
f 99//99 39//39 100//100
f 100//100 39//39 101//101
f 101//101 42//42 102//102
f 90//90 45//45 89//89
f 4//4 124//124 3//3
f 123//123 3//3 124//124
f 71//71 124//124 73//73
f 91//91 46//46 90//90
f 73//73 124//124 75//75
f 125//125 75//75 124//124
f 92//92 47//47 91//91
f 5//5 125//125 4//4
f 75//75 125//125 77//77
f 93//93 48//48 92//92
f 125//125 5//5 126//126
f 77//77 126//126 79//79
