v 1.405128002166748 7.217214107513428 -30.422565460205078
vn 0.08454500138759613 0.11035600304603577 -6.156177043914795
v 1.00587797164917 6.730047225952148 -30.368804931640625
vn -0.8698260188102722 0.1926479935646057 -6.204774856567383
v 1.167559027671814 7.743031978607178 -30.375469207763672
vn -0.5137609839439392 0.2968350052833557 -6.206223964691162
v 1.6950639486312866 6.6991119384765625 -30.37690544128418
vn 0.8120660185813904 0.1879359930753708 -6.208479881286621
v 1.3709039688110352 6.218245983123779 -30.456581115722656
vn -0.003926000092178583 -1.3474349975585938 -5.455979824066162
f 4//4 5//5 2//2
f 4//4 2//2 1//1
