v -29.70382308959961 45.26823806762695 0.8064990043640137
vn -6.269874095916748 0.2082740068435669 0.3171730041503906
v -29.731855392456055 43.851478576660156 0.7384889721870422
vn -6.273266792297363 -0.008222999982535839 0.3088670074939728
v -29.718990325927734 42.48133087158203 0.46598300337791443
vn -6.271276950836182 -0.22659799456596375 0.2633109986782074
v -29.75791358947754 44.87114334106445 -0.3165920078754425
vn -6.2775349617004395 0.15153799951076508 0.14447100460529327
v -29.772132873535156 43.58558654785156 -0.4952020049095154
vn -6.279791831970215 -0.048594001680612564 0.1171879991889
v -29.70763397216797 46.127174377441406 -0.33875399827957153
vn -6.270492076873779 0.3420650064945221 0.14441899955272675
v -29.747268676757812 42.31378173828125 -0.8134719729423523
vn -6.2750139236450195 -0.258543998003006 0.07490699738264084
v -29.773286819458008 43.35331726074219 -1.664255976676941
vn -6.280478000640869 -0.0765950009226799 -0.07200200110673904
v -29.772619247436523 44.54640579223633 -1.4572579860687256
vn -6.280155181884766 0.1064400002360344 -0.04809299856424332
v -29.734010696411133 45.804500579833984 -1.372102975845337
vn -6.274460792541504 0.2864930033683777 -0.03784799948334694
v -29.721052169799805 45.30813980102539 -2.8144030570983887
vn -6.2721381187438965 0.22321300208568573 -0.25134900212287903
v -29.74658966064453 44.11075973510742 -2.860560894012451
vn -6.275510787963867 0.039014000445604324 -0.2514120042324066
v -29.679161071777344 41.52356719970703 -2.8096630573272705
vn -6.2650370597839355 -0.3767569959163666 -0.243244007229805
v -29.730640411376953 42.77201461791992 -2.875256061553955
vn -6.273499011993408 -0.16753600537776947 -0.26126500964164734
v -29.742488861083984 42.28857421875 -1.8633320331573486
vn -6.2753400802612305 -0.2590720057487488 -0.09909900277853012
f 2//2 1//1 4//4
f 3//3 2//2 5//5
f 2//2 4//4 5//5
f 4//4 1//1 6//6
f 7//7 5//5 8//8
f 3//3 5//5 7//7
f 5//5 9//9 8//8
f 5//5 4//4 9//9
f 4//4 10//10 9//9
f 4//4 6//6 10//10
f 13//13 15//15 14//14
f 15//15 7//7 8//8
f 14//14 8//8 12//12
f 14//14 15//15 8//8
f 12//12 9//9 11//11
f 12//12 8//8 9//9
f 9//9 10//10 11//11
