####
#
# OBJ File Generated by Meshlab
#
####
# Object component_5.obj
#
# Vertices: 91
# Faces: 178
#
####
vn 1.087735 -1.345210 -1.665044
v 8.445500 8.024466 16.631569
vn 1.687452 -0.483768 -2.742370
v 8.445500 7.100657 16.805300
vn 2.824412 -3.069677 -0.588116
v 8.445500 8.204955 15.722698
vn 2.822682 -3.076519 -0.550189
v 8.445500 8.373932 14.811644
vn 2.821055 -3.083156 -0.510666
v 8.445500 8.531376 13.898516
vn 1.699797 1.565490 1.653013
v 8.445499 6.173032 1.905003
vn 2.820503 -3.088985 -0.473781
v 8.445500 8.677268 12.983423
vn 2.820894 -3.095014 -0.432957
v 8.445500 8.811587 12.066477
vn 2.820687 -3.100285 -0.393231
v 8.445500 8.934315 11.147783
vn 2.820654 -3.104801 -0.355788
v 8.445500 9.045424 10.227501
vn 2.821550 -3.109172 -0.316263
v 8.445500 9.144871 9.306002
vn 2.821859 -3.113013 -0.276269
v 8.445500 9.232643 8.383436
vn 2.821449 -3.116263 -0.236246
v 8.445500 9.308734 7.459918
vn 2.820772 -3.118920 -0.196945
v 8.445500 9.373137 6.535558
vn 2.820883 -3.121099 -0.158970
v 8.445500 9.425846 5.610466
vn 2.821731 -3.122969 -0.118975
v 8.445500 9.466853 4.684753
vn 2.821826 -3.124251 -0.078808
v 8.445500 9.496152 3.758532
vn 2.820832 -3.124904 -0.038431
v 8.445500 9.513736 2.831911
vn 1.409937 -1.562520 1.462333
v 8.445500 9.519599 1.905003
vn 0.779364 0.873749 -1.376861
v 8.445499 6.173030 16.957779
vn -2.337557 1.902160 -1.406110
v 11.563890 6.098077 15.162348
vn -1.603829 1.570449 1.591857
v 11.563890 6.098079 1.905003
vn -1.688573 2.699847 -2.633052
v 11.189025 6.089766 15.398928
vn -0.047496 3.141179 3.129940
v 11.127979 6.088919 1.905003
vn -1.628584 2.709214 -2.648938
v 10.806723 6.085078 15.635166
vn -0.009239 3.141518 3.129282
v 10.704209 6.085017 1.905003
vn -1.566598 2.705034 -2.660653
v 10.418568 6.084728 15.869499
vn 0.031558 3.141365 3.128473
v 10.293098 6.086391 1.905003
vn -1.492250 2.711332 -2.678136
v 10.026146 6.089430 16.100359
vn 0.075280 3.140610 3.127488
v 9.895164 6.093060 1.905003
vn -1.411323 2.704374 -2.693782
v 9.631043 6.099897 16.326183
vn 0.122377 3.139114 3.126287
v 9.510919 6.105041 1.905003
vn -1.322352 2.694869 -2.709809
v 9.234844 6.116843 16.545404
vn 0.173401 3.136692 3.124837
v 9.140882 6.122351 1.905003
vn -1.222554 2.682990 -2.727308
v 8.839135 6.140983 16.756458
vn 0.229007 3.133100 3.123122
v 8.785570 6.145009 1.905003
vn -2.932897 -2.333050 -1.578018
v 11.563890 8.055290 14.802383
vn -4.782130 -0.514869 -2.629261
v 11.563890 7.567739 14.901699
vn -1.970572 -3.595091 -3.174058
v 11.202369 8.052142 15.032385
vn -3.248116 -1.026075 -5.279212
v 10.809608 7.626329 15.363310
vn -1.949544 -3.597629 -3.197486
v 10.832844 8.048516 15.263624
vn -1.922368 -3.588590 -3.229239
v 10.455276 8.044552 15.495289
vn -3.150461 -1.042096 -5.334871
v 10.042186 7.713846 15.809235
vn -1.886572 -3.602208 -3.249624
v 10.069631 8.040385 15.726568
vn -1.849910 -3.604610 -3.271576
v 9.675867 8.036155 15.956648
vn -3.072978 -1.053478 -5.377794
v 9.651765 7.756636 16.027262
vn -1.809484 -3.603012 -3.303114
v 9.273950 8.032000 16.184717
vn -3.001421 -1.058254 -5.417129
v 9.255636 7.798784 16.242016
vn -1.527646 -3.669770 -2.891733
v 8.863840 8.028057 16.409962
vn -2.920106 -1.060504 -5.460891
v 8.853639 7.840218 16.453131
vn -2.919882 -0.998541 -5.472573
v 8.853639 7.275572 16.559814
vn -2.919553 -0.912185 -5.487765
v 8.853639 6.708755 16.658640
vn -3.002734 -0.902810 -5.444323
v 9.255636 6.673301 16.446438
vn -3.073151 -0.893160 -5.406479
v 9.651765 6.637236 16.230579
vn -3.150366 -0.889784 -5.362280
v 10.042186 6.600621 16.011431
vn -3.244756 -0.890804 -5.305710
v 10.809608 6.525734 15.563211
vn -4.780836 -0.452848 -2.641452
v 11.563890 6.589055 15.081696
vn -4.779491 -0.485219 -2.636530
v 11.563890 7.078961 14.994810
vn -3.246004 -0.961460 -5.292520
v 10.809608 7.077088 15.467083
vn -3.154301 -0.971010 -5.345922
v 10.042186 7.158302 15.914200
vn -3.072863 -0.979346 -5.391825
v 9.651765 7.198010 16.132809
vn -3.001381 -0.986397 -5.430635
v 9.255636 7.237123 16.348137
vn -1.726689 -1.563027 1.665041
v 11.563890 9.204323 1.905003
vn -3.454006 -3.125812 -0.033663
v 11.563890 9.199821 2.715461
vn -0.315608 -3.125585 3.115158
v 10.000061 9.365852 1.905003
vn -0.631439 -6.250339 -0.098550
v 9.999734 9.356991 3.076663
vn -0.632332 -6.247811 -0.200775
v 9.999734 9.328796 4.249079
vn -0.631336 -6.243891 -0.300794
v 9.999734 9.281758 5.421800
vn -0.631367 -6.238237 -0.401183
v 9.999734 9.215853 6.594370
vn -0.632236 -6.230994 -0.500252
v 9.999734 9.131077 7.766336
vn -0.631996 -6.222040 -0.601739
v 9.999734 9.027434 8.937243
vn -0.631258 -6.211667 -0.701341
v 9.999734 8.904949 10.106632
vn -0.631269 -6.199259 -0.803481
v 9.999734 8.763656 11.274054
vn -0.631896 -6.183638 -0.915389
v 9.999734 8.578000 12.613468
vn -0.630822 -6.167679 -1.018628
v 9.999734 8.367645 13.948994
vn -0.630752 -6.156398 -1.085256
v 9.999734 8.253244 14.615084
vn -0.628268 -6.146343 -1.142296
v 9.999734 8.132796 15.279533
vn -3.454589 -3.125155 -0.069908
v 11.563890 9.186318 3.525729
vn -3.454203 -3.124215 -0.104793
v 11.563890 9.163819 4.335734
vn -3.454135 -3.122941 -0.137799
v 11.563890 9.132327 5.145400
vn -3.454665 -3.121101 -0.173670
v 11.563890 9.091845 5.954653
vn -3.453768 -3.118992 -0.209427
v 11.563890 9.042377 6.763417
vn -3.453769 -3.116670 -0.241532
v 11.563890 8.983928 7.571618
vn -3.454658 -3.113611 -0.277242
v 11.563890 8.916501 8.379181
vn -3.454111 -3.110271 -0.313018
v 11.563890 8.840099 9.186031
vn -3.454183 -3.106787 -0.345817
v 11.563890 8.754738 9.992002
vn -3.454584 -3.102688 -0.380533
v 11.563890 8.660439 10.796886
vn -3.453287 -3.098130 -0.416977
v 11.563890 8.557215 11.600609
vn -3.453715 -3.093680 -0.448499
v 11.563890 8.445076 12.403093
vn -3.453669 -3.088270 -0.484405
v 11.563890 8.324036 13.204266
vn -3.455341 -3.082621 -0.518114
v 11.563890 8.194102 14.004055
# 91 vertices, 0 vertices normals

f 1//1 2//2 3//3
f 3//3 2//2 4//4
f 4//4 2//2 5//5
f 5//5 2//2 6//6
f 5//5 6//6 7//7
f 7//7 6//6 8//8
f 8//8 6//6 9//9
f 9//9 6//6 10//10
f 10//10 6//6 11//11
f 11//11 6//6 12//12
f 12//12 6//6 13//13
f 13//13 6//6 14//14
f 14//14 6//6 15//15
f 15//15 6//6 16//16
f 16//16 6//6 17//17
f 17//17 6//6 18//18
f 18//18 6//6 19//19
f 2//2 20//20 6//6
f 21//21 22//22 23//23
f 23//23 22//22 24//24
f 23//23 24//24 25//25
f 25//25 24//24 26//26
f 25//25 26//26 27//27
f 27//27 26//26 28//28
f 27//27 28//28 29//29
f 29//29 28//28 30//30
f 29//29 30//30 31//31
f 31//31 30//30 32//32
f 31//31 32//32 33//33
f 33//33 32//32 34//34
f 33//33 34//34 35//35
f 35//35 34//34 36//36
f 35//35 36//36 20//20
f 20//20 36//36 6//6
f 37//37 38//38 39//39
f 39//39 38//38 40//40
f 39//39 40//40 41//41
f 41//41 40//40 42//42
f 42//42 40//40 43//43
f 42//42 43//43 44//44
f 44//44 43//43 45//45
f 45//45 43//43 46//46
f 45//45 46//46 47//47
f 47//47 46//46 48//48
f 47//47 48//48 49//49
f 49//49 48//48 50//50
f 49//49 50//50 1//1
f 1//1 50//50 51//51
f 1//1 51//51 2//2
f 2//2 51//51 52//52
f 2//2 52//52 20//20
f 20//20 52//52 35//35
f 35//35 52//52 53//53
f 35//35 53//53 33//33
f 33//33 53//53 31//31
f 31//31 53//53 54//54
f 31//31 54//54 29//29
f 29//29 54//54 55//55
f 29//29 55//55 27//27
f 27//27 55//55 56//56
f 27//27 56//56 25//25
f 25//25 56//56 23//23
f 23//23 56//56 57//57
f 23//23 57//57 21//21
f 38//38 58//58 40//40
f 40//40 58//58 59//59
f 40//40 59//59 60//60
f 60//60 59//59 55//55
f 60//60 55//55 54//54
f 58//58 57//57 59//59
f 59//59 57//57 56//56
f 59//59 56//56 55//55
f 40//40 60//60 43//43
f 43//43 60//60 61//61
f 43//43 61//61 46//46
f 46//46 61//61 62//62
f 46//46 62//62 48//48
f 48//48 62//62 51//51
f 48//48 51//51 50//50
f 60//60 54//54 61//61
f 61//61 54//54 53//53
f 61//61 53//53 62//62
f 62//62 53//53 52//52
f 62//62 52//52 51//51
f 63//63 64//64 65//65
f 65//65 64//64 66//66
f 65//65 66//66 18//18
f 18//18 66//66 17//17
f 17//17 66//66 67//67
f 17//17 67//67 16//16
f 16//16 67//67 68//68
f 16//16 68//68 15//15
f 15//15 68//68 69//69
f 15//15 69//69 14//14
f 14//14 69//69 13//13
f 13//13 69//69 70//70
f 13//13 70//70 12//12
f 12//12 70//70 71//71
f 12//12 71//71 11//11
f 11//11 71//71 72//72
f 11//11 72//72 10//10
f 10//10 72//72 9//9
f 9//9 72//72 73//73
f 9//9 73//73 8//8
f 8//8 73//73 74//74
f 8//8 74//74 7//7
f 7//7 74//74 75//75
f 7//7 75//75 5//5
f 5//5 75//75 76//76
f 5//5 76//76 4//4
f 4//4 76//76 77//77
f 4//4 77//77 3//3
f 3//3 77//77 45//45
f 3//3 45//45 47//47
f 64//64 78//78 66//66
f 66//66 78//78 67//67
f 78//78 79//79 67//67
f 67//67 79//79 80//80
f 67//67 80//80 68//68
f 68//68 80//80 81//81
f 68//68 81//81 69//69
f 69//69 81//81 82//82
f 69//69 82//82 83//83
f 69//69 83//83 70//70
f 70//70 83//83 84//84
f 70//70 84//84 71//71
f 71//71 84//84 85//85
f 71//71 85//85 72//72
f 72//72 85//85 86//86
f 72//72 86//86 87//87
f 72//72 87//87 73//73
f 73//73 87//87 88//88
f 73//73 88//88 74//74
f 74//74 88//88 89//89
f 74//74 89//89 90//90
f 74//74 90//90 75//75
f 75//75 90//90 91//91
f 75//75 91//91 76//76
f 76//76 91//91 37//37
f 76//76 37//37 39//39
f 76//76 39//39 77//77
f 77//77 39//39 41//41
f 77//77 41//41 42//42
f 42//42 44//44 77//77
f 77//77 44//44 45//45
f 49//49 1//1 47//47
f 47//47 1//1 3//3
f 18//18 19//19 65//65
f 37//37 91//91 38//38
f 38//38 91//91 90//90
f 38//38 90//90 89//89
f 38//38 89//89 58//58
f 58//58 89//89 88//88
f 58//58 88//88 22//22
f 22//22 88//88 87//87
f 22//22 87//87 86//86
f 86//86 85//85 22//22
f 22//22 85//85 84//84
f 22//22 84//84 83//83
f 83//83 82//82 22//22
f 22//22 82//82 81//81
f 22//22 81//81 80//80
f 80//80 79//79 22//22
f 22//22 79//79 78//78
f 22//22 78//78 64//64
f 64//64 63//63 22//22
f 21//21 57//57 22//22
f 22//22 57//57 58//58
f 22//22 63//63 24//24
f 24//24 63//63 26//26
f 26//26 63//63 65//65
f 26//26 65//65 28//28
f 28//28 65//65 30//30
f 30//30 65//65 32//32
f 32//32 65//65 34//34
f 34//34 65//65 19//19
f 34//34 19//19 36//36
f 36//36 19//19 6//6
# 178 faces, 0 coords texture

# End of File
