####
#
# OBJ File Generated by Meshlab
#
####
# Object component_2.obj
#
# Vertices: 68
# Faces: 132
#
####
vn 1.379525 -1.559102 1.448755
v 18.366741 -6.665644 1.905000
vn 1.372596 1.558224 1.437813
v 18.366747 -8.430448 1.905000
vn -0.390601 -3.117206 3.136593
v 19.161989 -6.763224 1.905000
vn -0.390015 3.117221 3.121440
v 20.009991 -8.227800 1.905000
vn -0.405856 -3.115258 3.137097
v 19.968285 -6.866363 1.905000
vn -0.419646 -3.113432 3.137526
v 20.784740 -6.974661 1.905000
vn -0.400526 3.115881 3.120390
v 21.661430 -8.018451 1.905000
vn -0.432072 -3.111733 3.137919
v 21.610474 -7.087723 1.905000
vn -0.443221 -3.110166 3.138285
v 22.444599 -7.205148 1.905000
vn -0.409914 3.114657 3.119782
v 23.321121 -7.802461 1.905000
vn -0.455194 -3.108433 3.137509
v 23.286234 -7.326540 1.905000
vn -0.434228 0.003973 0.272993
v 24.989122 -7.579895 1.905000
vn 0.565857 -0.780916 -1.158855
v 18.366741 -6.665645 10.625860
vn 1.565112 0.569824 -2.656928
v 18.366743 -7.301278 10.495516
vn 2.746638 3.108257 -0.228295
v 18.366747 -8.236531 7.192538
vn 2.746640 3.111268 -0.182694
v 18.366747 -8.306323 6.136366
vn 0.962632 1.355695 -1.496261
v 18.366745 -7.934356 10.353334
vn 2.748279 3.100644 -0.317345
v 18.366745 -8.050519 9.301327
vn 2.746638 3.104553 -0.273843
v 18.366745 -8.151253 8.247659
vn 2.746643 3.113613 -0.137056
v 18.366747 -8.360617 5.079355
vn 2.746639 3.115287 -0.091389
v 18.366747 -8.399407 4.021677
vn 2.746636 3.116292 -0.045700
v 18.366747 -8.422687 2.963502
vn -1.932687 -2.576210 -2.675676
v 19.012377 -6.744553 10.231834
vn -1.901260 -2.565149 -2.699465
v 19.680466 -6.829133 9.837110
vn -1.868215 -2.560683 -2.723976
v 20.371962 -6.919522 9.442787
vn -1.819544 -2.534783 -2.750547
v 21.087820 -7.015854 9.049969
vn -1.781010 -2.494265 -2.766828
v 21.828993 -7.118266 8.659756
vn -1.734570 -2.478851 -2.790673
v 22.596434 -7.226892 8.273247
vn -1.689838 -2.461133 -2.811835
v 23.391098 -7.341867 7.891546
vn -1.652112 -2.492136 -2.838297
v 23.798937 -7.401778 7.702843
vn -0.709652 -0.008382 -0.375585
v 24.213940 -7.463327 7.515754
vn -0.869350 0.000472 -0.208741
v 24.392939 -7.490043 6.829801
vn -0.870548 0.002270 -0.180249
v 24.549137 -7.513438 6.138982
vn -0.872403 0.004121 -0.150962
v 24.682207 -7.533436 5.443529
vn -0.874251 0.005824 -0.119957
v 24.791821 -7.549964 4.743680
vn -0.876308 0.007086 -0.091004
v 24.877647 -7.562947 4.039667
vn -0.878547 0.008118 -0.061201
v 24.939358 -7.572313 3.331727
vn -0.879398 0.009051 -0.029182
v 24.976625 -7.577987 2.620093
vn -0.777509 6.233992 -0.086244
v 20.006512 -8.222628 2.959978
vn -0.776256 6.232113 -0.182743
v 20.006512 -8.199431 4.014865
vn -0.776257 6.228764 -0.274081
v 20.006512 -8.160770 5.069444
vn -0.776259 6.224076 -0.365380
v 20.006512 -8.106645 6.123510
vn -0.776259 6.218048 -0.456612
v 20.006512 -8.037055 7.176858
vn -0.775683 6.210803 -0.547264
v 20.006512 -7.952034 8.228974
vn -0.794044 6.196668 -0.664776
v 20.006512 -7.851616 9.279531
vn -1.873730 3.733346 -3.032621
v 19.783861 -7.848546 9.554855
vn -1.911987 3.722448 -3.003435
v 19.064274 -7.894724 9.951387
vn -1.939551 3.725952 -2.989099
v 18.711975 -7.915392 10.152240
vn -1.846617 3.736942 -3.049353
v 20.508326 -7.796947 9.174269
vn -1.783471 3.750785 -3.035614
v 21.237520 -7.740115 8.810026
vn -0.802937 6.207428 -0.546657
v 21.659224 -7.743065 8.209433
vn -0.801837 6.214871 -0.456132
v 21.659224 -7.827815 7.160464
vn -0.802028 6.220857 -0.365099
v 21.659224 -7.897193 6.110085
vn -0.802026 6.225541 -0.273849
v 21.659224 -7.951145 5.059106
vn -0.802025 6.228887 -0.182569
v 21.659224 -7.989672 4.007768
vn -0.801793 6.230952 -0.085913
v 21.659224 -8.012781 2.956313
vn -0.820940 6.228466 -0.087310
v 23.320219 -7.796184 2.952553
vn -1.735253 3.758669 -3.058858
v 21.972063 -7.678195 8.462090
vn -1.679092 3.777124 -3.053139
v 22.712568 -7.611329 8.130424
vn -1.629374 3.785648 -3.060311
v 23.459654 -7.539659 7.814991
vn -0.820153 6.212666 -0.454065
v 23.320219 -7.611843 7.143582
vn -0.820847 6.218442 -0.364727
v 23.320219 -7.681002 6.096270
vn -0.821085 6.223093 -0.273368
v 23.320219 -7.734774 5.048478
vn -0.821613 6.226350 -0.182418
v 23.320219 -7.773164 4.000480
vn -3.078414 1.168854 -5.351030
v 19.070114 -7.333590 10.075689
vn -2.981456 1.182547 -5.402683
v 19.780256 -7.250114 9.693566
vn -2.885991 1.202336 -5.449980
v 20.497736 -7.169324 9.323740
vn -2.756674 1.216979 -5.513368
v 21.223103 -7.091269 8.966428
# 68 vertices, 0 vertices normals

f 1//1 2//2 3//3
f 3//3 2//2 4//4
f 3//3 4//4 5//5
f 5//5 4//4 6//6
f 6//6 4//4 7//7
f 6//6 7//7 8//8
f 8//8 7//7 9//9
f 9//9 7//7 10//10
f 9//9 10//10 11//11
f 11//11 10//10 12//12
f 13//13 14//14 1//1
f 1//1 14//14 15//15
f 1//1 15//15 16//16
f 17//17 18//18 14//14
f 14//14 18//18 19//19
f 14//14 19//19 15//15
f 16//16 20//20 1//1
f 1//1 20//20 21//21
f 1//1 21//21 22//22
f 22//22 2//2 1//1
f 13//13 1//1 23//23
f 23//23 1//1 3//3
f 23//23 3//3 24//24
f 24//24 3//3 5//5
f 24//24 5//5 25//25
f 25//25 5//5 6//6
f 25//25 6//6 26//26
f 26//26 6//6 8//8
f 26//26 8//8 27//27
f 27//27 8//8 9//9
f 27//27 9//9 28//28
f 28//28 9//9 11//11
f 28//28 11//11 29//29
f 29//29 11//11 30//30
f 30//30 11//11 31//31
f 31//31 11//11 32//32
f 32//32 11//11 33//33
f 33//33 11//11 12//12
f 33//33 12//12 34//34
f 34//34 12//12 35//35
f 35//35 12//12 36//36
f 36//36 12//12 37//37
f 37//37 12//12 38//38
f 4//4 2//2 39//39
f 39//39 2//2 22//22
f 39//39 22//22 40//40
f 40//40 22//22 21//21
f 40//40 21//21 41//41
f 41//41 21//21 20//20
f 41//41 20//20 42//42
f 42//42 20//20 16//16
f 42//42 16//16 43//43
f 43//43 16//16 15//15
f 43//43 15//15 44//44
f 44//44 15//15 19//19
f 44//44 19//19 45//45
f 45//45 19//19 18//18
f 45//45 18//18 46//46
f 46//46 18//18 47//47
f 47//47 18//18 48//48
f 48//48 18//18 17//17
f 46//46 49//49 45//45
f 45//45 49//49 50//50
f 45//45 50//50 44//44
f 44//44 50//50 51//51
f 44//44 51//51 43//43
f 43//43 51//51 52//52
f 43//43 52//52 42//42
f 42//42 52//52 53//53
f 42//42 53//53 41//41
f 41//41 53//53 54//54
f 41//41 54//54 40//40
f 40//40 54//54 55//55
f 40//40 55//55 39//39
f 39//39 55//55 56//56
f 39//39 56//56 4//4
f 4//4 56//56 7//7
f 7//7 56//56 57//57
f 7//7 57//57 10//10
f 10//10 57//57 38//38
f 10//10 38//38 12//12
f 50//50 58//58 51//51
f 51//51 58//58 59//59
f 51//51 59//59 60//60
f 31//31 61//61 60//60
f 60//60 61//61 52//52
f 60//60 52//52 51//51
f 31//31 32//32 61//61
f 61//61 32//32 62//62
f 61//61 62//62 53//53
f 53//53 62//62 54//54
f 32//32 33//33 62//62
f 62//62 33//33 34//34
f 62//62 34//34 63//63
f 63//63 34//34 35//35
f 63//63 35//35 64//64
f 64//64 35//35 36//36
f 64//64 36//36 37//37
f 64//64 37//37 57//57
f 57//57 37//37 38//38
f 64//64 57//57 56//56
f 64//64 56//56 55//55
f 63//63 64//64 55//55
f 63//63 55//55 54//54
f 62//62 63//63 54//54
f 61//61 53//53 52//52
f 48//48 17//17 65//65
f 65//65 17//17 14//14
f 65//65 14//14 23//23
f 23//23 14//14 13//13
f 23//23 24//24 65//65
f 65//65 24//24 66//66
f 65//65 66//66 47//47
f 47//47 66//66 46//46
f 46//46 66//66 67//67
f 46//46 67//67 49//49
f 49//49 67//67 26//26
f 49//49 26//26 68//68
f 68//68 26//26 27//27
f 68//68 27//27 50//50
f 50//50 27//27 58//58
f 58//58 27//27 28//28
f 58//58 28//28 59//59
f 59//59 28//28 29//29
f 59//59 29//29 60//60
f 60//60 29//29 30//30
f 60//60 30//30 31//31
f 24//24 25//25 66//66
f 66//66 25//25 67//67
f 25//25 26//26 67//67
f 50//50 49//49 68//68
f 47//47 48//48 65//65
# 132 faces, 0 coords texture

# End of File
