####
#
# OBJ File Generated by Meshlab
#
####
# Object component_4.obj
#
# Vertices: 91
# Faces: 178
#
####
vn 1.699806 -1.565490 1.653019
v 8.445500 -6.173031 1.905000
vn 1.409936 1.562519 1.462332
v 8.445500 -9.519597 1.905000
vn 0.229010 -3.133100 3.123106
v 8.785571 -6.145006 1.905000
vn 0.173383 -3.136692 3.124783
v 9.140883 -6.122348 1.905000
vn -0.315606 3.125585 3.115205
v 9.999784 -9.365876 1.905000
vn 0.122351 -3.139115 3.126175
v 9.510920 -6.105038 1.905000
vn 0.075264 -3.140610 3.127330
v 9.895164 -6.093058 1.905000
vn 0.031569 -3.141364 3.128306
v 10.293099 -6.086389 1.905000
vn -0.009216 -3.141518 3.129144
v 10.704210 -6.085014 1.905000
vn -1.726686 1.563027 1.665039
v 11.563890 -9.204321 1.905000
vn -0.047494 -3.141179 3.129827
v 11.127979 -6.088916 1.905000
vn -1.603797 -1.570450 1.591807
v 11.563890 -6.098076 1.905000
vn 0.779722 -0.873918 -1.376954
v 8.445500 -6.173034 16.957775
vn 1.687449 0.483764 -2.742368
v 8.445500 -7.100661 16.805298
vn 2.821143 3.083160 -0.510699
v 8.445500 -8.531379 13.898512
vn 2.820513 3.088990 -0.473750
v 8.445500 -8.677270 12.983419
vn 1.087708 1.345217 -1.665016
v 8.445500 -8.024469 16.631565
vn 2.824403 3.069673 -0.588132
v 8.445500 -8.204958 15.722694
vn 2.822709 3.076519 -0.550207
v 8.445500 -8.373934 14.811640
vn 2.820847 3.095020 -0.432872
v 8.445500 -8.811589 12.066473
vn 2.820583 3.100276 -0.393213
v 8.445500 -8.934315 11.147781
vn 2.820577 3.104776 -0.355933
v 8.445500 -9.045424 10.227498
vn 2.821607 3.109181 -0.316219
v 8.445500 -9.144871 9.305998
vn 2.821868 3.113017 -0.276230
v 8.445500 -9.232643 8.383433
vn 2.821420 3.116260 -0.236227
v 8.445500 -9.308734 7.459915
vn 2.820796 3.118917 -0.197026
v 8.445500 -9.373137 6.535555
vn 2.820939 3.121105 -0.158944
v 8.445500 -9.425844 5.610462
vn 2.821753 3.122971 -0.118955
v 8.445500 -9.466851 4.684750
vn 2.821833 3.124251 -0.078800
v 8.445500 -9.496150 3.758528
vn 2.820834 3.124903 -0.038435
v 8.445500 -9.513734 2.831908
vn -1.975376 3.586375 -3.172593
v 11.208004 -8.052189 15.028875
vn -2.929278 2.325930 -1.581766
v 11.563890 -8.055292 14.802380
vn -0.630782 6.156503 -1.084638
v 9.999734 -8.254618 14.607313
vn -3.455388 3.082613 -0.518129
v 11.563890 -8.194105 14.004051
vn -0.630863 6.167830 -1.017687
v 9.999734 -8.369378 13.938623
vn -3.453642 3.088283 -0.484341
v 11.563890 -8.324038 13.204262
vn -0.631889 6.183836 -0.914050
v 9.999734 -8.580308 12.597878
vn -3.453814 3.093654 -0.448605
v 11.563890 -8.445079 12.403090
vn -3.453303 3.098138 -0.416910
v 11.563890 -8.557217 11.600605
vn -0.631121 6.199503 -0.801704
v 9.999734 -8.766347 11.253214
vn -3.454573 3.102698 -0.380468
v 11.563890 -8.660439 10.796885
vn -0.631231 6.211830 -0.699929
v 9.999734 -8.907008 10.088373
vn -3.454238 3.106767 -0.345946
v 11.563890 -8.754739 9.992000
vn -3.454180 3.110270 -0.312962
v 11.563890 -8.840100 9.186028
vn -0.631979 6.222180 -0.600325
v 9.999734 -9.028947 8.921576
vn -3.454664 3.113615 -0.277190
v 11.563890 -8.916501 8.379178
vn -0.632194 6.231087 -0.499149
v 9.999734 -9.132126 7.753273
vn -3.453839 3.116657 -0.241612
v 11.563890 -8.983928 7.571615
vn -3.453820 3.118989 -0.209401
v 11.563890 -9.042377 6.763414
vn -0.631317 6.238299 -0.400308
v 9.999734 -9.216524 6.583917
vn -3.454678 3.121102 -0.173632
v 11.563890 -9.091845 5.954650
vn -0.631400 6.243920 -0.300076
v 9.999734 -9.282133 5.413960
vn -3.454123 3.122943 -0.137785
v 11.563890 -9.132325 5.145397
vn -0.632346 6.247824 -0.200340
v 9.999734 -9.328961 4.243855
vn -3.454183 3.124216 -0.104827
v 11.563890 -9.163817 4.335731
vn -3.454610 3.125153 -0.069892
v 11.563890 -9.186316 3.525726
vn -0.631431 6.250344 -0.098313
v 9.999734 -9.357031 3.074052
vn -3.454012 3.125812 -0.033664
v 11.563890 -9.199820 2.715457
vn -0.628248 6.146447 -1.141749
v 9.999734 -8.133842 15.273912
vn -1.851098 3.602552 -3.271044
v 9.689558 -8.036266 15.948999
vn -1.810488 3.601413 -3.302663
v 9.285226 -8.032092 16.178570
vn -1.527375 3.669163 -2.889867
v 8.870606 -8.028113 16.406359
vn -1.887628 3.600746 -3.249149
v 10.083803 -8.040501 15.718445
vn -1.924356 3.597725 -3.225758
v 10.468160 -8.044657 15.487707
vn -1.950925 3.596592 -3.196458
v 10.842827 -8.048598 15.257584
vn -1.635296 -2.700991 -2.639226
v 10.787206 -6.085364 15.648201
vn -2.316912 -1.893450 -1.404540
v 11.563890 -6.098078 15.162346
vn -3.264716 0.890611 -5.293633
v 10.809609 -6.525806 15.563198
vn -4.775321 0.484272 -2.639213
v 11.563890 -7.078963 14.994808
vn -3.261889 0.958501 -5.283477
v 10.809609 -7.077171 15.467066
vn -3.261693 1.028104 -5.270562
v 10.809609 -7.626426 15.363289
vn -3.200830 1.037644 -5.305906
v 10.427062 -7.670584 15.588284
vn -3.139803 1.045084 -5.340745
v 10.042186 -7.713944 15.809214
vn -3.072746 1.051349 -5.378369
v 9.651766 -7.756735 16.027241
vn -3.001022 1.056806 -5.417651
v 9.255637 -7.798883 16.241995
vn -2.919655 1.060044 -5.461228
v 8.853640 -7.840317 16.453110
vn -2.919878 0.998547 -5.472574
v 8.853640 -7.275658 16.559797
vn -2.918747 0.913971 -5.487920
v 8.853640 -6.708829 16.658625
vn -1.221173 -2.681314 -2.728133
v 8.839950 -6.141037 16.756374
vn -1.320284 -2.689511 -2.711306
v 9.234497 -6.117227 16.546696
vn -3.001194 0.909195 -5.444192
v 9.255637 -6.673375 16.446424
vn -3.001381 0.986409 -5.430633
v 9.255637 -7.237208 16.348120
vn -1.409970 -2.695038 -2.694436
v 9.627370 -6.100659 16.330126
vn -3.072585 0.903825 -5.405166
v 9.651766 -6.637310 16.230566
vn -3.072866 0.979361 -5.391821
v 9.651766 -7.198095 16.132792
vn -1.491136 -2.698624 -2.677507
v 10.016794 -6.090395 16.108046
vn -3.139712 0.899004 -5.367308
v 10.042186 -6.600695 16.011417
vn -3.139949 0.972550 -5.354304
v 10.042186 -7.158387 15.914183
vn -1.563472 -2.702081 -2.661065
v 10.401577 -6.085506 15.881536
vn -3.200802 0.894763 -5.331880
v 10.427062 -6.563591 15.789351
vn -3.201189 0.966161 -5.319129
v 10.427062 -7.118149 15.692661
# 91 vertices, 0 vertices normals

f 1//1 2//2 3//3
f 3//3 2//2 4//4
f 4//4 2//2 5//5
f 4//4 5//5 6//6
f 6//6 5//5 7//7
f 7//7 5//5 8//8
f 8//8 5//5 9//9
f 9//9 5//5 10//10
f 9//9 10//10 11//11
f 11//11 10//10 12//12
f 13//13 14//14 1//1
f 1//1 14//14 15//15
f 1//1 15//15 16//16
f 17//17 18//18 14//14
f 14//14 18//18 19//19
f 14//14 19//19 15//15
f 16//16 20//20 1//1
f 1//1 20//20 21//21
f 1//1 21//21 22//22
f 22//22 23//23 1//1
f 1//1 23//23 24//24
f 1//1 24//24 25//25
f 25//25 26//26 1//1
f 1//1 26//26 27//27
f 1//1 27//27 28//28
f 28//28 29//29 1//1
f 1//1 29//29 30//30
f 1//1 30//30 2//2
f 31//31 32//32 33//33
f 33//33 32//32 34//34
f 33//33 34//34 35//35
f 35//35 34//34 36//36
f 35//35 36//36 37//37
f 37//37 36//36 38//38
f 37//37 38//38 39//39
f 37//37 39//39 40//40
f 40//40 39//39 41//41
f 40//40 41//41 42//42
f 42//42 41//41 43//43
f 42//42 43//43 44//44
f 42//42 44//44 45//45
f 45//45 44//44 46//46
f 45//45 46//46 47//47
f 47//47 46//46 48//48
f 47//47 48//48 49//49
f 47//47 49//49 50//50
f 50//50 49//49 51//51
f 50//50 51//51 52//52
f 52//52 51//51 53//53
f 52//52 53//53 54//54
f 54//54 53//53 55//55
f 54//54 55//55 56//56
f 54//54 56//56 57//57
f 57//57 56//56 58//58
f 57//57 58//58 5//5
f 5//5 58//58 10//10
f 2//2 30//30 5//5
f 5//5 30//30 57//57
f 30//30 29//29 57//57
f 57//57 29//29 54//54
f 29//29 28//28 54//54
f 54//54 28//28 52//52
f 28//28 27//27 52//52
f 52//52 27//27 50//50
f 27//27 26//26 50//50
f 50//50 26//26 25//25
f 50//50 25//25 47//47
f 47//47 25//25 24//24
f 47//47 24//24 45//45
f 45//45 24//24 23//23
f 45//45 23//23 42//42
f 42//42 23//23 22//22
f 42//42 22//22 21//21
f 42//42 21//21 40//40
f 40//40 21//21 20//20
f 40//40 20//20 37//37
f 37//37 20//20 16//16
f 37//37 16//16 35//35
f 35//35 16//16 15//15
f 35//35 15//15 33//33
f 33//33 15//15 19//19
f 33//33 19//19 59//59
f 59//59 19//19 18//18
f 59//59 18//18 60//60
f 60//60 18//18 61//61
f 61//61 18//18 17//17
f 61//61 17//17 62//62
f 60//60 63//63 59//59
f 59//59 63//63 64//64
f 59//59 64//64 65//65
f 65//65 31//31 59//59
f 59//59 31//31 33//33
f 66//66 67//67 68//68
f 68//68 67//67 69//69
f 68//68 69//69 70//70
f 70//70 69//69 71//71
f 70//70 71//71 72//72
f 72//72 71//71 64//64
f 72//72 64//64 63//63
f 32//32 31//31 69//69
f 69//69 31//31 71//71
f 31//31 65//65 71//71
f 71//71 65//65 64//64
f 72//72 63//63 73//73
f 73//73 63//63 60//60
f 73//73 60//60 74//74
f 74//74 60//60 61//61
f 74//74 61//61 75//75
f 75//75 61//61 62//62
f 75//75 62//62 76//76
f 76//76 62//62 17//17
f 76//76 17//17 77//77
f 77//77 17//17 14//14
f 77//77 14//14 78//78
f 78//78 14//14 13//13
f 78//78 13//13 79//79
f 79//79 80//80 78//78
f 78//78 80//80 81//81
f 78//78 81//81 77//77
f 77//77 81//81 82//82
f 77//77 82//82 76//76
f 76//76 82//82 75//75
f 80//80 83//83 81//81
f 81//81 83//83 84//84
f 81//81 84//84 82//82
f 82//82 84//84 85//85
f 82//82 85//85 75//75
f 75//75 85//85 74//74
f 83//83 86//86 84//84
f 84//84 86//86 87//87
f 84//84 87//87 85//85
f 85//85 87//87 88//88
f 85//85 88//88 74//74
f 74//74 88//88 73//73
f 86//86 89//89 87//87
f 87//87 89//89 90//90
f 87//87 90//90 88//88
f 88//88 90//90 91//91
f 88//88 91//91 73//73
f 73//73 91//91 72//72
f 89//89 66//66 90//90
f 90//90 66//66 68//68
f 90//90 68//68 91//91
f 91//91 68//68 70//70
f 91//91 70//70 72//72
f 12//12 67//67 11//11
f 11//11 67//67 66//66
f 11//11 66//66 9//9
f 9//9 66//66 89//89
f 9//9 89//89 8//8
f 8//8 89//89 86//86
f 8//8 86//86 7//7
f 7//7 86//86 83//83
f 7//7 83//83 6//6
f 6//6 83//83 80//80
f 6//6 80//80 4//4
f 4//4 80//80 79//79
f 4//4 79//79 3//3
f 3//3 79//79 13//13
f 3//3 13//13 1//1
f 67//67 12//12 69//69
f 69//69 12//12 39//39
f 69//69 39//39 38//38
f 10//10 58//58 12//12
f 12//12 58//58 56//56
f 12//12 56//56 55//55
f 55//55 53//53 12//12
f 12//12 53//53 51//51
f 12//12 51//51 49//49
f 49//49 48//48 12//12
f 12//12 48//48 46//46
f 12//12 46//46 44//44
f 44//44 43//43 12//12
f 12//12 43//43 41//41
f 12//12 41//41 39//39
f 38//38 36//36 69//69
f 69//69 36//36 34//34
f 69//69 34//34 32//32
# 178 faces, 0 coords texture

# End of File
