####
#
# OBJ File Generated by Meshlab
#
####
# Object component_9.obj
#
# Vertices: 68
# Faces: 132
#
####
vn 0.566529 0.781525 -1.159317
v 18.366741 6.665644 10.625862
vn -1.929737 2.575548 -2.677408
v 19.062807 6.750821 10.201748
vn 1.379515 1.559101 1.448740
v 18.366741 6.665646 1.905003
vn -0.390598 3.117206 3.136573
v 19.161989 6.763227 1.905003
vn -1.893702 2.561061 -2.703443
v 19.780077 6.841925 9.779900
vn -0.405841 3.115260 3.137102
v 19.968285 6.866365 1.905003
vn -1.856814 2.550935 -2.728877
v 20.503880 6.936946 9.369946
vn -0.419630 3.113434 3.137589
v 20.784740 6.974664 1.905003
vn -1.832040 2.542936 -2.746895
v 21.232948 7.035533 8.973019
vn -0.432063 3.111735 3.138018
v 21.610474 7.087725 1.905003
vn -1.769477 2.479036 -2.770006
v 21.967888 7.137576 8.589126
vn -0.443224 3.110166 3.138394
v 22.444599 7.205151 1.905003
vn -1.725186 2.464167 -2.792594
v 22.709297 7.242964 8.218278
vn -0.455230 3.108428 3.137547
v 23.286234 7.326542 1.905003
vn -1.671622 2.457663 -2.819317
v 23.457781 7.351584 7.860485
vn -0.709548 0.008471 -0.374836
v 24.213940 7.463328 7.515757
vn -0.869435 -0.000503 -0.208638
v 24.393608 7.490157 6.827041
vn -0.870577 -0.002314 -0.179969
v 24.550289 7.513635 6.133440
vn -0.434319 -0.003960 0.273071
v 24.989122 7.579897 1.905003
vn -0.872668 -0.004195 -0.150716
v 24.683464 7.533652 5.436255
vn -0.874341 -0.005854 -0.119670
v 24.792917 7.550153 4.735730
vn -0.876420 -0.007117 -0.090655
v 24.878428 7.563084 4.032102
vn -0.878295 -0.008087 -0.060962
v 24.939779 7.572388 3.325611
vn -0.879096 -0.008981 -0.029081
v 24.976749 7.578011 2.616498
vn 1.565934 -0.570652 -2.657239
v 18.366743 7.301278 10.495518
vn -3.081202 -1.170550 -5.349062
v 19.070114 7.328828 10.076732
vn -2.981167 -1.191078 -5.400966
v 19.780256 7.245408 9.694597
vn -1.880718 -3.732117 -3.025811
v 19.686029 7.855149 9.607065
vn -1.859512 -3.737361 -3.057475
v 20.377928 7.806599 9.240469
vn 0.963865 -1.356239 -1.496466
v 18.366745 7.934355 10.353337
vn -1.921432 -3.724472 -2.997526
v 19.016138 7.897637 9.978357
vn -2.880171 -1.209580 -5.451417
v 20.497736 7.164670 9.324759
vn -1.792168 -3.752993 -3.031855
v 21.093332 7.751695 8.879580
vn -2.819790 -1.192756 -5.486478
v 21.223103 7.086666 8.967436
vn -1.750258 -3.756315 -3.055554
v 21.833750 7.690145 8.525404
vn -1.717161 -3.765730 -3.064561
v 22.213806 7.656786 8.351151
vn -1.694877 -3.771419 -3.060600
v 22.600681 7.621656 8.178953
vn -1.654374 -3.788430 -3.051102
v 22.994560 7.584718 8.008940
vn -1.627703 -3.790168 -3.059520
v 23.395634 7.545936 7.841236
vn 2.748230 -3.100609 -0.317608
v 18.366745 8.050519 9.301329
vn -0.794814 -6.196420 -0.665994
v 20.006512 7.851618 9.279525
vn -0.775814 -6.210779 -0.547349
v 20.006512 7.952035 8.228971
vn -0.802605 -6.207415 -0.547229
v 21.659224 7.743067 8.209423
vn -0.776258 -6.218049 -0.456610
v 20.006512 8.037055 7.176856
vn -0.801906 -6.214858 -0.456175
v 21.659224 7.827817 7.160458
vn -0.776257 -6.224076 -0.365386
v 20.006512 8.106645 6.123508
vn -0.802026 -6.220857 -0.365100
v 21.659224 7.897195 6.110078
vn -0.776257 -6.228764 -0.274086
v 20.006512 8.160772 5.069443
vn -0.802026 -6.225541 -0.273849
v 21.659224 7.951147 5.059100
vn -0.776256 -6.232113 -0.182742
v 20.006512 8.199433 4.014864
vn -0.802023 -6.228887 -0.182570
v 21.659224 7.989674 4.007764
vn -0.775994 -6.234184 -0.085342
v 20.006512 8.222630 2.959979
vn -0.801716 -6.230959 -0.086498
v 21.659224 8.012783 2.956312
vn -0.400428 -3.115896 3.120698
v 21.661407 8.018502 1.905003
vn -0.410199 -3.114619 3.119797
v 23.321089 7.802542 1.905003
vn 2.746642 -3.104553 -0.273843
v 18.366745 8.151252 8.247662
vn 2.746638 -3.108257 -0.228295
v 18.366747 8.236531 7.192541
vn 2.746641 -3.111268 -0.182696
v 18.366747 8.306323 6.136368
vn 2.746641 -3.113612 -0.137059
v 18.366747 8.360619 5.079358
vn 2.746638 -3.115287 -0.091388
v 18.366747 8.399409 4.021680
vn 2.745373 -3.116146 -0.044565
v 18.366747 8.422688 2.963505
vn 1.371338 -1.558061 1.436683
v 18.366747 8.430449 1.905003
vn -0.388492 -3.117404 3.120464
v 20.009912 8.227827 1.905003
vn -0.821219 -6.228427 -0.087770
v 23.320219 7.796187 2.952550
vn -0.821578 -6.226356 -0.182393
v 23.320219 7.773167 4.000473
vn -0.821033 -6.223099 -0.273388
v 23.320219 7.734776 5.048468
vn -0.820811 -6.218447 -0.364718
v 23.320219 7.681005 6.096259
vn -0.819996 -6.212646 -0.454571
v 23.320219 7.611845 7.143571
# 68 vertices, 0 vertices normals

f 1//1 2//2 3//3
f 3//3 2//2 4//4
f 4//4 2//2 5//5
f 4//4 5//5 6//6
f 6//6 5//5 7//7
f 6//6 7//7 8//8
f 8//8 7//7 9//9
f 8//8 9//9 10//10
f 10//10 9//9 11//11
f 10//10 11//11 12//12
f 12//12 11//11 13//13
f 12//12 13//13 14//14
f 14//14 13//13 15//15
f 14//14 15//15 16//16
f 16//16 17//17 14//14
f 14//14 17//17 18//18
f 14//14 18//18 19//19
f 19//19 18//18 20//20
f 19//19 20//20 21//21
f 21//21 22//22 19//19
f 19//19 22//22 23//23
f 19//19 23//23 24//24
f 1//1 25//25 2//2
f 2//2 25//25 26//26
f 2//2 26//26 27//27
f 27//27 26//26 28//28
f 27//27 28//28 29//29
f 25//25 30//30 26//26
f 26//26 30//30 31//31
f 26//26 31//31 28//28
f 27//27 29//29 32//32
f 32//32 29//29 33//33
f 32//32 33//33 34//34
f 34//34 33//33 35//35
f 34//34 35//35 9//9
f 9//9 35//35 11//11
f 11//11 35//35 36//36
f 11//11 36//36 37//37
f 11//11 37//37 13//13
f 13//13 37//37 38//38
f 13//13 38//38 15//15
f 15//15 38//38 39//39
f 15//15 39//39 16//16
f 9//9 7//7 34//34
f 34//34 7//7 32//32
f 7//7 5//5 32//32
f 32//32 5//5 27//27
f 5//5 2//2 27//27
f 30//30 40//40 31//31
f 31//31 40//40 28//28
f 28//28 40//40 41//41
f 28//28 41//41 29//29
f 29//29 41//41 33//33
f 33//33 41//41 42//42
f 33//33 42//42 43//43
f 43//43 42//42 44//44
f 43//43 44//44 45//45
f 45//45 44//44 46//46
f 45//45 46//46 47//47
f 47//47 46//46 48//48
f 47//47 48//48 49//49
f 49//49 48//48 50//50
f 49//49 50//50 51//51
f 51//51 50//50 52//52
f 51//51 52//52 53//53
f 53//53 52//52 54//54
f 53//53 54//54 55//55
f 40//40 56//56 41//41
f 41//41 56//56 42//42
f 56//56 57//57 42//42
f 42//42 57//57 44//44
f 57//57 58//58 44//44
f 44//44 58//58 46//46
f 58//58 59//59 46//46
f 46//46 59//59 48//48
f 59//59 60//60 48//48
f 48//48 60//60 50//50
f 60//60 61//61 50//50
f 50//50 61//61 52//52
f 62//62 63//63 61//61
f 61//61 63//63 52//52
f 63//63 54//54 52//52
f 19//19 24//24 55//55
f 55//55 24//24 64//64
f 55//55 64//64 53//53
f 53//53 64//64 65//65
f 53//53 65//65 51//51
f 51//51 65//65 66//66
f 51//51 66//66 49//49
f 49//49 66//66 67//67
f 49//49 67//67 47//47
f 47//47 67//67 68//68
f 47//47 68//68 45//45
f 45//45 68//68 38//38
f 45//45 38//38 43//43
f 43//43 38//38 37//37
f 43//43 37//37 36//36
f 24//24 23//23 64//64
f 64//64 23//23 65//65
f 23//23 22//22 65//65
f 65//65 22//22 21//21
f 65//65 21//21 66//66
f 66//66 21//21 20//20
f 66//66 20//20 67//67
f 67//67 20//20 18//18
f 67//67 18//18 17//17
f 67//67 17//17 68//68
f 68//68 17//17 16//16
f 68//68 16//16 39//39
f 39//39 38//38 68//68
f 36//36 35//35 43//43
f 43//43 35//35 33//33
f 62//62 61//61 3//3
f 3//3 61//61 60//60
f 3//3 60//60 59//59
f 59//59 58//58 3//3
f 3//3 58//58 57//57
f 3//3 57//57 25//25
f 25//25 57//57 56//56
f 25//25 56//56 40//40
f 40//40 30//30 25//25
f 25//25 1//1 3//3
f 3//3 4//4 62//62
f 62//62 4//4 63//63
f 63//63 4//4 6//6
f 63//63 6//6 8//8
f 63//63 8//8 54//54
f 54//54 8//8 10//10
f 54//54 10//10 12//12
f 54//54 12//12 55//55
f 55//55 12//12 14//14
f 55//55 14//14 19//19
# 132 faces, 0 coords texture

# End of File
