####
#
# OBJ File Generated by Meshlab
#
####
# Object component_10.obj
#
# Vertices: 62
# Faces: 120
#
####
vn 1.456394 1.566625 1.497906
v 13.468889 6.190306 1.905003
vn -0.244306 3.132040 3.131722
v 14.191225 6.243057 1.905003
vn 1.390860 -1.560445 1.451333
v 13.468889 8.998841 1.905003
vn -0.356052 -3.121268 3.119185
v 14.961380 8.831544 1.905003
vn -0.273842 3.129603 3.132659
v 14.931458 6.304485 1.905003
vn -0.300572 3.127155 3.133483
v 15.688620 6.374157 1.905003
vn -1.727429 1.562972 1.670680
v 16.461740 6.451635 1.905003
vn -1.744453 -1.561135 1.674264
v 16.461746 8.658056 1.905003
vn 2.783797 -3.120991 -0.029422
v 13.468889 8.995172 2.635745
vn 2.785386 -3.120658 -0.063870
v 13.468889 8.984163 3.366338
vn 2.785634 -3.119949 -0.093102
v 13.468889 8.965820 4.096727
vn 2.785790 -3.118842 -0.125331
v 13.468889 8.940145 4.826859
vn 2.785567 -3.117345 -0.157678
v 13.468889 8.907140 5.556677
vn 2.785344 -3.115715 -0.186747
v 13.468889 8.866807 6.286126
vn 2.785669 -3.113593 -0.219850
v 13.468889 8.819151 7.015150
vn 2.785996 -3.111309 -0.250526
v 13.468889 8.764174 7.743695
vn 2.785688 -3.108664 -0.281096
v 13.468889 8.701878 8.471706
vn 2.785375 -3.105464 -0.314111
v 13.468889 8.632266 9.199127
vn 2.785632 -3.102413 -0.343198
v 13.468889 8.555350 9.925825
vn 1.389073 -0.490839 -2.560621
v 13.468889 7.128220 13.735859
vn 2.785779 -3.098721 -0.375241
v 13.468889 8.471148 10.651638
vn 2.787217 -3.094975 -0.406217
v 13.468889 8.379668 11.376513
vn 2.785974 -3.090393 -0.438699
v 13.468889 8.280920 12.100393
vn 2.785678 -3.086342 -0.466151
v 13.468889 8.174910 12.823225
vn 0.894145 -1.248771 -1.524107
v 13.468889 8.061646 13.544954
vn 0.545089 0.762325 -1.159656
v 13.468889 6.190304 13.903240
vn -2.551891 1.873934 -1.450127
v 16.461740 6.451633 11.858303
vn -2.012093 2.645855 -2.578830
v 15.687925 6.374015 12.382069
vn -1.996446 2.662371 -2.572556
v 14.934181 6.304585 12.898567
vn -1.965415 2.667182 -2.572649
v 14.196005 6.243347 13.406168
vn -3.430564 -0.981370 -5.171629
v 15.712626 6.499349 12.341856
vn -3.433146 -1.017565 -5.162904
v 15.712626 7.048708 12.237864
vn -4.835028 -0.532735 -2.591829
v 16.461744 7.234892 11.706362
vn -3.434932 -1.088496 -5.147263
v 15.712626 7.595585 12.125624
vn -2.964512 -2.374657 -1.483812
v 16.461746 8.014579 11.537071
vn -2.083855 -3.652663 -3.000276
v 15.687609 8.035319 12.047169
vn -3.465111 -1.074338 -5.130006
v 14.966261 7.698054 12.606171
vn -2.085729 -3.633157 -3.037046
v 14.934753 8.049387 12.552643
vn -3.474709 -1.060382 -5.126433
v 14.219210 7.801382 13.090736
vn -2.086405 -3.620443 -3.026686
v 14.199400 8.057816 13.050768
vn -2.076839 -3.610432 -3.044823
v 13.837078 8.060239 13.296242
vn -3.474205 -1.015539 -5.135707
v 14.219210 7.239686 13.206017
vn -3.470932 -0.947528 -5.150985
v 14.219210 6.675443 13.312828
vn -3.462604 -0.960425 -5.154243
v 14.966261 6.587029 12.825319
vn -3.463825 -1.014476 -5.142955
v 14.966261 7.143799 12.719923
vn -0.713129 -6.241508 -0.096120
v 14.959875 8.824464 3.068129
vn -3.490886 -3.121611 -0.051940
v 16.461746 8.647985 3.112617
vn -0.713280 -6.239084 -0.199473
v 14.959875 8.796474 4.232005
vn -3.491265 -3.120268 -0.104055
v 16.461746 8.617782 4.319777
vn -0.712939 -6.235087 -0.300288
v 14.959875 8.749779 5.396184
vn -3.491597 -3.118060 -0.156126
v 16.461746 8.567453 5.526231
vn -0.712715 -6.229526 -0.399788
v 14.959875 8.684354 6.560214
vn -3.491871 -3.114990 -0.208151
v 16.461746 8.497010 6.731728
vn -0.712539 -6.222289 -0.500250
v 14.959875 8.599921 7.727050
vn -3.492137 -3.111056 -0.260070
v 16.461746 8.406465 7.936008
vn -0.712279 -6.213464 -0.600320
v 14.959875 8.497308 8.886021
vn -3.492353 -3.106260 -0.311942
v 16.461746 8.295854 9.138560
vn -0.712034 -6.203106 -0.699546
v 14.959875 8.375714 10.046894
vn -3.492538 -3.100605 -0.363703
v 16.461746 8.165215 10.338998
vn -0.712108 -6.192413 -0.789253
v 14.959875 8.235451 11.205811
vn -0.710882 -6.184602 -0.849841
v 14.959875 8.158141 11.785788
vn -0.722566 -6.170384 -0.935987
v 14.959875 8.076163 12.365103
# 62 vertices, 0 vertices normals

f 1//1 2//2 3//3
f 3//3 2//2 4//4
f 4//4 2//2 5//5
f 4//4 5//5 6//6
f 7//7 8//8 6//6
f 6//6 8//8 4//4
f 3//3 9//9 1//1
f 1//1 9//9 10//10
f 1//1 10//10 11//11
f 11//11 12//12 1//1
f 1//1 12//12 13//13
f 1//1 13//13 14//14
f 14//14 15//15 1//1
f 1//1 15//15 16//16
f 1//1 16//16 17//17
f 17//17 18//18 1//1
f 1//1 18//18 19//19
f 1//1 19//19 20//20
f 20//20 19//19 21//21
f 20//20 21//21 22//22
f 22//22 23//23 20//20
f 20//20 23//23 24//24
f 20//20 24//24 25//25
f 20//20 26//26 1//1
f 7//7 6//6 27//27
f 27//27 6//6 28//28
f 28//28 6//6 5//5
f 28//28 5//5 29//29
f 29//29 5//5 2//2
f 29//29 2//2 30//30
f 30//30 2//2 1//1
f 30//30 1//1 26//26
f 28//28 31//31 27//27
f 27//27 31//31 32//32
f 27//27 32//32 33//33
f 33//33 32//32 34//34
f 33//33 34//34 35//35
f 35//35 34//34 36//36
f 36//36 34//34 37//37
f 36//36 37//37 38//38
f 38//38 37//37 39//39
f 38//38 39//39 40//40
f 40//40 39//39 41//41
f 41//41 39//39 25//25
f 25//25 39//39 42//42
f 25//25 42//42 20//20
f 20//20 42//42 43//43
f 20//20 43//43 26//26
f 26//26 43//43 30//30
f 30//30 43//43 29//29
f 29//29 43//43 44//44
f 29//29 44//44 28//28
f 28//28 44//44 31//31
f 44//44 43//43 45//45
f 45//45 43//43 42//42
f 45//45 42//42 37//37
f 37//37 42//42 39//39
f 31//31 44//44 32//32
f 32//32 44//44 45//45
f 32//32 45//45 34//34
f 34//34 45//45 37//37
f 4//4 8//8 46//46
f 46//46 8//8 47//47
f 46//46 47//47 48//48
f 48//48 47//47 49//49
f 48//48 49//49 50//50
f 50//50 49//49 51//51
f 50//50 51//51 52//52
f 52//52 51//51 53//53
f 52//52 53//53 54//54
f 54//54 53//53 55//55
f 54//54 55//55 56//56
f 56//56 55//55 57//57
f 56//56 57//57 58//58
f 58//58 57//57 59//59
f 58//58 59//59 60//60
f 60//60 59//59 35//35
f 60//60 35//35 61//61
f 61//61 35//35 36//36
f 61//61 36//36 62//62
f 62//62 36//36 38//38
f 62//62 38//38 23//23
f 23//23 38//38 24//24
f 24//24 38//38 40//40
f 24//24 40//40 41//41
f 41//41 25//25 24//24
f 62//62 23//23 61//61
f 61//61 23//23 22//22
f 61//61 22//22 60//60
f 60//60 22//22 21//21
f 60//60 21//21 58//58
f 58//58 21//21 19//19
f 58//58 19//19 18//18
f 58//58 18//18 56//56
f 56//56 18//18 17//17
f 56//56 17//17 54//54
f 54//54 17//17 16//16
f 54//54 16//16 15//15
f 54//54 15//15 52//52
f 52//52 15//15 14//14
f 52//52 14//14 50//50
f 50//50 14//14 13//13
f 50//50 13//13 12//12
f 50//50 12//12 48//48
f 48//48 12//12 11//11
f 48//48 11//11 10//10
f 48//48 10//10 46//46
f 46//46 10//10 9//9
f 46//46 9//9 4//4
f 4//4 9//9 3//3
f 35//35 59//59 33//33
f 33//33 59//59 57//57
f 33//33 57//57 55//55
f 33//33 55//55 7//7
f 7//7 55//55 53//53
f 7//7 53//53 51//51
f 51//51 49//49 7//7
f 7//7 49//49 47//47
f 7//7 47//47 8//8
f 7//7 27//27 33//33
# 120 faces, 0 coords texture

# End of File
