v -29.80323028564453 17.178499221801758 9.814953804016113
vn -6.183566093444824 -0.8747730255126953 0.09029100090265274
v -29.80229949951172 17.356807708740234 8.427833557128906
vn -6.249492168426514 -0.23138700425624847 -0.14768800139427185
v -29.76767921447754 17.51711082458496 7.284946918487549
vn -6.193201065063477 0.33942198753356934 -0.5108519792556763
v -29.777620315551758 18.213863372802734 12.7994384765625
vn -6.2233781814575195 -0.37911099195480347 0.3493629992008209
v -29.83152198791504 18.271211624145508 11.637940406799316
vn -6.244335174560547 -0.016573000699281693 0.2393520027399063
v -29.86008644104004 18.269163131713867 10.38525676727295
vn -6.2212090492248535 0.3829079866409302 -0.09427999705076218
v -29.824630737304688 18.264549255371094 9.158919334411621
vn -6.160233020782471 0.7307180166244507 -0.3569349944591522
v -29.814590454101562 17.504932403564453 10.976619720458984
vn -6.190432071685791 -0.8128880262374878 0.3125019967556
f 1//1 6//6 7//7
f 1//1 8//8 6//6
f 1//1 7//7 2//2
f 6//6 8//8 5//5
