v 18.106672286987305 43.89036560058594 30.94102668762207
vn 0.14498800039291382 6.200470924377441 0.2090339958667755
v 18.39318084716797 43.84457015991211 29.99275016784668
vn 0.40990498661994934 5.9037652015686035 -1.2925059795379639
v 17.195714950561523 43.80147171020508 30.427141189575195
vn -1.6332149505615234 5.786898136138916 -0.7308750152587891
v 17.251220703125 43.801029205322266 31.585405349731445
vn -1.3291380405426025 5.914734840393066 0.6835299730300903
f 1//1 2//2 3//3
f 1//1 3//3 4//4
