v -97.29955291748047 4.763718128204346 14.140386581420898
vn -3.016179084777832 -0.45371100306510925 2.6316189765930176
v -97.28646087646484 4.93651008605957 14.140514373779297
vn -2.8548390865325928 0.9798660278320312 2.463718891143799
v -97.24597930908203 5.004061222076416 14.140565872192383
vn -1.9963929653167725 2.145512104034424 2.1781809329986572
v -97.30293273925781 4.801908016204834 4.140411853790283
vn -2.9888150691986084 -0.27000799775123596 -2.470062017440796
v -97.26985168457031 4.97882080078125 4.140542984008789
vn -2.4671790599823 1.5312789678573608 -2.3336410522460938
v -97.29953002929688 4.7861151695251465 -15.85960578918457
vn -3.006037950515747 -0.423132985830307 2.5242860317230225
v -97.28643798828125 4.958907127380371 -15.859476089477539
vn -2.90372896194458 0.8783389925956726 2.5404140949249268
v -97.24595642089844 5.026457786560059 -15.85942554473877
vn -2.1416969299316406 2.1482739448547363 2.6059110164642334
v -97.30290985107422 4.824305057525635 -25.85957908630371
vn -2.9886839389801025 -0.26499301195144653 -2.4701859951019287
v -97.26982879638672 5.001216888427734 -25.859447479248047
vn -2.4673850536346436 1.5278010368347168 -2.326730966567993
v -97.26983642578125 4.710970878601074 -19.517534255981445
vn -3.8181440830230713 1.7623929977416992 0.1014380007982254
v -97.2654037475586 4.6761980056762695 12.662557601928711
vn -5.437215805053711 0.6206200122833252 -0.1967719942331314
v -97.25971984863281 4.687872886657715 -21.231884002685547
vn -5.1157307624816895 0.9708679914474487 0.10785499960184097
f 3//3 12//12 2//2
f 1//1 2//2 12//12
