v 12.456403732299805 3.0710489749908447 7.077517986297607
vn 0.7212070226669312 1.0316799879074097 -6.038649082183838
v 11.84972095489502 3.3407979011535645 7.075561046600342
vn 0.2841840088367462 1.942391037940979 -5.737234115600586
v 11.911273002624512 2.703636884689331 7.032217025756836
vn 0.2957650125026703 0.1684190034866333 -6.267228126525879
v 11.314997673034668 2.9368350505828857 7.020384788513184
vn -0.15710699558258057 0.6060429811477661 -6.1986589431762695
v 10.781414985656738 3.1234500408172607 7.072972774505615
vn -0.4347600042819977 0.8227499723434448 -6.172515869140625
v 10.581143379211426 -0.9080629944801331 7.07664680480957
vn -0.6050840020179749 -0.5908759832382202 -6.185135841369629
v 11.2420015335083 -0.7083539962768555 7.025247097015381
vn -0.24846400320529938 -0.2848060131072998 -6.254012107849121
v 11.494831085205078 -1.293373942375183 7.056646823883057
vn -0.17839699983596802 -1.4407010078430176 -5.9628119468688965
v 11.963292121887207 -1.3825329542160034 7.092495918273926
vn 0.49329400062561035 -1.9161839485168457 -5.7993879318237305
v 11.894347190856934 -0.8644030094146729 7.033257961273193
vn 0.2776849865913391 -0.2878350019454956 -6.255801200866699
v 12.509651184082031 -1.0641649961471558 7.085773944854736
vn 0.7854440212249756 -0.9416710138320923 -6.056654930114746
v 12.67607593536377 0.6678720116615295 7.106529235839844
vn 0.892874002456665 -0.0003929999948013574 -6.2157979011535645
v 12.245080947875977 0.2145249992609024 7.056539058685303
vn 0.5806090235710144 -0.002948000095784664 -6.253355979919434
v 12.394067764282227 1.2552670240402222 7.071294784545898
vn 0.6846799850463867 -0.0036609999369829893 -6.243575096130371
v 12.054156303405762 0.8563119769096375 7.04148006439209
vn 0.44586899876594543 -0.004623000044375658 -6.265021800994873
v 11.952009201049805 1.5061060190200806 7.034916877746582
vn 0.35965099930763245 0.0014890000456944108 -6.27081298828125
v 10.556529998779297 0.16828200221061707 7.075131893157959
vn -0.7131459712982178 3.099999958067201e-05 -6.238699913024902
v 10.487096786499023 0.8140829801559448 7.082910060882568
vn -0.7618700265884399 0.004503999836742878 -6.232868194580078
v 11.050237655639648 0.6432920098304749 7.03376579284668
vn -0.3352780044078827 -0.0027910000644624233 -6.270820140838623
v 11.504358291625977 1.7459269762039185 7.02138614654541
vn -0.0033499998971819878 -0.0048790001310408115 -6.280545234680176
v 11.568865776062012 1.1550869941711426 7.022003173828125
vn 0.04836399853229523 -0.006732000038027763 -6.280310153961182
v 11.053954124450684 1.286694049835205 7.033090114593506
vn -0.368831992149353 0.0027069998905062675 -6.268123149871826
v 10.933423042297363 1.8763090372085571 7.0401740074157715
vn -0.4600059986114502 -0.02181999944150448 -6.261977195739746
v 12.348600387573242 -0.39196398854255676 7.067383766174316
vn 0.6551460027694702 -0.005621999967843294 -6.245903015136719
v 12.73123836517334 2.4651870727539062 7.114235877990723
vn 0.9582939743995667 -0.0016250000335276127 -6.207345008850098
v 12.452802658081055 1.8826329708099365 7.077290058135986
vn 0.7246699929237366 -0.010011999867856503 -6.238265037536621
v 12.308863639831543 2.447774887084961 7.0612688064575195
vn 0.6088430285453796 0.0005799999926239252 -6.251504898071289
v 11.771010398864746 -0.20958399772644043 7.0255842208862305
vn 0.2108210027217865 -0.010805999860167503 -6.27549409866333
v 11.397489547729492 2.330164909362793 7.020656108856201
vn -0.07037200033664703 -0.0056500001810491085 -6.27932596206665
v 11.907443046569824 2.1366939544677734 7.031740188598633
vn 0.31975600123405457 -0.0059529999271035194 -6.272531986236572
v 11.677105903625488 0.47595998644828796 7.022580146789551
vn 0.1276949942111969 -0.002389000030234456 -6.277865886688232
v 10.637286186218262 -0.3600960075855255 7.067049026489258
vn -0.6437190175056458 -0.02142699994146824 -6.246449947357178
v 11.170957565307617 0.03785200044512749 7.028372764587402
vn -0.2540389895439148 -0.0026759998872876167 -6.2745890617370605
v 10.7965669631958 2.4857890605926514 7.048699855804443
vn -0.5558090209960938 0.05640599876642227 -6.252159118652344
v 10.22324275970459 2.0601449012756348 7.119574069976807
vn -0.9530310034751892 -0.022374000400304794 -6.20609712600708
v 10.337226867675781 1.5188510417938232 7.10664701461792
vn -0.841392993927002 0.012606999836862087 -6.224287986755371
f 1//1 3//3 2//2
f 2//2 3//3 4//4
f 9//9 8//8 10//10
f 11//11 9//9 10//10
f 14//14 15//15 16//16
f 17//17 18//18 19//19
f 8//8 7//7 10//10
f 20//20 21//21 22//22
f 36//36 23//23 22//22
f 25//25 26//26 27//27
f 24//24 10//10 28//28
f 29//29 3//3 30//30
f 21//21 20//20 16//16
f 21//21 31//31 19//19
f 32//32 33//33 7//7
f 29//29 23//23 34//34
f 19//19 33//33 17//17
f 26//26 14//14 16//16
f 14//14 12//12 15//15
f 28//28 31//31 13//13
f 15//15 13//13 31//31
f 33//33 31//31 28//28
f 23//23 36//36 35//35
f 13//13 15//15 12//12
f 26//26 16//16 30//30
f 15//15 31//31 21//21
f 29//29 20//20 23//23
f 22//22 23//23 20//20
f 19//19 22//22 21//21
f 18//18 22//22 19//19
f 22//22 18//18 36//36
f 10//10 24//24 11//11
f 1//1 27//27 3//3
f 27//27 1//1 25//25
f 30//30 27//27 26//26
f 27//27 30//30 3//3
f 13//13 24//24 28//28
f 3//3 29//29 4//4
f 29//29 30//30 20//20
f 21//21 16//16 15//15
f 30//30 16//16 20//20
f 31//31 33//33 19//19
f 7//7 28//28 10//10
f 7//7 33//33 28//28
f 6//6 32//32 7//7
f 33//33 32//32 17//17
f 4//4 34//34 5//5
f 34//34 4//4 29//29
f 35//35 34//34 23//23
