v -53.59843063354492 20.379133224487305 44.029296875
vn -5.631196975708008 1.3791849613189697 1.3957680463790894
v -53.65300750732422 19.93398666381836 43.601173400878906
vn -6.034976005554199 -0.5399270057678223 -0.36781999468803406
v -53.59683609008789 20.414541244506836 43.36252975463867
vn -5.94529914855957 1.1291040182113647 -0.8805099725723267
v -53.605247497558594 19.821544647216797 44.170753479003906
vn -5.653103828430176 -0.6908310055732727 1.6009149551391602
f 2//2 1//1 3//3
f 2//2 4//4 1//1
