v -43.74250030517578 24.104631423950195 16.419336318969727
vn -0.09563200175762177 6.185789108276367 -0.932470977306366
v -43.72368621826172 24.151874542236328 18.736326217651367
vn -0.0783270001411438 6.230439186096191 0.6912410259246826
v -43.25745391845703 24.193302154541016 17.63203239440918
vn 0.5188530087471008 6.235448837280273 -0.09658399969339371
v -43.26616287231445 24.17374038696289 18.370960235595703
vn 0.474918007850647 6.230644226074219 0.41010698676109314
v -42.84897994995117 24.131990432739258 17.986629486083984
vn 1.0660170316696167 6.18140983581543 0.12181700021028519
v -43.70498275756836 24.20157814025879 17.993837356567383
vn -0.05496099963784218 6.268834114074707 0.15594400465488434
v -43.20268249511719 24.146282196044922 16.89354133605957
vn 0.5857700109481812 6.193710803985596 -0.6511539816856384
v -42.85422134399414 24.122774124145508 17.327125549316406
vn 1.0709730386734009 6.177122116088867 -0.2929689884185791
v -43.6881217956543 24.187376022338867 17.214092254638672
vn -0.04433099925518036 6.257296085357666 -0.39252400398254395
v -44.159881591796875 24.1643009185791 18.390382766723633
vn -0.6054610013961792 6.215818881988525 0.42667698860168457
v -44.15285110473633 24.185258865356445 17.65492057800293
vn -0.6371700167655945 6.224127769470215 -0.08777099847793579
v -44.184104919433594 24.141799926757812 16.923831939697266
vn -0.6913549900054932 6.180951118469238 -0.6534900069236755
v -42.85514450073242 24.103273391723633 18.5822696685791
vn 1.0335960388183594 6.161261081695557 0.5476490259170532
f 3//3 4//4 5//5
f 4//4 3//3 6//6
f 7//7 3//3 8//8
f 3//3 7//7 9//9
f 10//10 2//2 6//6
f 11//11 6//6 9//9
f 12//12 9//9 1//1
f 5//5 8//8 3//3
f 6//6 2//2 4//4
f 9//9 6//6 3//3
f 6//6 11//11 10//10
f 9//9 12//12 11//11
f 13//13 5//5 4//4
f 1//1 9//9 7//7
