v 17.678741455078125 -0.5896350145339966 -21.602724075317383
vn 0.32661500573158264 2.9310970306396484 -3.105004072189331
v 15.836063385009766 -6.499990940093994 -21.60713768005371
vn 7.999999979801942e-06 0.004689000081270933 -6.283184051513672
v 15.398232460021973 -7.090414047241211 -21.60757827758789
vn -0.02324100024998188 -0.003235999960452318 -6.283092975616455
v 15.129937171936035 -6.423633098602295 -21.60708236694336
vn -0.15241900086402893 0.01718599908053875 -6.279198169708252
v 16.034202575683594 -5.765512943267822 -21.60658836364746
vn 1.1000000085914508e-05 0.004683999810367823 -6.283184051513672
v 16.525287628173828 -6.206303119659424 -21.606916427612305
vn 3.999999989900971e-06 0.004693000111728907 -6.283184051513672
v 14.464797019958496 -3.8461050987243652 -21.54412269592285
vn -0.9653319716453552 -0.012698999606072903 -6.197807788848877
v 17.75128746032715 -7.315876007080078 -21.5631046295166
vn 0.7068629860877991 0.04356599971652031 -6.238033771514893
v 17.050336837768555 -4.416578769683838 -21.605018615722656
vn 0.041391000151634216 0.019137000665068626 -6.282835006713867
v 16.54794692993164 -3.86360502243042 -21.60516929626465
vn 0.0010779999429360032 0.003650000086054206 -6.283184051513672
v 17.206802368164062 -3.7054378986358643 -21.60504913330078
vn 0.07581699639558792 -0.013268000446259975 -6.282218933105469
v 15.971166610717773 -7.192272186279297 -21.60765266418457
vn -9.999999974752427e-07 0.004693999886512756 -6.283184051513672
v 15.113717079162598 -7.598373889923096 -21.604942321777344
vn -0.24022400379180908 -0.010413999669253826 -6.274659156799316
v 14.404853820800781 -7.566795825958252 -21.534160614013672
vn -1.064818024635315 -0.0014909999445080757 -6.186347007751465
v 14.645763397216797 -2.0042779445648193 -21.57811164855957
vn -0.7774180173873901 0.00016599999798927456 -6.21340799331665
v 14.368182182312012 -1.3074090480804443 -21.521638870239258
vn -1.0866049528121948 -0.009077999740839005 -6.18366003036499
v 17.950725555419922 -9.476872444152832 -21.551549911499023
vn 0.8854600191116333 -0.043434999883174896 -6.204105854034424
v 18.10503578186035 -9.880395889282227 -21.519052505493164
vn 1.0676989555358887 0.016215000301599503 -6.185804843902588
v 17.184654235839844 -7.587703227996826 -21.607919692993164
vn 0.17169900238513947 0.08923300355672836 -6.2770490646362305
v 17.66018295288086 -8.107121467590332 -21.60521125793457
vn 0.6375100016593933 0.01945500075817108 -6.217950820922852
v 17.267120361328125 -2.975790023803711 -21.60450553894043
vn 0.08140099793672562 0.021824000403285027 -6.28203821182251
v 17.037111282348633 -2.5129849910736084 -21.60416030883789
vn 0.04975299909710884 0.009744999930262566 -6.282749176025391
v 15.456433296203613 -3.028275966644287 -21.60454750061035
vn -0.05591199919581413 -0.00837200041860342 -6.282597064971924
v 14.691652297973633 -3.2110350131988525 -21.58416175842285
vn -0.7055339813232422 -0.019303999841213226 -6.220574855804443
v 15.424062728881836 -4.299459934234619 -21.60549545288086
vn -0.04121899977326393 0.004896999802440405 -6.282901763916016
v 14.838292121887207 -4.346313953399658 -21.596445083618164
vn -0.5704330205917358 0.04544699937105179 -6.238762855529785
v 16.203161239624023 -2.743644952774048 -21.604333877563477
vn 6.000000212225132e-06 0.004689000081270933 -6.283184051513672
v 16.634502410888672 -3.1524720191955566 -21.604639053344727
vn 6.000000212225132e-06 0.00469199987128377 -6.283184051513672
v 16.520675659179688 -5.442407131195068 -21.606348037719727
vn 0.0008539999835193157 0.005243999883532524 -6.2831830978393555
v 15.893941879272461 -4.948689937591553 -21.605979919433594
vn 7.000000096013537e-06 0.004695000126957893 -6.283184051513672
v 14.751940727233887 -0.5896379947662354 -21.602725982666016
vn -0.3269209861755371 2.880868911743164 -3.1031229496002197
v 15.483640670776367 -0.5896369814872742 -21.602725982666016
vn -9.999999974752427e-07 3.1439321041107178 -3.1392440795898438
v 16.215341567993164 -0.5896360278129578 -21.602725982666016
vn 9.999999974752427e-07 3.143925905227661 -3.1392428874969482
v 16.947040557861328 -0.5896360278129578 -21.602724075317383
vn 9.999999974752427e-07 3.1439359188079834 -3.139246940612793
v 17.678749084472656 -10.589632034301758 -21.61018943786621
vn 0.3174479901790619 -2.840085983276367 -3.1057140827178955
v 15.483649253845215 -10.58963394165039 -21.610191345214844
vn 1.9999999949504854e-06 -3.1392509937286377 -3.1439380645751953
v 14.751949310302734 -10.589634895324707 -21.610191345214844
vn -0.3258010149002075 -2.926453113555908 -3.109442949295044
v 16.215349197387695 -10.58963394165039 -21.610191345214844
vn 4.999999873689376e-06 -3.1392500400543213 -3.1439340114593506
v 16.94704818725586 -10.589632987976074 -21.61018943786621
vn 0.007691999897360802 -3.125399112701416 -3.1438839435577393
v 14.632757186889648 -8.778595924377441 -21.583505630493164
vn -0.7992380261421204 0.022373000159859657 -6.210824012756348
v 14.296021461486816 -9.362918853759766 -21.51236915588379
vn -1.3063080310821533 0.00459099980071187 -6.145888805389404
v 15.087678909301758 -1.2441489696502686 -21.603214263916016
vn -0.26886001229286194 -0.0449879989027977 -6.270514011383057
v 17.749116897583008 -2.4091169834136963 -21.58912467956543
vn 0.7362490296363831 0.001154000055976212 -6.213301181793213
v 17.769643783569336 -5.470767974853516 -21.585344314575195
vn 0.7588480114936829 -0.0010979999788105488 -6.213588237762451
v 17.478670120239258 -8.847649574279785 -21.608299255371094
vn 0.44517800211906433 -0.06844499707221985 -6.249568939208984
v 15.379826545715332 -1.8398840427398682 -21.603260040283203
vn -0.07509499788284302 0.003369000041857362 -6.282200813293457
v 16.446407318115234 -6.805235862731934 -21.60736656188965
vn 0.003640000009909272 0.002814000006765127 -6.283182144165039
v 17.045822143554688 -6.991980075836182 -21.606224060058594
vn 0.13411200046539307 -0.022091999650001526 -6.280333042144775
v 16.48699378967285 -7.605599880218506 -21.60796356201172
vn 0.0017430000007152557 0.006496999878436327 -6.283181190490723
v 17.744367599487305 -6.6524529457092285 -21.587814331054688
vn 0.7204819917678833 -0.08645699918270111 -6.2150959968566895
v 17.16193962097168 -5.822564125061035 -21.606630325317383
vn 0.10125699639320374 0.017595000565052032 -6.2815070152282715
v 16.413867950439453 -4.654496192932129 -21.60576057434082
vn 0.0021150000393390656 0.004970999900251627 -6.2831830978393555
v 17.046171188354492 -5.111594200134277 -21.605817794799805
vn 0.045513998717069626 -0.015444000251591206 -6.282721042633057
v 17.5792236328125 -4.803773880004883 -21.605871200561523
vn 0.47981300950050354 -0.013860000297427177 -6.242345809936523
v 17.976451873779297 -1.1294620037078857 -21.53985023498535
vn 1.28445303440094 -0.0055740000680089 -6.150443077087402
v 17.755773544311523 -4.193655014038086 -21.58904266357422
vn 0.7476310133934021 -0.0028490000404417515 -6.212522983551025
v 15.95337200164795 -3.4077770709991455 -21.604829788208008
vn -0.0005189999938011169 0.004447000101208687 -6.283184051513672
v 15.27269458770752 -3.7191269397735596 -21.604862213134766
vn -0.17189399898052216 0.010060999542474747 -6.278191089630127
v 15.295873641967773 -4.830449104309082 -21.605892181396484
vn -0.0313819982111454 0.023871000856161118 -6.282945156097412
v 15.50767707824707 -5.332065105438232 -21.60626792907715
vn 6.000000212225132e-06 0.00469199987128377 -6.283184051513672
v 15.415596008300781 -5.816580772399902 -21.60662841796875
vn -0.022763999179005623 0.0029810001142323017 -6.283084869384766
v 16.973201751708984 -8.20848274230957 -21.60841178894043
vn 0.010501000098884106 0.005253000184893608 -6.283164024353027
v 16.790082931518555 -8.817288398742676 -21.608867645263672
vn 0.002403999911621213 0.0042039998807013035 -6.2831830978393555
v 17.034631729125977 -9.404459953308105 -21.609111785888672
vn 0.13869300484657288 -0.02807600051164627 -6.279669761657715
v 17.261608123779297 -9.978870391845703 -21.604581832885742
vn 0.25655001401901245 0.0911870002746582 -6.273396015167236
v 15.7410249710083 -7.804031848907471 -21.608112335205078
vn -0.00811500009149313 0.006661000195890665 -6.283167839050293
v 14.762290954589844 -7.025204181671143 -21.60265350341797
vn -0.6341930031776428 -0.04678799957036972 -6.220419883728027
v 14.332389831542969 -2.5680789947509766 -21.51450538635254
vn -1.1292070150375366 -0.0024590000975877047 -6.17795991897583
v 15.860150337219238 -1.2242039442062378 -21.60319709777832
vn -0.0005499999970197678 0.003829000052064657 -6.283184051513672
v 16.553958892822266 -1.1714140176773071 -21.603158950805664
vn 7.999999979801942e-06 0.004687999840825796 -6.283184051513672
v 17.174713134765625 -1.2106139659881592 -21.603187561035156
vn 0.006972000002861023 0.002004999900236726 -6.283175945281982
v 17.66899299621582 -1.5021369457244873 -21.6016788482666
vn 0.631837010383606 -0.01083299983292818 -6.220773220062256
v 17.725059509277344 -3.325450897216797 -21.594921112060547
vn 0.7131509780883789 0.0006409999914467335 -6.213940143585205
v 16.248502731323242 -8.32077693939209 -21.608497619628906
vn 6.000000212225132e-06 0.004693000111728907 -6.283184051513672
v 16.578933715820312 -9.977578163146973 -21.6097354888916
vn 0.01485500019043684 0.004403000231832266 -6.283141136169434
v 15.881643295288086 -10.024883270263672 -21.609769821166992
vn 0.0 0.00469199987128377 -6.283184051513672
v 15.257488250732422 -9.970907211303711 -21.609729766845703
vn -0.017305999994277954 0.012202000245451927 -6.283117771148682
v 14.730549812316895 -9.666107177734375 -21.604955673217773
vn -0.6776670217514038 0.027279000729322433 -6.2142720222473145
v 15.172426223754883 -8.28317642211914 -21.608470916748047
vn -0.1454779952764511 0.004385000094771385 -6.2797417640686035
v 14.65822982788086 -8.053248405456543 -21.584613800048828
vn -0.7628809809684753 0.07161299884319305 -6.215206146240234
v 15.912697792053223 -4.144608020782471 -21.605379104614258
vn -0.00040099999750964344 0.004989000037312508 -6.2831830978393555
v 15.6616792678833 -2.408163070678711 -21.604084014892578
vn -0.0007200000109151006 0.005948000121861696 -6.283182144165039
v 16.396411895751953 -2.232651948928833 -21.603952407836914
vn 6.000000212225132e-06 0.00469100009649992 -6.283184051513672
v 17.696367263793945 -6.077390193939209 -21.591217041015625
vn 0.6428899765014648 -0.0001630000042496249 -6.232654094696045
v 16.16794204711914 -8.87026309967041 -21.60890769958496
vn -3.000000106112566e-06 0.00469199987128377 -6.283184051513672
v 16.36042594909668 -9.509297370910645 -21.609384536743164
vn 0.0006200000061653554 0.004687000066041946 -6.2831830978393555
v 15.835650444030762 -9.401551246643066 -21.609302520751953
vn -0.0014049999881535769 0.005158999934792519 -6.2831830978393555
v 15.662290573120117 -8.615138053894043 -21.608715057373047
vn -0.0013419999741017818 0.0036780000664293766 -6.283184051513672
v 14.915077209472656 -5.218413829803467 -21.606182098388672
vn -0.44610100984573364 0.021849999204277992 -6.250629901885986
v 14.815023422241211 -5.752779960632324 -21.59981346130371
vn -0.5814189910888672 0.007859000004827976 -6.237183094024658
v 14.590731620788574 -6.3704352378845215 -21.572776794433594
vn -0.9029170274734497 0.022732000797986984 -6.203507900238037
v 14.366262435913086 -5.1826300621032715 -21.523344039916992
vn -1.1301779747009277 0.02481899969279766 -6.178178787231445
v 17.17955207824707 -6.441860198974609 -21.607093811035156
vn 0.10690800100564957 -0.014809999614953995 -6.281266212463379
v 16.117713928222656 -1.7588729858398438 -21.60359764099121
vn -0.0011269999668002129 0.004745999816805124 -6.2831830978393555
v 17.183311462402344 -1.9985020160675049 -21.603776931762695
vn 0.05360899865627289 -0.02150999940931797 -6.282622814178467
v 15.236088752746582 -9.122769355773926 -21.608640670776367
vn -0.09073100239038467 0.02806599996984005 -6.281774044036865
v 16.610164642333984 -1.7421150207519531 -21.60358428955078
vn 6.000000212225132e-06 0.004701000172644854 -6.283184051513672
v 15.005152702331543 -2.483052968978882 -21.60413932800293
vn -0.3458540141582489 0.00037399999564513564 -6.262753963470459
v 18.131717681884766 -7.6503119468688965 -21.511714935302734
vn 1.1618479490280151 0.07503899931907654 -6.172145843505859
v 18.09980583190918 -8.366592407226562 -21.519031524658203
vn 1.1814379692077637 -0.06027200073003769 -6.16903018951416
f 2//2 3//3 4//4
f 5//5 6//6 2//2
f 9//9 10//10 11//11
f 3//3 12//12 66//66
f 19//19 8//8 20//20
f 23//23 24//24 98//98
f 27//27 22//22 28//28
f 29//29 5//5 30//30
f 42//42 15//15 16//16
f 45//45 20//20 100//100
f 15//15 46//46 98//98
f 47//47 48//48 49//49
f 6//6 29//29 51//51
f 29//29 52//52 53//53
f 53//53 9//9 54//54
f 23//23 57//57 58//58
f 25//25 30//30 59//59
f 60//60 5//5 61//61
f 62//62 45//45 63//63
f 64//64 17//17 65//65
f 9//9 52//52 10//10
f 13//13 3//3 66//66
f 62//62 19//19 20//20
f 20//20 8//8 99//99
f 50//50 8//8 48//48
f 69//69 33//33 70//70
f 57//57 27//27 28//28
f 42//42 32//32 69//69
f 71//71 1//1 72//72
f 21//21 73//73 11//11
f 23//23 58//58 24//24
f 62//62 63//63 74//74
f 75//75 38//38 76//76
f 65//65 39//39 75//75
f 77//77 37//37 78//78
f 79//79 80//80 13//13
f 52//52 81//81 10//10
f 27//27 82//82 83//83
f 70//70 34//34 71//71
f 51//51 44//44 84//84
f 52//52 29//29 30//30
f 29//29 6//6 5//5
f 30//30 5//5 60//60
f 12//12 49//49 66//66
f 85//85 86//86 87//87
f 74//74 85//85 88//88
f 76//76 36//36 77//77
f 89//89 61//61 90//90
f 4//4 67//67 91//91
f 15//15 98//98 68//68
f 16//16 31//31 42//42
f 72//72 1//1 55//55
f 45//45 62//62 20//20
f 15//15 42//42 46//46
f 12//12 47//47 49//49
f 47//47 6//6 93//93
f 49//49 48//48 19//19
f 39//39 65//65 35//35
f 17//17 18//18 65//65
f 81//81 30//30 25//25
f 6//6 47//47 2//2
f 45//45 17//17 64//64
f 11//11 10//10 28//28
f 13//13 66//66 79//79
f 57//57 23//23 27//27
f 94//94 82//82 46//46
f 43//43 21//21 22//22
f 26//26 25//25 59//59
f 62//62 74//74 49//49
f 86//86 63//63 64//64
f 79//79 88//88 96//96
f 27//27 83//83 22//22
f 83//83 97//97 95//95
f 28//28 22//22 21//21
f 95//95 22//22 83//83
f 53//53 44//44 51//51
f 88//88 85//85 87//87
f 96//96 88//88 87//87
f 60//60 89//89 59//59
f 89//89 60//60 61//61
f 51//51 29//29 53//53
f 53//53 52//52 9//9
f 54//54 9//9 56//56
f 4//4 61//61 2//2
f 2//2 12//12 3//3
f 67//67 4//4 3//3
f 42//42 31//31 32//32
f 57//57 81//81 58//58
f 25//25 58//58 81//81
f 81//81 52//52 30//30
f 59//59 30//30 60//60
f 61//61 5//5 2//2
f 2//2 47//47 12//12
f 63//63 45//45 64//64
f 11//11 56//56 9//9
f 67//67 3//3 13//13
f 50//50 48//48 93//93
f 93//93 48//48 47//47
f 23//23 82//82 27//27
f 94//94 83//83 82//82
f 70//70 97//97 94//94
f 81//81 57//57 10//10
f 28//28 10//10 57//57
f 33//33 69//69 32//32
f 46//46 69//69 94//94
f 69//69 46//46 42//42
f 95//95 72//72 43//43
f 72//72 95//95 71//71
f 21//21 43//43 73//73
f 11//11 73//73 56//56
f 1//1 71//71 34//34
f 58//58 7//7 24//24
f 63//63 85//85 74//74
f 85//85 63//63 86//86
f 76//76 87//87 86//86
f 49//49 74//74 66//66
f 38//38 75//75 39//39
f 64//64 75//75 86//86
f 75//75 64//64 65//65
f 96//96 78//78 40//40
f 78//78 96//96 77//77
f 79//79 40//40 80//80
f 13//13 80//80 14//14
f 37//37 77//77 36//36
f 97//97 83//83 94//94
f 11//11 28//28 21//21
f 34//34 70//70 33//33
f 97//97 70//70 71//71
f 71//71 95//95 97//97
f 6//6 51//51 93//93
f 53//53 54//54 44//44
f 93//93 84//84 50//50
f 84//84 93//93 51//51
f 66//66 88//88 79//79
f 88//88 66//66 74//74
f 36//36 76//76 38//38
f 87//87 76//76 77//77
f 77//77 96//96 87//87
f 61//61 4//4 90//90
f 4//4 91//91 90//90
f 59//59 89//89 26//26
f 40//40 78//78 41//41
f 92//92 89//89 90//90
f 98//98 24//24 68//68
f 98//98 82//82 23//23
f 49//49 19//19 62//62
f 18//18 35//35 65//65
f 8//8 19//19 48//48
f 58//58 25//25 26//26
f 98//98 46//46 82//82
f 96//96 40//40 79//79
f 13//13 14//14 67//67
f 20//20 99//99 100//100
f 26//26 89//89 92//92
f 43//43 22//22 95//95
f 94//94 69//69 70//70
f 86//86 75//75 76//76
f 58//58 26//26 7//7
