v 5.6820478439331055 98.6234359741211 19.303699493408203
vn 0.2812800109386444 6.207314968109131 0.8814020156860352
v 4.32467794418335 98.61849975585938 18.444541931152344
vn 0.16946899890899658 3.456394910812378 -2.672395944595337
v 4.823522090911865 98.68142700195312 18.5827693939209
vn 0.4147070050239563 3.487766981124878 -2.6074700355529785
v 6.0679612159729 98.65452575683594 18.903430938720703
vn 1.0316740274429321 3.478532075881958 -2.4706308841705322
v 5.3382978439331055 98.70301818847656 18.719715118408203
vn 0.6804100275039673 3.4975640773773193 -2.538892984390259
v 5.191758155822754 98.64787292480469 19.11345863342285
vn -0.2522059977054596 6.224549770355225 0.7868000268936157
f 5//5 1//1 4//4
f 1//1 5//5 6//6
f 3//3 6//6 5//5
