v -3.9833779335021973 46.80332946777344 9.991233825683594
vn -3.0346570014953613 -2.4745209217071533 -0.5303769707679749
v -4.092175006866455 46.83042526245117 10.487302780151367
vn -3.034640073776245 -2.474503993988037 -0.5303670167922974
v -4.200967788696289 46.85752487182617 10.98337173461914
vn -3.034656047821045 -2.4745099544525146 -0.5303590297698975
v -1.0008050203323364 46.81828308105469 11.069003105163574
vn -0.08561400324106216 -6.274244785308838 0.32394298911094666
v -1.5574140548706055 46.80384063720703 10.642203330993652
vn -0.0856039971113205 -6.2742438316345215 0.32396700978279114
v -0.8646900057792664 46.79145812988281 10.585418701171875
vn -0.08561799675226212 -6.274241924285889 0.3239940106868744
v 15.497058868408203 46.868202209472656 16.39564323425293
vn -0.08561500161886215 -6.2742438316345215 0.32396000623703003
v 14.939355850219727 46.85517501831055 15.995973587036133
vn -0.08559899777173996 -6.2742438316345215 0.32396599650382996
v 15.619845390319824 46.843238830566406 15.944618225097656
vn -0.08560699969530106 -6.2742438316345215 0.3239539861679077
v 12.758604049682617 46.800071716308594 14.352381706237793
vn -2.9516708850860596 -3.9498538970947266 -0.7026450037956238
v 12.606903076171875 46.82717514038086 14.837274551391602
vn -2.951647996902466 -3.949842929840088 -0.7026389837265015
v 12.455202102661133 46.85428237915039 15.322166442871094
vn -2.951667070388794 -3.9498369693756104 -0.7026519775390625
v 17.567760467529297 46.826210021972656 16.12953758239746
vn 2.906838893890381 -2.4756760597229004 1.0173410177230835
v 0.7645490169525146 46.85655975341797 12.276847839355469
vn 2.9179270267486572 -3.950984001159668 0.8263450264930725
v -2.788770914077759 46.804298400878906 10.325708389282227
vn -0.08561000227928162 -6.2742438316345215 0.3239530026912689
v -3.460561990737915 46.81869125366211 10.426942825317383
vn -0.08560600131750107 -6.274244785308838 0.32395198941230774
v -3.3333170413970947 46.791847229003906 9.94062614440918
vn -0.08560899645090103 -6.2742438316345215 0.3239560127258301
v -0.4022290110588074 46.82914352416992 11.437569618225098
vn -0.08561299741268158 -6.2742438316345215 0.32396399974823
v -1.0962239503860474 46.84364318847656 11.534972190856934
vn -0.08560699969530106 -6.274244785308838 0.323947012424469
v 15.919905662536621 46.78803253173828 14.954627990722656
vn -0.08560500293970108 -6.2742438316345215 0.3239560127258301
v 16.466983795166016 46.8011589050293 15.353409767150879
vn -0.08560500293970108 -6.274244785308838 0.3239530026912689
v 15.772191047668457 46.815181732177734 15.441425323486328
vn -0.08559899777173996 -6.274244785308838 0.3239409923553467
v 14.260469436645508 46.86768341064453 16.058847427368164
vn -0.08562500029802322 -6.2742438316345215 0.32396399974823
v 13.708263397216797 46.85337829589844 15.635754585266113
vn -0.08563199639320374 -6.274244785308838 0.32393598556518555
v 14.399056434631348 46.83980178833008 15.555451393127441
vn -0.08562199771404266 -6.274244785308838 0.3239299952983856
v 17.420719146728516 46.85331726074219 16.615642547607422
vn 2.9068470001220703 -2.475658893585205 1.0173399448394775
v 0.8686860203742981 46.82946014404297 11.779565811157227
vn 2.9178988933563232 -3.950977087020874 0.8263360261917114
v 0.9728230237960815 46.802364349365234 11.282282829284668
vn 2.9179160594940186 -3.9509780406951904 0.8263360261917114
v -3.8745839595794678 46.77622985839844 9.49516487121582
vn -1.0023000240325928 -1.066079020500183 -1.5290650129318237
v 0.3887709975242615 46.79024124145508 10.893172264099121
vn -0.08561699837446213 -6.2742438316345215 0.32396599650382996
v -0.29604798555374146 46.802799224853516 10.955314636230469
vn -0.08562300354242325 -6.2742438316345215 0.3239479959011078
v -0.1609259992837906 46.775508880615234 10.462541580200195
vn 0.7428600192070007 -2.7407729625701904 -2.8538448810577393
v -2.2565510272979736 46.8187255859375 10.745759963989258
vn -0.08559100329875946 -6.274244785308838 0.3239549994468689
v -2.10628604888916 46.791778564453125 10.263588905334473
vn -0.08560000360012054 -6.2742438316345215 0.3239629864692688
v -2.6366989612579346 46.7759895324707 9.817623138427734
vn 0.7428690195083618 -2.7407679557800293 -2.853848934173584
v -1.7120410203933716 46.83161544799805 11.139293670654297
vn -0.08559899777173996 -6.274244785308838 0.32394498586654663
v -2.367621898651123 46.84343719482422 11.195030212402344
vn -0.08559399843215942 -6.274244785308838 0.3239400088787079
v -2.9821739196777344 46.85823440551758 11.319230079650879
vn -0.0856269970536232 -6.2742438316345215 0.32394900918006897
v -3.5700058937072754 46.847129821777344 10.948760032653809
vn -0.08561299741268158 -6.274242877960205 0.3239719867706299
v -2.9264369010925293 46.83164596557617 10.818964004516602
vn -0.08561199903488159 -6.2742438316345215 0.3239549994468689
v -2.3280301094055176 46.86880111694336 11.696717262268066
vn -0.08559700101613998 -6.274244785308838 0.3239539861679077
v -1.833601951599121 46.866127014160156 11.775592803955078
vn -0.08559899777173996 -6.274244785308838 0.32394400238990784
v 0.29363998770713806 46.81361389160156 11.320631980895996
vn -0.08562199771404266 -6.274242877960205 0.3239710032939911
v 0.1961120069026947 46.84016036987305 11.809059143066406
vn -0.08561599999666214 -6.2742438316345215 0.32395198941230774
v -1.1695599555969238 46.86919403076172 12.010483741760254
vn -0.08559100329875946 -6.2742462158203125 0.32392799854278564
v -0.49334201216697693 46.855796813964844 11.929622650146484
vn -0.08561199903488159 -6.2742438316345215 0.3239560127258301
v 0.08968599885702133 46.86687469482422 12.298319816589355
vn -0.08561000227928162 -6.274244785308838 0.32393598556518555
v 12.910304069519043 46.77296447753906 13.867488861083984
vn -0.8452540040016174 -1.7435239553451538 -2.058948040008545
v 13.529247283935547 46.77284240722656 14.028718948364258
vn 0.7428529858589172 -2.7407751083374023 -2.8538129329681396
v 13.448497772216797 46.78750228881836 14.291218757629395
vn -0.08563199639320374 -6.274241924285889 0.32399600744247437
v 14.148189544677734 46.77272033691406 14.189948081970215
vn 0.7428569793701172 -2.7407729625701904 -2.853832960128784
v 14.767133712768555 46.77260208129883 14.351177215576172
vn 0.7428789734840393 -2.7407660484313965 -2.8538739681243896
v 14.673096656799316 46.789859771728516 14.66063404083252
vn -0.08560699969530106 -6.2742438316345215 0.32396000623703003
v 13.999185562133789 46.7999153137207 14.67722225189209
vn -0.08563899993896484 -6.274242877960205 0.3239800035953522
v 14.542350769042969 46.81373977661133 15.088492393493652
vn -0.08561799675226212 -6.274244785308838 0.323947012424469
v 15.386076927185059 46.77248001098633 14.512407302856445
vn 0.7428730130195618 -2.7407710552215576 -2.853837013244629
v 16.005020141601562 46.772361755371094 14.673637390136719
vn 0.7428780198097229 -2.7407689094543457 -2.85385799407959
v 16.62396240234375 46.772239685058594 14.834866523742676
vn 0.7428669929504395 -2.740773916244507 -2.853837013244629
v 17.242904663085938 46.772117614746094 14.996095657348633
vn 0.7428609728813171 -2.740770101547241 -2.8538060188293457
v 17.14612579345703 46.78995895385742 15.315975189208984
vn -0.08561299741268158 -6.274242877960205 0.3239760100841522
v 17.003543853759766 46.81623840332031 15.787330627441406
vn -0.08560699969530106 -6.274244785308838 0.32395100593566895
v 15.085259437561035 46.827659606933594 15.50164794921875
vn -0.08560200035572052 -6.274244785308838 0.32394298911094666
v 16.317651748657227 46.82868194580078 15.84708023071289
vn -0.08559700101613998 -6.274244785308838 0.323947012424469
v 16.858278274536133 46.8433837890625 16.27461051940918
vn -0.08560200035572052 -6.2742438316345215 0.32396200299263
v 16.17572021484375 46.855804443359375 16.334861755371094
vn -0.08559499680995941 -6.274244785308838 0.3239539861679077
v 13.03134536743164 46.864437103271484 15.671124458312988
vn -0.08559300005435944 -6.274244785308838 0.32394298911094666
v 13.169941902160645 46.837608337402344 15.18803596496582
vn -0.08559100329875946 -6.274244785308838 0.32394498586654663
v 13.855680465698242 46.8258171081543 15.140911102294922
vn -0.08563599735498428 -6.2742438316345215 0.32394999265670776
v 13.317885398864746 46.81098175048828 14.71142578125
vn -0.08560699969530106 -6.2742438316345215 0.32396200299263
v 17.861848831176758 46.77199935913086 15.157325744628906
vn 1.6205259561538696 -1.0665830373764038 -0.8458369970321655
v 17.714805603027344 46.79910659790039 15.643430709838867
vn 2.906851053237915 -2.475651979446411 1.017348051071167
v -1.3988120555877686 46.77574920654297 10.140082359313965
vn 0.7428659796714783 -2.7407689094543457 -2.8538289070129395
v 15.232413291931152 46.80072021484375 15.018704414367676
vn -0.08560299873352051 -6.2742438316345215 0.32395699620246887
v 1.0769599676132202 46.7752685546875 10.785000801086426
vn 1.7417329549789429 -1.7440299987792969 -1.3850840330123901
v 0.4580169916152954 46.775386810302734 10.623771667480469
vn 0.7428780198097229 -2.740778923034668 -2.8538670539855957
v -0.7798680067062378 46.77562713623047 10.301310539245605
vn 0.7428590059280396 -2.740762948989868 -2.8537840843200684
v -2.0177559852600098 46.77587127685547 9.978853225708008
vn 0.7428719997406006 -2.740770101547241 -2.8538620471954346
v -3.255640983581543 46.7761116027832 9.656394004821777
vn 0.7428709864616394 -2.7407710552215576 -2.8538460731506348
f 4//4 5//5 6//6
f 7//7 8//8 9//9
f 15//15 16//16 17//17
f 4//4 18//18 19//19
f 20//20 21//21 22//22
f 23//23 24//24 25//25
f 30//30 31//31 32//32
f 5//5 33//33 34//34
f 34//34 15//15 35//35
f 36//36 37//37 33//33
f 40//40 39//39 16//16
f 41//41 37//37 36//36
f 31//31 30//30 43//43
f 18//18 43//43 44//44
f 46//46 44//44 47//47
f 48//48 49//49 50//50
f 51//51 52//52 53//53
f 54//54 53//53 55//55
f 56//56 57//57 20//20
f 58//58 59//59 60//60
f 21//21 60//60 61//61
f 62//62 22//22 9//9
f 63//63 61//61 64//64
f 24//24 66//66 67//67
f 62//62 25//25 55//55
f 68//68 67//67 69//69
f 54//54 69//69 50//50
f 40//40 16//16 15//15
f 18//18 46//46 19//19
f 45//45 19//19 46//46
f 22//22 21//21 63//63
f 25//25 24//24 68//68
f 31//31 4//4 6//6
f 4//4 36//36 5//5
f 6//6 5//5 72//72
f 38//38 39//39 40//40
f 31//31 43//43 18//18
f 51//51 53//53 54//54
f 58//58 60//60 21//21
f 63//63 64//64 65//65
f 9//9 65//65 7//7
f 68//68 69//69 54//54
f 15//15 33//33 40//40
f 1//1 16//16 2//2
f 16//16 1//1 17//17
f 29//29 17//17 1//1
f 36//36 19//19 42//42
f 19//19 36//36 4//4
f 18//18 44//44 46//46
f 56//56 20//20 73//73
f 22//22 73//73 20//20
f 21//21 61//61 63//63
f 73//73 22//22 62//62
f 25//25 8//8 23//23
f 24//24 67//67 68//68
f 8//8 25//25 62//62
f 74//74 30//30 75//75
f 32//32 31//31 6//6
f 32//32 6//6 76//76
f 72//72 5//5 34//34
f 5//5 36//36 33//33
f 34//34 33//33 15//15
f 72//72 34//34 77//77
f 35//35 15//15 17//17
f 35//35 17//17 78//78
f 37//37 40//40 33//33
f 40//40 37//37 38//38
f 39//39 2//2 16//16
f 2//2 39//39 3//3
f 42//42 41//41 36//36
f 18//18 4//4 31//31
f 30//30 28//28 43//43
f 28//28 30//30 74//74
f 43//43 27//27 44//44
f 27//27 43//43 28//28
f 44//44 14//14 47//47
f 14//14 44//44 27//27
f 49//49 51//51 50//50
f 54//54 50//50 51//51
f 52//52 56//56 53//53
f 73//73 53//53 56//56
f 53//53 73//73 55//55
f 62//62 55//55 73//73
f 57//57 58//58 20//20
f 21//21 20//20 58//58
f 59//59 70//70 60//60
f 71//71 60//60 70//70
f 60//60 71//71 61//61
f 13//13 61//61 71//71
f 22//22 63//63 9//9
f 65//65 9//9 63//63
f 61//61 13//13 64//64
f 26//26 64//64 13//13
f 62//62 9//9 8//8
f 66//66 12//12 67//67
f 11//11 67//67 12//12
f 25//25 68//68 55//55
f 54//54 55//55 68//68
f 67//67 11//11 69//69
f 10//10 69//69 11//11
f 69//69 10//10 50//50
f 48//48 50//50 10//10
f 42//42 19//19 45//45
f 75//75 30//30 32//32
f 76//76 6//6 72//72
f 77//77 34//34 35//35
f 78//78 17//17 29//29
f 41//41 38//38 37//37
