v -38.78920364379883 211.60952758789062 -9.328856468200684
vn -3.0453200340270996 2.500910997390747 -0.37788599729537964
v -39.24810791015625 211.5848388671875 -5.597867965698242
vn -2.9196341037750244 2.5701000690460205 -0.8530470132827759
v -33.5981330871582 211.4156036376953 -15.905424118041992
vn 0.24479299783706665 6.083651065826416 -1.3056219816207886
v -36.7049674987793 211.48052978515625 -15.901945114135742
vn -1.976802945137024 4.888661861419678 -1.6376769542694092
v -34.06959915161133 211.63815307617188 -12.894027709960938
vn 0.008665000088512897 6.276618003845215 -0.17042000591754913
v 7.314365863800049 211.60772705078125 -7.672832012176514
vn -0.40670499205589294 6.013402938842773 -0.35580700635910034
v 5.399416923522949 211.22279357910156 20.084257125854492
vn 0.6036009788513184 6.001848220825195 0.9240090250968933
v 4.541512966156006 211.37664794921875 17.562177658081055
vn 0.1808750033378601 6.208550930023193 0.26208099722862244
v -39.81559371948242 211.4792022705078 10.621050834655762
vn -0.4762499928474426 6.246613025665283 -0.007333000190556049
v -42.04023361206055 211.18429565429688 12.615239143371582
vn -3.3928370475769043 2.846343994140625 0.3958730101585388
v -39.842987060546875 211.45533752441406 13.153231620788574
vn -0.46830201148986816 6.221179962158203 0.36741700768470764
v -37.815650939941406 211.6336212158203 -12.872580528259277
vn -2.978379011154175 3.7237439155578613 -0.3622159957885742
v 2.448153018951416 211.1848907470703 16.458032608032227
vn -2.1145029067993164 5.701749801635742 -0.11677899956703186
v -33.4664306640625 211.31455993652344 14.357539176940918
vn 0.9490079879760742 6.097091197967529 0.4461759924888611
v 6.1709418296813965 211.60873413085938 -3.9719440937042236
vn -1.1360679864883423 5.848598003387451 -0.0988449975848198
v -30.783172607421875 211.6288299560547 -11.497505187988281
vn 1.0747109651565552 6.070866107940674 0.12128300219774246
v -30.960201263427734 211.5850372314453 -14.280938148498535
vn 0.745868980884552 6.080733776092529 -0.6458449959754944
v -37.30907440185547 211.3839111328125 14.905743598937988
vn 0.0008829999715089798 6.208118915557861 0.7460269927978516
v -36.396873474121094 211.4729766845703 11.803084373474121
vn 0.13148699700832367 6.276965141296387 0.1475369930267334
v 5.933994770050049 211.57586669921875 0.0771780014038086
vn -0.9164909720420837 5.918294906616211 -0.1824979931116104
v 8.741565704345703 211.2686004638672 -2.138503074645996
vn 1.2936259508132935 6.11734676361084 0.16560399532318115
v -35.217857360839844 211.5530548095703 0.04336100071668625
vn -0.007013999857008457 6.283052921295166 0.04013200104236603
v -33.399314880371094 211.57366943359375 -2.9713950157165527
vn 0.014003000222146511 6.282969951629639 0.04411499947309494
v -36.861446380615234 211.57342529296875 -3.4009599685668945
vn -0.05457000061869621 6.282422065734863 0.05387499928474426
v -41.58905029296875 211.16696166992188 8.58800983428955
vn -3.6383159160614014 3.3718268871307373 -0.47875499725341797
v -40.44895935058594 211.51547241210938 4.902554988861084
vn -2.8283069133758545 4.416318893432617 -0.4458880126476288
v -33.43938446044922 211.5318603515625 3.6432418823242188
vn 0.6029710173606873 6.219508171081543 0.14832499623298645
v -31.91311264038086 211.55404663085938 0.4910080134868622
vn 1.087975025177002 6.067527770996094 0.33781999349594116
v -39.54230880737305 211.54100036621094 1.1234569549560547
vn -2.4515950679779053 5.078465938568115 -0.08803299814462662
v -37.91398239135742 211.555908203125 -0.8852239847183228
vn -0.10065799951553345 6.281407833099365 -0.01421900000423193
v -40.048038482666016 211.4705352783203 -1.9156990051269531
vn -2.8882970809936523 4.614361763000488 0.19564500451087952
v 3.947143077850342 211.4721221923828 13.886473655700684
vn -1.0562570095062256 5.947700023651123 -0.315077006816864
v -30.745956420898438 211.54588317871094 -2.506788969039917
vn 1.6291149854660034 5.834391117095947 0.2346539944410324
v -31.13335609436035 211.59446716308594 -5.6113200187683105
vn 1.162742018699646 6.050901889801025 -0.013722999952733517
v 7.916759014129639 211.14022827148438 7.31705904006958
vn 1.543761968612671 6.037187099456787 0.2655769884586334
v 6.272319793701172 211.255859375 14.731117248535156
vn 1.167132019996643 6.138085842132568 0.19665299355983734
v 6.949160099029541 211.41729736328125 3.9422969818115234
vn 0.8774970173835754 6.2009501457214355 0.1378750056028366
v 4.449676990509033 211.54336547851562 7.475637912750244
vn -1.4288309812545776 5.718045234680176 0.06023000180721283
v -32.559303283691406 211.59632873535156 -9.13198184967041
vn 0.386447012424469 6.256278991699219 0.09816700220108032
v -35.71184158325195 211.61431884765625 -9.510774612426758
vn 0.00633700005710125 6.283029079437256 0.04109499976038933
v -37.43745422363281 211.53382873535156 2.614546060562134
vn -0.007379000075161457 6.2830491065979 0.04065300151705742
v -36.61512756347656 211.49288940429688 9.086830139160156
vn -0.007089999970048666 6.2830328941345215 0.04305399954319
v -36.80728530883789 211.51210021972656 6.086610794067383
vn -0.007385000120848417 6.2830491065979 0.040679000318050385
v -39.610862731933594 211.49649047851562 7.9854512214660645
vn -0.4443869888782501 6.250744819641113 0.08996199816465378
v 6.29297399520874 211.3368377685547 11.132461547851562
vn 0.703324019908905 6.152013778686523 0.09541700035333633
v -34.20803451538086 211.59510803222656 -6.269895076751709
vn 0.0005959999980404973 6.283092021942139 0.03088200092315674
v 4.415576934814453 211.56919860839844 3.9192240238189697
vn -1.8748079538345337 5.492969989776611 -0.2152860015630722
v -33.96086120605469 211.50979614257812 6.956960201263428
vn 0.41054800152778625 6.2549052238464355 0.010110000148415565
v -33.18521499633789 211.4928741455078 9.712631225585938
vn 0.9651960134506226 6.104997158050537 0.22542700171470642
v -37.14801025390625 211.5895233154297 -5.940756797790527
vn -0.00737700005993247 6.2830491065979 0.040672000497579575
f 4//4 5//5 3//3
f 9//9 10//10 11//11
f 12//12 5//5 4//4
f 5//5 16//16 17//17
f 19//19 18//18 14//14
f 19//19 11//11 18//18
f 15//15 20//20 21//21
f 22//22 23//23 24//24
f 27//27 28//28 22//22
f 29//29 30//30 31//31
f 33//33 34//34 23//23
f 35//35 37//37 38//38
f 5//5 40//40 39//39
f 50//50 40//40 1//1
f 22//22 41//41 27//27
f 22//22 24//24 30//30
f 42//42 43//43 44//44
f 26//26 44//44 43//43
f 46//46 23//23 34//34
f 23//23 46//46 24//24
f 50//50 24//24 46//46
f 50//50 1//1 2//2
f 43//43 41//41 26//26
f 30//30 24//24 31//31
f 28//28 23//23 22//22
f 23//23 28//28 33//33
f 35//35 38//38 45//45
f 32//32 8//8 36//36
f 20//20 47//47 37//37
f 38//38 37//37 47//47
f 34//34 39//39 46//46
f 5//5 39//39 16//16
f 40//40 46//46 39//39
f 46//46 40//40 50//50
f 40//40 12//12 1//1
f 12//12 40//40 5//5
f 43//43 27//27 41//41
f 9//9 42//42 44//44
f 29//29 26//26 41//41
f 25//25 9//9 44//44
f 26//26 25//25 44//44
f 9//9 25//25 10//10
f 8//8 32//32 13//13
f 49//49 48//48 42//42
f 45//45 32//32 36//36
f 48//48 43//43 42//42
f 27//27 43//43 48//48
f 42//42 9//9 19//19
f 11//11 19//19 9//9
f 5//5 17//17 3//3
f 42//42 19//19 49//49
f 30//30 29//29 41//41
f 30//30 41//41 22//22
f 24//24 50//50 2//2
f 24//24 2//2 31//31
