{"accessors" : [{"bufferView" : 0, "byteOffset" : 0, "componentType" : 5123, "count" : 53964, "type" : "SCALAR", "max" : [53750], "min" : [0]}, {"bufferView" : 1, "byteOffset" : 0, "componentType" : 5126, "count" : 53751, "type" : "VEC3", "max" : [62.76693344116211, 54.56201934814453, 56.380374908447266], "min" : [-62.76693344116211, -40.550941467285156, -56.82709503173828], "name" : "POSITION"}, {"bufferView" : 1, "byteOffset" : 12, "componentType" : 5126, "count" : 53751, "type" : "VEC3", "max" : [0.9997549653053284, 0.9998126029968262, 1.0000044107437134], "min" : [-0.9997549653053284, -0.9989956617355347, -1.0000039339065552], "name" : "NORMAL"}], "asset" : {"generator" : "Aspose.3D 22.7", "version" : "2.0"}, "buffers" : [{"uri" : "data:application/octet-stream;base64,", "byteLength" : 1403072}], "bufferViews" : [{"buffer" : 0, "byteOffset" : 0, "byteLength" : 107928, "target" : 34963}, {"buffer" : 0, "byteOffset" : 107932, "byteLength" : 1295136, "byteStride" : 24, "target" : 34962}], "meshes" : [{"primitives" : [{"attributes" : {"POSITION" : 1, "NORMAL" : 2}, "indices" : 0, "mode" : 4}], "name" : ""}], "nodes" : [{"mesh" : 0, "name" : "obj_17195549"}], "scene" : 0, "scenes" : [{"nodes" : [0]}]}