####
#
# OBJ File Generated by Meshlab
#
####
# Object 2.obj
#
# Vertices: 93
# Faces: 140
#
####
vn 1.090049 2.829945 2.902823
v 13.281199 2.198090 -2.024192 1.000000 1.000000 1.000000
vn -0.120632 2.801866 3.082586
v 12.132700 2.197938 -1.822192 1.000000 1.000000 1.000000
vn 0.286630 -0.006627 3.083215
v 12.524199 0.197939 -1.823686 1.000000 1.000000 1.000000
vn 1.279348 -0.042817 2.822259
v 13.281199 0.198090 -2.025685 1.000000 1.000000 1.000000
vn -3.082670 2.796952 -0.285833
v 9.158205 2.200448 -5.187193 1.000000 1.000000 1.000000
vn -2.822480 2.835053 -1.278079
v 9.361204 2.201013 -5.944192 1.000000 1.000000 1.000000
vn -2.901289 -0.040007 -1.090029
v 9.361204 0.201014 -5.945685 1.000000 1.000000 1.000000
vn -2.992340 2.795541 0.803970
v 9.259703 2.199581 -4.026194 1.000000 1.000000 1.000000
vn -2.727766 -0.099439 1.435915
v 9.556700 0.199047 -3.310687 1.000000 1.000000 1.000000
vn -2.449628 2.749129 1.863456
v 9.752199 2.198793 -2.970193 1.000000 1.000000 1.000000
vn -2.180557 2.851310 -2.203190
v 10.029203 2.201726 -6.899193 1.000000 1.000000 1.000000
vn -2.383712 -0.002846 -1.975686
v 9.752203 0.201520 -6.623686 1.000000 1.000000 1.000000
vn -1.565561 -0.055967 -2.677225
v 10.645704 0.202081 -7.373685 1.000000 1.000000 1.000000
vn -3.080148 -0.098359 0.120095
v 9.158205 0.200156 -4.797187 1.000000 1.000000 1.000000
vn -1.661194 4.533863 1.775711
v 9.779215 2.213500 -22.670189 1.000000 1.000000 1.000000
vn -0.997185 2.660254 2.896416
v 8.618216 2.213575 -22.771189 1.000000 1.000000 1.000000
vn -0.645370 0.048097 3.001472
v 8.996214 0.213500 -22.671680 1.000000 1.000000 1.000000
vn -1.557315 -0.001324 1.776158
v 9.779215 0.213501 -22.671680 1.000000 1.000000 1.000000
vn -4.672007 -0.001121 0.615603
v 9.971216 1.212414 -21.214935 1.000000 1.000000 1.000000
vn -1.557314 -0.000153 0.205361
v 9.971216 0.212414 -21.215681 1.000000 1.000000 1.000000
vn -4.672102 -0.000459 0.614882
v 11.591204 1.203229 -8.910937 1.000000 1.000000 1.000000
vn -1.962857 4.583103 -1.309219
v 11.741205 2.202378 -7.770190 1.000000 1.000000 1.000000
vn -3.114730 3.141369 0.412322
v 11.591204 2.203229 -8.910191 1.000000 1.000000 1.000000
vn -3.114708 3.140932 0.412477
v 10.911707 2.207081 -14.070189 1.000000 1.000000 1.000000
vn -3.114711 3.140819 0.412477
v 10.685209 2.208364 -15.790190 1.000000 1.000000 1.000000
vn -3.114707 -0.000721 0.410122
v 10.781210 1.207821 -15.062936 1.000000 1.000000 1.000000
vn -2.062941 -0.039971 -1.282017
v 11.741205 0.202379 -7.771684 1.000000 1.000000 1.000000
vn -1.557372 -0.000153 0.204919
v 11.591204 0.203230 -8.911684 1.000000 1.000000 1.000000
vn 1.065051 -0.047913 1.403397
v 14.236200 0.198591 -2.694683 1.000000 1.000000 1.000000
vn 0.973949 2.791856 0.976038
v 14.513201 2.198797 -2.970189 1.000000 1.000000 1.000000
vn 1.895747 2.859474 2.473045
v 13.959200 2.198383 -2.416190 1.000000 1.000000 1.000000
vn -0.801083 -0.005935 2.992424
v 11.363199 0.198013 -1.924686 1.000000 1.000000 1.000000
vn -1.290955 2.798492 -2.811923
v 10.985205 2.202227 -7.568192 1.000000 1.000000 1.000000
vn -1.861588 -0.047036 2.449474
v 10.306200 0.198381 -2.417686 1.000000 1.000000 1.000000
vn -1.435556 2.801123 2.729946
v 10.645700 2.198234 -2.220193 1.000000 1.000000 1.000000
vn -0.000005 6.283184 0.004689
v 10.917533 2.216396 -26.548104 1.000000 1.000000 1.000000
vn -0.000002 2.792980 0.002085
v 11.768217 2.217085 -27.470184 1.000000 1.000000 1.000000
vn -0.000002 2.487244 0.001856
v 11.214220 2.217498 -28.024185 1.000000 1.000000 1.000000
vn -0.000002 2.841500 0.002121
v 12.261217 2.216297 -26.414185 1.000000 1.000000 1.000000
vn -0.000006 6.283184 0.004691
v 8.192380 2.214861 -24.494666 1.000000 1.000000 1.000000
vn -0.000006 6.283184 0.004690
v 8.061791 2.216187 -26.270742 1.000000 1.000000 1.000000
vn -2.925660 2.549501 0.672417
v 6.514719 2.215143 -24.874689 1.000000 1.000000 1.000000
vn -0.000003 3.141438 0.002345
v 14.566202 2.203523 -9.300188 1.000000 1.000000 1.000000
vn -0.000005 6.283184 0.004691
v 12.954255 2.204012 -9.956909 1.000000 1.000000 1.000000
vn -0.000006 6.283184 0.004691
v 13.148182 2.202786 -8.315254 1.000000 1.000000 1.000000
vn -0.000005 6.283184 0.004692
v 13.074528 2.201516 -6.613942 1.000000 1.000000 1.000000
vn -0.000003 3.141592 0.002346
v 14.836702 2.201988 -7.243689 1.000000 1.000000 1.000000
vn -0.000004 6.283184 0.004690
v 11.581751 2.201371 -6.421532 1.000000 1.000000 1.000000
vn -3.114708 3.140488 0.412483
v 10.005716 2.212216 -20.950188 1.000000 1.000000 1.000000
vn -3.114708 -0.001039 0.410119
v 10.173716 1.211266 -19.676935 1.000000 1.000000 1.000000
vn -3.114708 -0.000401 0.410118
v 11.388708 1.204377 -10.448936 1.000000 1.000000 1.000000
vn -2.124490 2.588598 2.155901
v 7.284716 2.214148 -23.541191 1.000000 1.000000 1.000000
vn -0.000005 6.283184 0.004692
v 9.833157 2.214599 -24.141777 1.000000 1.000000 1.000000
vn -0.000006 6.283184 0.004691
v 12.267235 2.208609 -16.115083 1.000000 1.000000 1.000000
vn -0.000005 6.283184 0.004691
v 12.278019 2.207426 -14.530624 1.000000 1.000000 1.000000
vn -0.000005 6.283184 0.004691
v 13.951339 2.200650 -5.453864 1.000000 1.000000 1.000000
vn -0.000005 6.283184 0.004690
v 12.408362 2.198874 -3.074610 1.000000 1.000000 1.000000
vn -0.000005 6.283184 0.004691
v 10.889673 2.199421 -3.810090 1.000000 1.000000 1.000000
vn -0.000005 6.283184 0.004690
v 10.470477 2.200492 -5.243699 1.000000 1.000000 1.000000
vn -0.000005 6.283184 0.004690
v 9.625703 2.215667 -25.572389 1.000000 1.000000 1.000000
vn -0.000002 3.135840 0.002341
v 13.464212 2.209769 -17.668186 1.000000 1.000000 1.000000
vn -0.000006 6.283184 0.004691
v 11.829129 2.210481 -18.622950 1.000000 1.000000 1.000000
vn -0.000007 6.283184 0.004692
v 11.649645 2.209630 -17.483867 1.000000 1.000000 1.000000
vn -0.000004 6.283184 0.004690
v 12.377241 2.200235 -4.899319 1.000000 1.000000 1.000000
vn -3.114711 3.140714 0.412478
v 10.458712 2.209648 -17.510189 1.000000 1.000000 1.000000
vn -3.114708 -0.000926 0.410122
v 10.376211 1.210118 -18.138935 1.000000 1.000000 1.000000
vn -3.114708 -0.000824 0.410124
v 10.578711 1.208970 -16.600935 1.000000 1.000000 1.000000
vn -3.114707 -0.000610 0.410125
v 10.983706 1.206673 -13.524937 1.000000 1.000000 1.000000
vn -3.114707 -0.000507 0.410124
v 11.186209 1.205525 -11.986937 1.000000 1.000000 1.000000
vn -3.114708 3.141047 0.412483
v 11.138208 2.205797 -12.350191 1.000000 1.000000 1.000000
vn -3.114709 3.141151 0.412481
v 11.364706 2.204513 -10.630190 1.000000 1.000000 1.000000
vn -0.000002 2.226748 0.001662
v 8.240217 2.217788 -28.416187 1.000000 1.000000 1.000000
vn -1.287342 2.591750 -0.151706
v 6.761469 2.216687 -26.942188 1.000000 1.000000 1.000000
vn -0.000005 6.283184 0.004689
v 9.599380 2.216784 -27.069140 1.000000 1.000000 1.000000
vn -0.000005 6.283184 0.004692
v 11.351203 2.214045 -23.398034 1.000000 1.000000 1.000000
vn -0.000004 6.283184 0.004690
v 11.241032 2.215292 -25.067953 1.000000 1.000000 1.000000
vn -0.000005 6.283184 0.004690
v 12.923313 2.205394 -11.808567 1.000000 1.000000 1.000000
vn -0.000003 3.141593 0.002346
v 12.862715 2.213033 -22.041187 1.000000 1.000000 1.000000
vn -0.000001 3.141590 0.002345
v 12.561968 2.214665 -24.227686 1.000000 1.000000 1.000000
vn -0.000002 3.141590 0.002345
v 13.163465 2.211401 -19.854687 1.000000 1.000000 1.000000
vn -0.000005 6.283184 0.004691
v 11.126753 2.212891 -21.853347 1.000000 1.000000 1.000000
vn -0.000005 6.283184 0.004691
v 12.429981 2.206370 -13.116838 1.000000 1.000000 1.000000
vn -0.000003 3.141592 0.002346
v 14.015207 2.206646 -13.484188 1.000000 1.000000 1.000000
vn -0.000001 3.141591 0.002345
v 13.739710 2.208207 -15.576187 1.000000 1.000000 1.000000
vn -0.000001 2.792406 0.002084
v 15.005699 2.199585 -4.026190 1.000000 1.000000 1.000000
vn -0.000003 6.283184 0.004688
v 13.785900 2.199496 -3.907040 1.000000 1.000000 1.000000
vn -0.000003 2.923602 0.002183
v 15.107203 2.200452 -5.187189 1.000000 1.000000 1.000000
vn -3.114710 3.140598 0.412475
v 10.232214 2.210932 -19.230188 1.000000 1.000000 1.000000
vn -0.000006 6.283184 0.004690
v 11.741297 2.211855 -20.464601 1.000000 1.000000 1.000000
vn -0.000002 3.141591 0.002345
v 14.290705 2.205084 -11.392187 1.000000 1.000000 1.000000
vn -1.820186 0.074914 2.370611
v 7.561216 0.213942 -23.265682 1.000000 1.000000 1.000000
vn -2.894895 -0.104604 0.967986
v 6.612719 0.215017 -24.706684 1.000000 1.000000 1.000000
vn -1.822939 0.043248 -0.056097
v 6.514719 0.216293 -26.415684 1.000000 1.000000 1.000000
# 93 vertices, 0 vertices normals

f 1//1 2//2 3//3
f 1//1 3//3 4//4
f 5//5 6//6 7//7
f 8//8 9//9 10//10
f 6//6 11//11 12//12
f 13//13 12//12 11//11
f 7//7 14//14 5//5
f 14//14 8//8 5//5
f 6//6 12//12 7//7
f 14//14 9//9 8//8
f 15//15 16//16 17//17
f 15//15 17//17 18//18
f 15//15 18//18 19//19
f 20//20 19//19 18//18
f 21//21 22//22 23//23
f 24//24 25//25 26//26
f 27//27 22//22 21//21
f 28//28 27//27 21//21
f 29//29 30//30 31//31
f 31//31 1//1 4//4
f 31//31 4//4 29//29
f 3//3 2//2 32//32
f 33//33 13//13 11//11
f 10//10 34//34 35//35
f 9//9 34//34 10//10
f 32//32 35//35 34//34
f 27//27 13//13 33//33
f 27//27 33//33 22//22
f 36//36 37//37 38//38
f 39//39 37//37 36//36
f 40//40 41//41 42//42
f 43//43 44//44 45//45
f 45//45 46//46 47//47
f 22//22 48//48 46//46
f 49//49 19//19 50//50
f 51//51 21//21 23//23
f 16//16 40//40 52//52
f 42//42 52//52 40//40
f 15//15 53//53 16//16
f 40//40 16//16 53//53
f 54//54 25//25 55//55
f 47//47 46//46 56//56
f 23//23 45//45 44//44
f 45//45 23//23 22//22
f 43//43 45//45 47//47
f 45//45 22//22 46//46
f 2//2 57//57 35//35
f 8//8 10//10 58//58
f 1//1 31//31 57//57
f 35//35 58//58 10//10
f 59//59 6//6 5//5
f 58//58 59//59 8//8
f 2//2 35//35 32//32
f 40//40 53//53 60//60
f 61//61 62//62 63//63
f 48//48 64//64 46//46
f 64//64 48//48 59//59
f 56//56 46//46 64//64
f 65//65 66//66 67//67
f 68//68 69//69 70//70
f 71//71 70//70 69//69
f 72//72 73//73 41//41
f 38//38 72//72 74//74
f 73//73 42//42 41//41
f 60//60 41//41 40//40
f 53//53 15//15 75//75
f 53//53 75//75 76//76
f 36//36 76//76 39//39
f 44//44 77//77 71//71
f 25//25 63//63 65//65
f 78//78 79//79 75//75
f 61//61 80//80 62//62
f 15//15 49//49 81//81
f 82//82 83//83 55//55
f 61//61 54//54 84//84
f 33//33 48//48 22//22
f 11//11 48//48 33//33
f 48//48 11//11 59//59
f 57//57 58//58 35//35
f 85//85 56//56 86//86
f 30//30 85//85 86//86
f 56//56 85//85 87//87
f 57//57 2//2 1//1
f 64//64 57//57 86//86
f 31//31 86//86 57//57
f 30//30 86//86 31//31
f 64//64 86//86 56//56
f 6//6 59//59 11//11
f 59//59 5//5 8//8
f 75//75 15//15 81//81
f 88//88 50//50 66//66
f 50//50 88//88 49//49
f 69//69 51//51 71//71
f 54//54 61//61 63//63
f 82//82 77//77 83//83
f 88//88 62//62 89//89
f 58//58 57//57 64//64
f 19//19 49//49 15//15
f 25//25 67//67 26//26
f 67//67 25//25 65//65
f 66//66 65//65 88//88
f 23//23 71//71 51//51
f 26//26 68//68 24//24
f 70//70 24//24 68//68
f 23//23 44//44 71//71
f 71//71 77//77 70//70
f 70//70 77//77 82//82
f 77//77 44//44 90//90
f 43//43 90//90 44//44
f 54//54 63//63 25//25
f 39//39 76//76 79//79
f 75//75 79//79 76//76
f 78//78 81//81 89//89
f 81//81 78//78 75//75
f 78//78 89//89 80//80
f 62//62 80//80 89//89
f 88//88 89//89 49//49
f 81//81 49//49 89//89
f 55//55 84//84 54//54
f 55//55 83//83 84//84
f 59//59 58//58 64//64
f 60//60 76//76 36//36
f 47//47 56//56 87//87
f 60//60 53//53 76//76
f 25//25 24//24 55//55
f 24//24 70//70 82//82
f 82//82 55//55 24//24
f 60//60 36//36 74//74
f 38//38 74//74 36//36
f 72//72 41//41 74//74
f 60//60 74//74 41//41
f 77//77 90//90 83//83
f 91//91 17//17 52//52
f 62//62 88//88 65//65
f 63//63 62//62 65//65
f 17//17 16//16 52//52
f 92//92 91//91 52//52
f 42//42 92//92 52//52
f 93//93 92//92 42//42
f 93//93 42//42 73//73
# 140 faces, 0 coords texture

# End of File
