####
#
# OBJ File Generated by Meshlab
#
####
# Object 7.obj
#
# Vertices: 50
# Faces: 48
#
####
vn -1.557322 -0.000153 0.205304
v 33.575218 0.215858 -25.803661 1.000000 1.000000 1.000000
vn -1.761687 0.001009 -1.352142
v 33.768219 0.214765 -24.339661 1.000000 1.000000 1.000000
vn -4.876407 -0.000104 -0.942114
v 33.768219 1.214765 -24.338915 1.000000 1.000000 1.000000
vn -1.557339 -0.000344 0.205176
v 33.575218 2.215857 -25.802168 1.000000 1.000000 1.000000
vn -3.114737 -0.000724 0.409899
v 34.707710 2.209434 -17.197170 1.000000 1.000000 1.000000
vn -3.114738 -0.000868 0.409891
v 34.481209 2.210719 -18.918169 1.000000 1.000000 1.000000
vn -3.114740 -0.000798 0.409883
v 34.577705 1.210173 -18.186916 1.000000 1.000000 1.000000
vn -1.557341 -0.000153 0.205159
v 35.536201 0.204737 -10.904665 1.000000 1.000000 1.000000
vn -1.557341 -0.000153 0.205159
v 35.536201 2.204736 -10.903172 1.000000 1.000000 1.000000
vn -4.467493 -0.001621 2.172662
v 35.387207 1.205580 -12.034918 1.000000 1.000000 1.000000
vn -1.352782 -0.001316 1.762580
v 35.387207 0.205581 -12.035664 1.000000 1.000000 1.000000
vn -3.114711 -0.000329 0.410099
v 35.387207 2.205580 -12.034171 1.000000 1.000000 1.000000
vn -0.408729 0.002325 -3.114890
v 32.652718 0.214655 -24.193287 1.000000 1.000000 1.000000
vn -0.408730 0.002327 -3.114890
v 25.959715 0.213994 -23.315044 1.000000 1.000000 1.000000
vn -0.204366 0.001163 -1.557444
v 24.844213 0.213884 -23.168669 1.000000 1.000000 1.000000
vn -0.408729 0.002326 -3.114889
v 25.959715 1.213994 -23.314297 1.000000 1.000000 1.000000
vn -0.408733 0.002328 -3.114889
v 29.306215 0.214324 -23.754166 1.000000 1.000000 1.000000
vn -0.408731 0.002326 -3.114890
v 27.632963 0.214159 -23.534603 1.000000 1.000000 1.000000
vn -0.408732 0.002326 -3.114890
v 28.190714 1.214214 -23.607044 1.000000 1.000000 1.000000
vn -0.408729 0.002326 -3.114890
v 27.075216 1.214104 -23.460670 1.000000 1.000000 1.000000
vn -3.114738 -0.000669 0.409887
v 34.780083 1.209024 -16.648916 1.000000 1.000000 1.000000
vn -3.114740 -0.000543 0.409876
v 34.982460 1.207876 -15.110917 1.000000 1.000000 1.000000
vn -3.114738 -0.000592 0.409895
v 34.934212 2.208149 -15.476171 1.000000 1.000000 1.000000
vn -3.114737 -0.000460 0.409895
v 35.160706 2.206865 -13.755171 1.000000 1.000000 1.000000
vn -3.114740 -0.001193 0.409873
v 33.970596 1.213617 -22.800915 1.000000 1.000000 1.000000
vn -3.114739 -0.001137 0.409880
v 34.028221 2.213288 -22.360168 1.000000 1.000000 1.000000
vn -3.114737 -0.001278 0.409901
v 33.801720 2.214572 -24.081169 1.000000 1.000000 1.000000
vn -3.114739 -0.000942 0.409884
v 34.375336 1.211321 -19.724916 1.000000 1.000000 1.000000
vn -3.114739 -0.001009 0.409890
v 34.254707 2.212003 -20.639170 1.000000 1.000000 1.000000
vn 0.409121 -0.002324 3.114838
v 27.579584 1.204809 -11.009424 1.000000 1.000000 1.000000
vn 0.204559 -0.001163 1.557421
v 26.464209 1.204698 -10.862925 1.000000 1.000000 1.000000
vn 0.409120 -0.002324 3.114839
v 27.579584 0.204809 -11.010170 1.000000 1.000000 1.000000
vn 0.409118 -0.002326 3.114838
v 34.271828 0.205470 -11.889165 1.000000 1.000000 1.000000
vn 0.409118 -0.002326 3.114839
v 34.271828 1.205470 -11.888418 1.000000 1.000000 1.000000
vn 0.409119 -0.002326 3.114839
v 30.925707 0.205140 -11.449668 1.000000 1.000000 1.000000
vn 0.409121 -0.002324 3.114839
v 32.598770 0.205305 -11.669416 1.000000 1.000000 1.000000
vn 0.409120 -0.002326 3.114838
v 32.041084 1.205250 -11.595420 1.000000 1.000000 1.000000
vn 0.409121 -0.002324 3.114839
v 33.156448 1.205360 -11.741919 1.000000 1.000000 1.000000
vn -0.408729 0.002327 -3.114891
v 30.979467 0.214490 -23.973728 1.000000 1.000000 1.000000
vn -0.408732 0.002328 -3.114890
v 30.421717 1.214434 -23.899794 1.000000 1.000000 1.000000
vn -0.408733 0.002330 -3.114889
v 29.306215 1.214324 -23.753418 1.000000 1.000000 1.000000
vn -3.114740 -0.000414 0.409875
v 35.184830 1.206728 -13.572918 1.000000 1.000000 1.000000
vn -3.114741 -0.001060 0.409868
v 34.172958 1.212469 -21.262915 1.000000 1.000000 1.000000
vn 0.409119 -0.002322 3.114839
v 28.694956 1.204919 -11.155924 1.000000 1.000000 1.000000
vn 0.409119 -0.002323 3.114838
v 29.252645 0.204974 -11.229919 1.000000 1.000000 1.000000
vn 0.409118 -0.002325 3.114839
v 29.810331 1.205029 -11.302422 1.000000 1.000000 1.000000
vn 0.409119 -0.002327 3.114840
v 30.925707 1.205139 -11.448921 1.000000 1.000000 1.000000
vn -0.408729 0.002326 -3.114891
v 32.094968 1.214599 -24.119354 1.000000 1.000000 1.000000
vn -0.204365 0.001162 -1.557447
v 24.844213 1.213883 -23.167923 1.000000 1.000000 1.000000
vn 0.204558 -0.001163 1.557419
v 26.464209 0.204699 -10.863672 1.000000 1.000000 1.000000
# 50 vertices, 0 vertices normals

f 1//1 2//2 3//3
f 1//1 3//3 4//4
f 5//5 6//6 7//7
f 8//8 9//9 10//10
f 11//11 8//8 10//10
f 12//12 10//10 9//9
f 13//13 3//3 2//2
f 14//14 15//15 16//16
f 17//17 18//18 19//19
f 20//20 19//19 18//18
f 21//21 22//22 23//23
f 24//24 23//23 22//22
f 25//25 26//26 27//27
f 28//28 6//6 29//29
f 30//30 31//31 32//32
f 33//33 11//11 34//34
f 35//35 36//36 37//37
f 38//38 37//37 36//36
f 39//39 17//17 40//40
f 19//19 41//41 17//17
f 18//18 14//14 20//20
f 22//22 42//42 24//24
f 26//26 25//25 43//43
f 44//44 30//30 32//32
f 45//45 35//35 46//46
f 37//37 47//47 35//35
f 36//36 33//33 38//38
f 41//41 40//40 17//17
f 47//47 46//46 35//35
f 39//39 40//40 48//48
f 3//3 13//13 48//48
f 13//13 39//39 48//48
f 49//49 16//16 15//15
f 16//16 20//20 14//14
f 12//12 24//24 42//42
f 42//42 10//10 12//12
f 7//7 21//21 5//5
f 23//23 5//5 21//21
f 3//3 27//27 4//4
f 27//27 3//3 25//25
f 6//6 28//28 7//7
f 43//43 29//29 26//26
f 29//29 43//43 28//28
f 45//45 46//46 44//44
f 50//50 32//32 31//31
f 32//32 45//45 44//44
f 10//10 34//34 11//11
f 34//34 38//38 33//33
# 48 faces, 0 coords texture

# End of File
